
; ASM FILE music11.asm :
; 0xD471..0xE033 : Music 11
Music_11:       db 0
		db 0
		db 0
		db 0BEh
		dw Music_11_Channel_0
		dw Music_11_Channel_1
		dw Music_11_Channel_2
		dw Music_11_Channel_3
		dw Music_11_Channel_4
		dw Music_11_Channel_5
		dw Music_11_Channel_6
		dw Music_11_Channel_7
		dw Music_11_Channel_8
		dw Music_11_Channel_9
Music_11_Channel_0:
		  inst 7
		  vol 0Dh
		  setRelease 01h
		  vibrato 02Ch
		mainLoopStart
		  noSlide
		        noteL G5,0
		  setSlide 040h
		        noteL C6,12
		  noSlide
		        noteL B5,6
		        wait
		        note  C6
		        wait
		        note  D6
		        wait
		        note  E6
		        wait
		        noteL E5,0
		  setSlide 020h
		        noteL G5,20
		  noSlide
		        waitL 4
		        noteL E6,12
		        noteL D6,0
		  setSlide 010h
		        noteL F6,24
		  noSlide
		        noteL D6,66
		        waitL 6
		        noteL F5,0
		  setSlide 040h
		        noteL B5,12
		  noSlide
		        noteL As5,6
		        wait
		        note  B5
		        wait
		        note  C6
		        wait
		        note  D6
		        wait
		        noteL E5,0
		  setSlide 020h
		        noteL G5,20
		  noSlide
		        waitL 4
		        noteL F6,12
		        noteL E6,24
		  setSlide 020h
		        noteL G6,48
		  noSlide
		        waitL 24
		        noteL C6,0
		  setSlide 020h
		        noteL F6,12
		  noSlide
		        noteL C6,6
		        wait
		        note  F6
		        wait
		        note  A6
		        wait
		        note  C7
		        wait
		        noteL G6,0
		  setSlide 018h
		        noteL B6,24
		  noSlide
		        noteL A6,6
		        wait
		        note  G6
		        waitL 18
		  setSlide 020h
		        noteL As6,24
		  noSlide
		        note  A6
		        note  G6
		        noteL Fs6,12
		        noteL D6,6
		        wait
		        note  D6
		        wait
		        note  Fs6
		        wait
		        noteL A6,24
		        noteL B6,6
		        wait
		        note  C7
		        wait
		        note  B6
		        waitL 18
		        noteL F6,0
		  setSlide 020h
		        noteL A6,25
		  noSlide
		        noteL G6,24
		        noteL F6,23
		  noSlide
		        noteL G5,0
		  setSlide 040h
		        noteL C6,12
		  noSlide
		        noteL B5,6
		        wait
		        note  C6
		        wait
		        note  D6
		        wait
		        note  E6
		        wait
		        noteL E5,0
		  setSlide 020h
		        noteL G5,20
		  noSlide
		        waitL 4
		        noteL E6,12
		        noteL D6,0
		  setSlide 010h
		        noteL F6,24
		  noSlide
		        noteL D6,66
		        waitL 6
		        noteL F5,0
		  setSlide 040h
		        noteL B5,12
		  noSlide
		        noteL As5,6
		        wait
		        note  B5
		        wait
		        note  C6
		        wait
		        note  D6
		        wait
		        noteL E5,0
		  setSlide 020h
		        noteL G5,20
		  noSlide
		        waitL 4
		        noteL F6,12
		        noteL E6,24
		  setSlide 020h
		        noteL G6,48
		  noSlide
		        waitL 24
		        noteL C6,0
		  setSlide 020h
		        noteL F6,12
		  noSlide
		        noteL C6,6
		        wait
		        note  F6
		        wait
		        note  A6
		        wait
		        note  C7
		        wait
		        noteL G6,0
		  setSlide 018h
		        noteL B6,24
		  noSlide
		        noteL A6,6
		        wait
		        note  G6
		        waitL 18
		  setSlide 020h
		        noteL As6,24
		  noSlide
		        note  A6
		        note  G6
		        noteL D6,6
		        wait
		  setSlide 020h
		        noteL F6,12
		  noSlide
		        noteL E6,6
		        wait
		        note  D6
		        wait
		        noteL A6,24
		        note  B5
		  setSlide 020h
		        noteL C6,3
		        noteL D6,4
		        waitL 5
		  noSlide
		        noteL C6,84
		        noteL A6,6
		        wait
		        noteL A6,12
		        note  F6
		        noteL C6,24
		        noteL C6,12
		        noteL F6,6
		        wait
		        noteL A6,12
		        noteL G6,24
		        noteL E6,68
		        waitL 4
		        noteL E6,6
		        wait
		        noteL C6,0
		  setSlide 020h
		        noteL E6,12
		  noSlide
		        note  C6
		        noteL A5,24
		        noteL A5,12
		        noteL C6,6
		        wait
		        note  E6
		        wait
		        noteL D6,92
		        waitL 4
		        noteL A6,6
		        wait
		        noteL F6,0
		  setSlide 030h
		        noteL A6,12
		  noSlide
		        note  F6
		        noteL C6,24
		        noteL A6,0
		  setSlide 016h
		        noteL C7,12
		  noSlide
		        noteL B6,4
		        waitL 8
		        noteL A6,4
		        waitL 8
		        noteL G6,18
		        waitL 6
		  setSlide 018h
		        noteL B6,24
		  noSlide
		        note  C7
		        note  D7
		        noteL E7,6
		        wait
		        noteL E7,12
		        note  C7
		        noteL A6,60
		        noteL E7,6
		        wait
		        noteL E7,12
		        note  C7
		        noteL A6,24
		        noteL A6,12
		        noteL C7,24
		  setSlide 010h
		        noteL D7,158
		  noSlide
		        waitL 34
		mainLoopEnd
Music_11_Channel_1:
		mainLoopStart
		  inst 26
		  vol 0Ch
		  setRelease 01h
		  vibrato 02Ch
		        waitL 12
		        noteL E6,6
		        waitL 18
		        noteL E6,6
		        waitL 18
		        noteL E6,6
		        waitL 18
		        noteL E6,6
		        wait
		        waitL 12
		        noteL F6,6
		        waitL 18
		        noteL F6,6
		        waitL 18
		        noteL F6,6
		        waitL 18
		        noteL F6,6
		        wait
		        waitL 12
		        noteL F6,6
		        waitL 18
		        noteL F6,6
		        waitL 18
		        noteL F6,6
		        waitL 18
		        noteL F6,6
		        wait
		        waitL 12
		        noteL E6,6
		        waitL 18
		        noteL E6,6
		        waitL 18
		        noteL E6,6
		        waitL 18
		        noteL E6,6
		        wait
		        waitL 12
		        noteL F6,6
		        waitL 18
		        noteL F6,6
		        waitL 18
		        noteL F6,6
		        waitL 18
		        noteL F6,6
		        wait
		        waitL 12
		        noteL G6,6
		        waitL 18
		        noteL G6,6
		        waitL 18
		        noteL E6,6
		        waitL 18
		        noteL E6,6
		        wait
		        waitL 12
		        noteL C6,6
		        waitL 18
		        noteL C6,6
		        waitL 18
		        noteL C6,6
		        waitL 18
		        noteL C6,6
		        wait
		        note  D6
		        waitL 18
		        noteL C7,24
		        note  B6
		        noteL A6,18
		        waitL 6
		        waitL 12
		  inst 26
		  vol 0Ch
		        noteL E6,6
		        waitL 18
		        noteL E6,6
		        waitL 18
		        noteL E6,6
		        waitL 18
		        noteL E6,6
		        wait
		        waitL 12
		        noteL F6,6
		        waitL 18
		        noteL F6,6
		        waitL 18
		        noteL F6,6
		        waitL 18
		        noteL F6,6
		        wait
		        waitL 12
		        noteL F6,6
		        waitL 18
		        noteL F6,6
		        waitL 18
		        noteL F6,6
		        waitL 18
		        noteL F6,6
		        wait
		        waitL 12
		        noteL E6,6
		        waitL 18
		        noteL E6,6
		        waitL 18
		        noteL E6,6
		        waitL 18
		        noteL E6,6
		        wait
		        waitL 12
		        noteL F6,6
		        waitL 18
		        noteL F6,6
		        waitL 18
		        noteL F6,6
		        waitL 18
		        noteL F6,6
		        wait
		        waitL 12
		        noteL G6,6
		        waitL 18
		        noteL G6,6
		        waitL 18
		        noteL E6,6
		        waitL 18
		        noteL E6,6
		        wait
		        waitL 12
		        noteL F6,6
		        waitL 18
		        noteL F6,6
		        waitL 18
		        noteL F6,6
		        waitL 18
		        noteL F6,6
		        wait
		        waitL 12
		        noteL E6,6
		        waitL 18
		        noteL E6,6
		        waitL 18
		        noteL E6,6
		        waitL 18
		        noteL E6,6
		        wait
		        waitL 12
		        noteL F6,6
		        waitL 18
		        noteL F6,6
		        waitL 18
		        noteL F6,6
		        waitL 18
		        noteL F6,6
		        wait
		        waitL 12
		        noteL E6,6
		        waitL 18
		        noteL E6,6
		        waitL 18
		        noteL E6,6
		        waitL 18
		        noteL E6,6
		        wait
		        waitL 12
		        noteL E6,6
		        waitL 18
		        noteL E6,6
		        waitL 18
		        noteL E6,6
		        waitL 18
		        noteL E6,6
		        wait
		        waitL 12
		        noteL D6,6
		        waitL 18
		        noteL D6,6
		        waitL 18
		        noteL D6,6
		        waitL 18
		        noteL D6,6
		        wait
		        waitL 12
		        noteL F6,6
		        waitL 18
		        noteL F6,6
		        waitL 18
		        noteL F6,6
		        waitL 18
		        noteL F6,6
		        wait
		        waitL 12
		        noteL D6,6
		        waitL 18
		        noteL D6,6
		        waitL 18
		        noteL E6,6
		        waitL 18
		        noteL E6,6
		        wait
		        waitL 12
		        noteL E6,6
		        waitL 18
		        noteL E6,6
		        waitL 18
		        noteL E6,6
		        waitL 18
		        noteL E6,6
		        wait
		        waitL 12
		        noteL D6,6
		        waitL 18
		        noteL D6,6
		        waitL 18
		        noteL D6,6
		        waitL 18
		        noteL D6,6
		        wait
		        waitL 12
		        noteL D6,6
		        waitL 18
		        noteL D6,6
		        waitL 18
		        noteL D6,6
		        waitL 18
		        noteL D6,6
		        wait
		        note  D6
		        waitL 18
		  inst 48
		  vol 0Ch
		        noteL F7,6
		        waitL 18
		        noteL E7,6
		        waitL 18
		        noteL D7,6
		        waitL 18
		mainLoopEnd
Music_11_Channel_2:
		mainLoopStart
		  inst 26
		  vol 0Ch
		  setRelease 01h
		  vibrato 02Ch
		        waitL 12
		        noteL C6,6
		        waitL 18
		        noteL C6,6
		        waitL 18
		        noteL C6,6
		        waitL 18
		        noteL C6,6
		        wait
		        waitL 12
		        noteL C6,6
		        waitL 18
		        noteL C6,6
		        waitL 18
		        noteL C6,6
		        waitL 18
		        noteL C6,6
		        wait
		        waitL 12
		        noteL D6,6
		        waitL 18
		        noteL D6,6
		        waitL 18
		        noteL D6,6
		        waitL 18
		        noteL D6,6
		        wait
		        waitL 12
		        noteL C6,6
		        waitL 18
		        noteL C6,6
		        waitL 18
		        noteL C6,6
		        waitL 18
		        noteL C6,6
		        wait
		        waitL 12
		        noteL C6,6
		        waitL 18
		        noteL C6,6
		        waitL 18
		        noteL C6,6
		        waitL 18
		        noteL C6,6
		        wait
		        waitL 12
		        noteL D6,6
		        waitL 18
		        noteL D6,6
		        waitL 18
		        noteL Cs6,6
		        waitL 18
		        noteL Cs6,6
		        wait
		        waitL 12
		        noteL A5,6
		        waitL 18
		        noteL A5,6
		        waitL 18
		        noteL A5,6
		        waitL 18
		        noteL A5,6
		        wait
		        note  A5
		        waitL 18
		  inst 48
		  vol 0Bh
		        noteL A6,24
		        note  G6
		        noteL F6,18
		        waitL 6
		        waitL 12
		  inst 26
		  vol 0Ch
		        noteL C6,6
		        waitL 18
		        noteL C6,6
		        waitL 18
		        noteL C6,6
		        waitL 18
		        noteL C6,6
		        wait
		        waitL 12
		        noteL C6,6
		        waitL 18
		        noteL C6,6
		        waitL 18
		        noteL C6,6
		        waitL 18
		        noteL C6,6
		        wait
		        waitL 12
		        noteL D6,6
		        waitL 18
		        noteL D6,6
		        waitL 18
		        noteL D6,6
		        waitL 18
		        noteL D6,6
		        wait
		        waitL 12
		        noteL C6,6
		        waitL 18
		        noteL C6,6
		        waitL 18
		        noteL C6,6
		        waitL 18
		        noteL C6,6
		        wait
		        waitL 12
		        noteL C6,6
		        waitL 18
		        noteL C6,6
		        waitL 18
		        noteL C6,6
		        waitL 18
		        noteL C6,6
		        wait
		        waitL 12
		        noteL D6,6
		        waitL 18
		        noteL D6,6
		        waitL 18
		        noteL Cs6,6
		        waitL 18
		        noteL Cs6,6
		        wait
		        waitL 12
		        noteL D6,6
		        waitL 18
		        noteL D6,6
		        waitL 18
		        noteL D6,6
		        waitL 18
		        noteL D6,6
		        wait
		        waitL 12
		        noteL C6,6
		        waitL 18
		        noteL C6,6
		        waitL 18
		        noteL C6,6
		        waitL 18
		        noteL C6,6
		        wait
		        waitL 12
		        noteL C6,6
		        waitL 18
		        noteL C6,6
		        waitL 18
		        noteL C6,6
		        waitL 18
		        noteL C6,6
		        wait
		        waitL 12
		        noteL C6,6
		        waitL 18
		        noteL C6,6
		        waitL 18
		        noteL C6,6
		        waitL 18
		        noteL C6,6
		        wait
		        waitL 12
		        noteL C6,6
		        waitL 18
		        noteL C6,6
		        waitL 18
		        noteL C6,6
		        waitL 18
		        noteL C6,6
		        wait
		        waitL 12
		        noteL B5,6
		        waitL 18
		        noteL B5,6
		        waitL 18
		        noteL B5,6
		        waitL 18
		        noteL B5,6
		        wait
		        waitL 12
		        noteL C6,6
		        waitL 18
		        noteL C6,6
		        waitL 18
		        noteL C6,6
		        waitL 18
		        noteL C6,6
		        wait
		        waitL 12
		        noteL B5,6
		        waitL 18
		        noteL B5,6
		        waitL 18
		        noteL C6,6
		        waitL 18
		        noteL C6,6
		        wait
		        waitL 12
		        noteL C6,6
		        waitL 18
		        noteL C6,6
		        waitL 18
		        noteL C6,6
		        waitL 18
		        noteL C6,6
		        wait
		        waitL 12
		        noteL As5,6
		        waitL 18
		        noteL As5,6
		        waitL 18
		        noteL As5,6
		        waitL 18
		        noteL As5,6
		        wait
		        waitL 12
		        noteL B5,6
		        waitL 18
		        noteL B5,6
		        waitL 18
		        noteL B5,6
		        waitL 18
		        noteL B5,6
		        wait
		        note  B5
		        waitL 18
		        noteL A6,24
		        note  G6
		        note  F6
		mainLoopEnd
Music_11_Channel_3:
		  inst 48
		  vol 0Bh
		  setRelease 01h
		  vibrato 02Ah
		mainLoopStart
		        noteL B5,2
		        noteL C6,4
		        noteL G6,6
		        note  E7
		        note  C7
		        noteL Ds6,2
		        noteL E6,4
		        noteL G6,6
		        note  E7
		        note  C7
		        noteL B5,2
		        noteL F6,4
		        noteL G6,6
		        note  E7
		        note  C7
		        noteL Ds6,2
		        noteL E6,4
		        noteL G6,6
		        note  E7
		        note  C7
		        noteL E6,2
		        noteL F6,4
		        noteL A6,6
		        note  F7
		        note  C7
		        noteL B5,2
		        noteL C6,4
		        noteL A6,6
		        note  F7
		        note  C7
		        noteL E6,2
		        noteL F6,4
		        noteL A6,6
		        note  F7
		        note  C7
		        noteL B5,2
		        noteL C6,4
		        noteL A6,6
		        note  F7
		        note  C7
		        noteL Cs6,2
		        noteL D6,4
		        noteL B6,6
		        note  F7
		        note  D7
		        noteL Fs6,2
		        noteL G6,4
		        noteL B6,6
		        note  F7
		        note  D7
		        noteL Cs6,2
		        noteL D6,4
		        noteL B6,6
		        note  F7
		        note  D7
		        noteL B5,2
		        noteL G6,4
		        noteL B6,6
		        note  F7
		        note  D7
		        noteL B5,2
		        noteL C6,4
		        noteL G6,6
		        note  E7
		        note  C7
		        noteL Ds6,2
		        noteL E6,4
		        noteL G6,6
		        note  E7
		        note  C7
		        noteL B5,2
		        noteL F6,4
		        noteL G6,6
		        note  E7
		        note  C7
		        noteL Ds6,2
		        noteL E6,4
		        noteL G6,6
		        note  E7
		        note  C7
		        noteL E6,2
		        noteL F6,4
		        noteL A6,6
		        note  F7
		        note  C7
		        noteL B5,2
		        noteL C6,4
		        noteL A6,6
		        note  F7
		        note  C7
		        noteL E6,2
		        noteL F6,4
		        noteL A6,6
		        note  F7
		        note  C7
		        noteL B5,2
		        noteL C6,4
		        noteL A6,6
		        note  F7
		        note  C7
		        noteL Ds6,2
		        noteL E6,4
		        noteL B6,6
		        note  G7
		        note  D7
		        noteL Fs6,2
		        noteL G6,4
		        noteL As6,6
		        note  G7
		        note  D7
		        noteL Gs6,2
		        noteL A6,4
		        noteL Cs7,6
		        note  G7
		        note  E7
		        noteL Ds6,2
		        noteL E6,4
		        noteL Cs7,6
		        note  G7
		        note  E7
		        noteL Cs6,2
		        noteL D6,4
		        noteL A6,6
		        note  D7
		        note  C7
		        noteL F6,2
		        noteL Fs6,4
		        noteL A6,6
		        note  F7
		        note  C7
		        noteL Cs6,2
		        noteL D6,4
		        noteL A6,6
		        note  D7
		        note  C7
		        noteL F6,2
		        noteL Fs6,4
		        noteL A6,6
		        note  D7
		        note  C7
		        note  A6
		        waitL 18
		        noteL A7,24
		        note  G7
		        noteL F7,18
		        waitL 6
		        noteL B5,2
		        noteL C6,4
		        noteL G6,6
		        note  E7
		        note  C7
		        noteL Ds6,2
		        noteL E6,4
		        noteL G6,6
		        note  E7
		        note  C7
		        noteL B5,2
		        noteL F6,4
		        noteL G6,6
		        note  E7
		        note  C7
		        noteL Ds6,2
		        noteL E6,4
		        noteL G6,6
		        note  E7
		        note  C7
		        noteL E6,2
		        noteL F6,4
		        noteL A6,6
		        note  F7
		        note  C7
		        noteL B5,2
		        noteL C6,4
		        noteL A6,6
		        note  F7
		        note  C7
		        noteL E6,2
		        noteL F6,4
		        noteL A6,6
		        note  F7
		        note  C7
		        noteL B5,2
		        noteL C6,4
		        noteL A6,6
		        note  F7
		        note  C7
		        noteL Cs6,2
		        noteL D6,4
		        noteL B6,6
		        note  F7
		        note  D7
		        noteL Fs6,2
		        noteL G6,4
		        noteL B6,6
		        note  F7
		        note  D7
		        noteL Cs6,2
		        noteL D6,4
		        noteL B6,6
		        note  F7
		        note  D7
		        noteL B5,2
		        noteL G6,4
		        noteL B6,6
		        note  F7
		        note  D7
		        noteL B5,2
		        noteL C6,4
		        noteL G6,6
		        note  E7
		        note  C7
		        noteL Ds6,2
		        noteL E6,4
		        noteL G6,6
		        note  E7
		        note  C7
		        noteL B5,2
		        noteL F6,4
		        noteL G6,6
		        note  E7
		        note  C7
		        noteL Ds6,2
		        noteL E6,4
		        noteL G6,6
		        note  E7
		        note  C7
		        noteL E6,2
		        noteL F6,4
		        noteL A6,6
		        note  F7
		        note  C7
		        noteL B5,2
		        noteL C6,4
		        noteL A6,6
		        note  F7
		        note  C7
		        noteL E6,2
		        noteL F6,4
		        noteL A6,6
		        note  F7
		        note  C7
		        noteL B5,2
		        noteL C6,4
		        noteL A6,6
		        note  F7
		        note  C7
		        noteL Ds6,2
		        noteL E6,4
		        noteL B6,6
		        note  G7
		        note  D7
		        noteL Fs6,2
		        noteL G6,4
		        noteL As6,6
		        note  G7
		        note  D7
		        noteL Gs6,2
		        noteL A6,4
		        noteL Cs7,6
		        note  G7
		        note  E7
		        noteL Ds6,2
		        noteL E6,4
		        noteL Cs7,6
		        note  G7
		        note  E7
		        noteL Cs6,2
		        noteL D6,4
		        noteL A6,6
		        note  F7
		        note  D7
		        noteL E6,2
		        noteL F6,4
		        noteL A6,6
		        note  F7
		        note  D7
		        noteL Fs6,2
		        noteL G6,4
		        noteL B6,6
		        note  F7
		        note  D7
		        noteL Cs6,2
		        noteL D6,4
		        noteL B6,6
		        note  F7
		        note  D7
		        noteL B5,2
		        noteL C6,4
		        noteL G6,6
		        note  E7
		        note  C7
		        noteL Ds6,2
		        noteL E6,4
		        noteL G6,6
		        note  E7
		        note  C7
		        noteL B5,2
		        noteL F6,4
		        noteL G6,6
		        note  E7
		        note  C7
		        noteL Ds6,2
		        noteL E6,4
		        noteL G6,6
		        note  E7
		        note  C7
		        noteL E6,2
		        noteL F6,4
		        noteL A6,6
		        note  F7
		        note  C7
		        noteL B5,2
		        noteL C6,4
		        noteL A6,6
		        note  F7
		        note  C7
		        noteL E6,2
		        noteL F6,4
		        noteL A6,6
		        note  F7
		        note  C7
		        noteL B5,2
		        noteL C6,4
		        noteL A6,6
		        note  F7
		        note  C7
		        noteL B5,2
		        noteL C6,4
		        noteL G6,6
		        note  E7
		        note  C7
		        noteL Ds6,2
		        noteL E6,4
		        noteL G6,6
		        note  E7
		        note  C7
		        noteL B5,2
		        noteL F6,4
		        noteL G6,6
		        note  E7
		        note  C7
		        noteL Ds6,2
		        noteL E6,4
		        noteL G6,6
		        note  E7
		        note  C7
		        noteL Cs6,2
		        noteL D6,4
		        noteL A6,6
		        note  E7
		        note  C7
		        noteL E6,2
		        noteL F6,4
		        noteL A6,6
		        note  E7
		        note  C7
		        noteL Cs6,2
		        noteL F6,4
		        noteL A6,6
		        note  E7
		        note  C7
		        noteL E6,2
		        noteL F6,4
		        noteL A6,6
		        note  E7
		        note  C7
		        noteL Fs6,2
		        noteL G6,4
		        noteL B6,6
		        note  F7
		        note  D7
		        noteL Cs6,2
		        noteL D6,4
		        noteL B6,6
		        note  F7
		        note  D7
		        noteL Fs6,2
		        noteL F6,4
		        noteL B6,6
		        note  F7
		        note  D7
		        noteL Cs6,2
		        noteL D6,4
		        noteL B6,6
		        note  F7
		        note  D7
		        noteL E6,2
		        noteL F6,4
		        noteL A6,6
		        note  F7
		        note  C7
		        noteL B5,2
		        noteL C6,4
		        noteL A6,6
		        note  F7
		        note  C7
		        noteL E6,2
		        noteL F6,4
		        noteL A6,6
		        note  F7
		        note  C7
		        noteL B5,2
		        noteL C6,4
		        noteL A6,6
		        note  F7
		        note  C7
		        noteL Ds6,2
		        noteL E6,4
		        noteL G6,6
		        note  D7
		        note  B6
		        noteL As5,2
		        noteL B5,4
		        noteL G6,6
		        note  D7
		        note  B6
		        noteL B5,2
		        noteL C6,4
		        noteL A6,6
		        note  E7
		        note  C7
		        noteL Ds6,2
		        noteL E6,4
		        noteL A6,6
		        note  E7
		        note  C7
		        noteL E6,2
		        noteL F6,4
		        noteL A6,6
		        note  E7
		        note  C7
		        noteL Cs6,2
		        noteL D6,4
		        noteL A6,6
		        note  E7
		        note  C7
		        noteL E6,2
		        noteL F6,4
		        noteL A6,6
		        note  E7
		        note  C7
		        noteL Cs6,2
		        noteL D6,4
		        noteL A6,6
		        note  E7
		        note  C7
		        noteL Cs6,2
		        noteL D6,4
		        noteL As6,6
		        note  F7
		        note  D7
		        noteL E6,2
		        noteL F6,4
		        noteL As6,6
		        note  F7
		        note  D7
		        noteL Cs6,2
		        noteL D6,4
		        noteL As6,6
		        note  F7
		        note  D7
		        noteL E6,2
		        noteL F6,4
		        noteL As6,6
		        note  F7
		        note  D7
		        noteL Fs6,2
		        noteL G6,4
		        noteL B6,6
		        note  F7
		        note  D7
		        noteL Cs6,2
		        noteL D6,4
		        noteL B6,6
		        note  F7
		        note  D7
		        noteL Fs6,2
		        noteL F6,4
		        noteL B6,6
		        note  F7
		        note  D7
		        noteL Cs6,2
		        noteL D6,4
		        noteL B6,6
		        note  F7
		        note  D7
		        noteL G6,0
		        waitL 24
		        noteL A7,0
		        waitL 24
		        noteL G7,0
		        waitL 24
		        noteL F7,0
		        waitL 24
		mainLoopEnd
Music_11_Channel_4:
		  inst 2
		  vol 0Dh
		  setRelease 01h
		  vibrato 02Ah
		mainLoopStart
		        noteL C4,12
		        wait
		        note  G3
		        wait
		        note  C4
		        wait
		        note  G3
		        wait
		        note  F3
		        wait
		        note  C4
		        wait
		        note  F4
		        wait
		        note  C4
		        wait
		        note  G3
		        wait
		        note  D4
		        wait
		        note  G4
		        wait
		        note  D4
		        wait
		        note  C4
		        wait
		        note  G3
		        wait
		        note  C4
		        wait
		        note  G3
		        wait
		        note  F3
		        wait
		        note  C4
		        wait
		        note  F3
		        wait
		        note  C4
		        wait
		        note  E4
		        wait
		        note  As3
		        wait
		        note  A3
		        wait
		        note  Cs4
		        wait
		        note  D4
		        wait
		        note  A3
		        wait
		        note  D4
		        wait
		        note  A3
		        wait
		        note  G3
		        wait
		        noteL G3,24
		        note  A3
		        note  B3
		        noteL C4,12
		        wait
		        note  G3
		        wait
		        note  C4
		        wait
		        note  G3
		        wait
		        note  F3
		        wait
		        note  C4
		        wait
		        note  F3
		        wait
		        note  C4
		        wait
		        note  G3
		        wait
		        note  D4
		        wait
		        note  G4
		        wait
		        note  D4
		        wait
		        note  C4
		        wait
		        note  G3
		        wait
		        note  C4
		        wait
		        note  G3
		        wait
		        note  F3
		        wait
		        note  C4
		        wait
		        note  F4
		        wait
		        note  C4
		        wait
		        note  E4
		        wait
		        note  As3
		        wait
		        note  A3
		        wait
		        note  Cs4
		        waitL 11
		        noteL D4,13
		        waitL 12
		        note  A3
		        wait
		        note  G3
		        wait
		        note  B3
		        wait
		        note  C4
		        wait
		        note  G3
		        wait
		        note  C4
		        wait
		        note  G3
		        wait
		        note  F4
		        wait
		        note  C4
		        wait
		        note  F3
		        wait
		        note  A3
		        wait
		        note  C4
		        wait
		        note  G3
		        wait
		        note  C4
		        wait
		        noteL G3,6
		        wait
		        note  C4
		        wait
		        noteL D4,12
		        wait
		        note  A3
		        wait
		        note  D4
		        wait
		        note  A3
		        wait
		        note  G3
		        wait
		        note  D4
		        wait
		        note  G4
		        wait
		        noteL D4,6
		        wait
		        note  G4
		        wait
		        noteL F4,12
		        wait
		        note  C4
		        wait
		        note  F3
		        wait
		        note  C4
		        wait
		        note  E3
		        wait
		        note  B3
		        wait
		        note  A3
		        wait
		        note  E4
		        wait
		        note  D4
		        wait
		        note  A3
		        wait
		        note  D4
		        wait
		        noteL A3,6
		        wait
		        note  D4
		        wait
		        noteL As3,12
		        wait
		        note  F4
		        wait
		        note  As4
		        wait
		        note  F4
		        wait
		        note  G4
		        wait
		        note  D4
		        wait
		        note  G3
		        wait
		        note  D4
		        wait
		        note  G4
		        wait
		        noteL G3,24
		        note  A3
		        noteL B3,19
		        waitL 5
		mainLoopEnd
Music_11_Channel_5:
		mainLoopStart
		countedLoopStart 6
		        sampleL 0,12
		        sample  1
		        sample  0
		        sample  1
		        sample  0
		        sample  1
		        sample  0
		        sample  1
		countedLoopEnd
		        sampleL 1,24
		        sample  0
		        sample  0
		        sample  0
		countedLoopStart 6
		        sampleL 0,12
		        sample  1
		        sample  0
		        sample  1
		        sample  0
		        sample  1
		        sample  0
		        sample  1
		countedLoopEnd
		        sampleL 0,12
		        sample  1
		        sample  0
		        sample  1
		        sample  0
		        sample  1
		        sample  1
		        sample  1
		countedLoopStart 8
		        sampleL 0,12
		        sample  1
		        sample  0
		        sample  1
		        sample  0
		        sample  1
		        sample  0
		        sample  1
		countedLoopEnd
		        sampleL 1,24
		        sample  0
		        sample  0
		        sample  0
		mainLoopEnd
Music_11_Channel_6:
		mainLoopStart
		  psgInst 00h
		  setRelease 01h
		  vibrato 04Ch
		        waitL    12
		  psgInst 06Ch
		        psgNoteL G3,6
		        waitL    18
		        psgNoteL G3,6
		        waitL    18
		        psgNoteL G3,6
		        waitL    18
		        psgNoteL G3,6
		        wait
		        waitL    12
		        psgNoteL A3,6
		        waitL    18
		        psgNoteL A3,6
		        waitL    18
		        psgNoteL A3,6
		        waitL    18
		        psgNoteL A3,6
		        wait
		        waitL    12
		        psgNoteL B3,6
		        waitL    18
		        psgNoteL B3,6
		        waitL    18
		        psgNoteL B3,6
		        waitL    18
		        psgNoteL B3,6
		        wait
		        waitL    12
		        psgNoteL G3,6
		        waitL    18
		        psgNoteL G3,6
		        waitL    18
		        psgNoteL G3,6
		        waitL    18
		        psgNoteL G3,6
		        wait
		        waitL    12
		        psgNoteL A3,6
		        waitL    18
		        psgNoteL A3,6
		        waitL    18
		        psgNoteL A3,6
		        waitL    18
		        psgNoteL A3,6
		        wait
		        waitL    12
		        psgNoteL B3,6
		        waitL    18
		        psgNoteL As3,6
		        waitL    18
		        psgNoteL A3,6
		        waitL    18
		        psgNoteL A3,6
		        wait
		        waitL    12
		        psgNoteL Fs3,6
		        waitL    18
		        psgNoteL Fs3,6
		        waitL    18
		        psgNoteL Fs3,6
		        waitL    18
		        psgNoteL Fs3,6
		        wait
		        psgNote  F3
		        waitL    18
		        psgNoteL F4,24
		        psgNote  E4
		        psgNoteL D4,18
		        waitL    6
		        waitL    12
		        psgNoteL G3,6
		        waitL    18
		        psgNoteL G3,6
		        waitL    18
		        psgNoteL G3,6
		        waitL    18
		        psgNoteL G3,6
		        wait
		        waitL    12
		        psgNoteL A3,6
		        waitL    18
		        psgNoteL A3,6
		        waitL    18
		        psgNoteL A3,6
		        waitL    18
		        psgNoteL A3,6
		        wait
		        waitL    12
		        psgNoteL B3,6
		        waitL    18
		        psgNoteL B3,6
		        waitL    18
		        psgNoteL B3,6
		        waitL    18
		        psgNoteL B3,6
		        wait
		        waitL    12
		        psgNoteL G3,6
		        waitL    18
		        psgNoteL G3,6
		        waitL    18
		        psgNoteL G3,6
		        waitL    18
		        psgNoteL G3,6
		        wait
		        waitL    12
		        psgNoteL A3,6
		        waitL    18
		        psgNoteL A3,6
		        waitL    18
		        psgNoteL A3,6
		        waitL    18
		        psgNoteL A3,6
		        wait
		        waitL    12
		        psgNoteL B3,6
		        waitL    18
		        psgNoteL As3,6
		        waitL    18
		        psgNoteL A3,6
		        waitL    18
		        psgNoteL A3,6
		        wait
		        waitL    12
		        psgNoteL A3,6
		        waitL    18
		        psgNoteL A3,6
		        waitL    18
		        psgNoteL B3,6
		        waitL    18
		        psgNoteL B3,6
		        wait
		        waitL    12
		        psgNoteL G3,6
		        waitL    18
		        psgNoteL G3,6
		        waitL    18
		        psgNoteL G3,6
		        waitL    18
		        psgNoteL G3,6
		        wait
		        waitL    12
		        psgNoteL A3,6
		        waitL    18
		        psgNoteL A3,6
		        waitL    18
		        psgNoteL A3,6
		        waitL    18
		        psgNoteL A3,6
		        wait
		        waitL    12
		        psgNoteL G3,6
		        waitL    18
		        psgNoteL G3,6
		        waitL    18
		        psgNoteL G3,6
		        waitL    18
		        psgNoteL G3,6
		        wait
		        waitL    12
		        psgNoteL A3,6
		        waitL    18
		        psgNoteL A3,6
		        waitL    18
		        psgNoteL A3,6
		        waitL    18
		        psgNoteL A3,6
		        wait
		        waitL    12
		        psgNoteL G3,6
		        waitL    18
		        psgNoteL G3,6
		        waitL    18
		        psgNoteL G3,6
		        waitL    18
		        psgNoteL G3,6
		        wait
		        waitL    12
		        psgNoteL A3,6
		        waitL    18
		        psgNoteL A3,6
		        waitL    18
		        psgNoteL A3,6
		        waitL    18
		        psgNoteL A3,6
		        wait
		        waitL    12
		        psgNoteL G3,6
		        waitL    18
		        psgNoteL G3,6
		        waitL    18
		        psgNoteL A3,6
		        waitL    18
		        psgNoteL A3,6
		        wait
		        waitL    12
		        psgNoteL A3,6
		        waitL    18
		        psgNoteL A3,6
		        waitL    18
		        psgNoteL A3,6
		        waitL    18
		        psgNoteL A3,6
		        wait
		        waitL    12
		        psgNoteL F3,6
		        waitL    18
		        psgNoteL F3,6
		        waitL    18
		        psgNoteL F3,6
		        waitL    18
		        psgNoteL F3,6
		        wait
		        waitL    12
		        psgNoteL G3,6
		        waitL    18
		        psgNoteL G3,6
		        waitL    18
		        psgNoteL G3,6
		        waitL    18
		        psgNoteL G3,6
		        wait
		        psgNote  G3
		        waitL    18
		  psgInst 06Dh
		        psgNoteL F4,24
		        psgNote  E4
		        psgNote  D4
		mainLoopEnd
Music_11_Channel_7:
		mainLoopStart
		  psgInst 00h
		  setRelease 01h
		  vibrato 04Ch
		        waitL    96
		        wait
		        wait
		        wait
		        wait
		        wait
		        wait
		        waitL    24
		  psgInst 06Dh
		        psgNote  F4
		        psgNote  E4
		        psgNote  D4
		  psgInst 00h
		        waitL    96
		        wait
		        wait
		        wait
		        wait
		        wait
		        wait
		        wait
		        wait
		        wait
		        wait
		        wait
		        wait
		        wait
		        wait
		        wait
		        wait
		        wait
		mainLoopEnd
Music_11_Channel_8:
		channel_end
Music_11_Channel_9:
		mainLoopStart
		  psgInst 01Dh
		  setRelease 00h
		countedLoopStart 6
		        psgNoteL Fs0,12
		        psgNote  E0
		        psgNote  Fs0
		        psgNote  E0
		        psgNote  Fs0
		        psgNote  E0
		        psgNote  Fs0
		        psgNote  E0
		countedLoopEnd
		        psgNoteL E0,24
		        psgNote  Fs0
		        psgNote  Fs0
		        psgNote  Fs0
		countedLoopStart 6
		        psgNoteL Fs0,12
		        psgNote  E0
		        psgNote  Fs0
		        psgNote  E0
		        psgNote  Fs0
		        psgNote  E0
		        psgNote  Fs0
		        psgNote  E0
		countedLoopEnd
		        psgNoteL Fs0,12
		        psgNote  E0
		        psgNote  Fs0
		        psgNote  E0
		        psgNote  Fs0
		        psgNote  E0
		        psgNote  E0
		        psgNote  E0
		countedLoopStart 8
		        psgNoteL Fs0,12
		        psgNote  E0
		        psgNote  Fs0
		        psgNote  E0
		        psgNote  Fs0
		        psgNote  E0
		        psgNote  Fs0
		        psgNote  E0
		countedLoopEnd
		        psgNoteL E0,24
		        psgNote  Fs0
		        psgNote  Fs0
		        psgNote  Fs0
		mainLoopEnd
