
; ASM FILE music10.asm :
; 0xE50E..0xE78D : Music 10
Music_10:       db 0
		db 0
		db 0
		db 0B7h
		dw Music_10_Channel_0
		dw Music_10_Channel_1
		dw Music_10_Channel_2
		dw Music_10_Channel_3
		dw Music_10_Channel_4
		dw Music_10_Channel_5
		dw Music_10_Channel_6
		dw Music_10_Channel_7
		dw Music_10_Channel_9
		dw Music_10_Channel_9
Music_10_Channel_0:
		  inst 44
		  vol 0Dh
		  setRelease 01h
		  vibrato 02Ch
		mainLoopStart
		        noteL B4,18
		        note  C5
		        noteL D5,36
		        noteL C5,18
		        note  B4
		        noteL C5,36
		        noteL E4,63
		        waitL 9
		        noteL A4,18
		        note  B4
		        noteL C5,36
		        noteL B4,18
		        note  A4
		        noteL B4,36
		        noteL D5,63
		        waitL 9
		        noteL E5,18
		        note  Fs5
		        noteL G5,36
		        noteL Fs5,18
		        note  E5
		        noteL Fs5,36
		        noteL D5,63
		        waitL 9
		        noteL C5,18
		        note  E4
		        note  E4
		        note  Fs4
		        note  G4
		        note  E4
		        noteL Fs4,36
		        noteL A4,63
		        waitL 9
		        noteL B4,18
		        note  C5
		        noteL D5,36
		        noteL C5,18
		        note  B4
		        noteL C5,36
		        noteL E4,63
		        waitL 9
		        noteL A4,18
		        note  B4
		        noteL C5,36
		        noteL B4,18
		        note  A4
		        noteL B4,36
		        noteL D5,63
		        waitL 9
		        noteL E5,18
		        note  Fs5
		        noteL G5,36
		        noteL Fs5,18
		        note  E5
		        noteL Fs5,36
		        noteL D5,63
		        waitL 9
		        noteL C5,18
		        note  C4
		        note  D4
		        note  E4
		        note  Fs4
		        note  D4
		        noteL A4,36
		        noteL G4,63
		        waitL 9
		mainLoopEnd
Music_10_Channel_1:
		  inst 23
		  shifting 0Ch
		  vol 09h
		  setRelease 01h
		  vibrato 02Ch
		mainLoopStart
		        noteL B6,18
		        note  C7
		        noteL D7,36
		        noteL C7,18
		        note  B6
		        noteL C7,36
		        noteL E6,63
		        waitL 9
		        noteL A6,18
		        note  B6
		        noteL C7,36
		        noteL B6,18
		        note  A6
		        noteL B6,36
		        noteL D7,63
		        waitL 9
		        noteL E7,18
		        note  Fs7
		        noteL G7,36
		        noteL Fs7,18
		        note  E7
		        noteL Fs7,36
		        noteL D7,63
		        waitL 9
		        noteL C7,18
		        note  E6
		        note  E6
		        note  Fs6
		        note  G6
		        note  E6
		        noteL Fs6,36
		        noteL A6,63
		        waitL 9
		        noteL B6,18
		        note  C7
		        noteL D7,36
		        noteL C7,18
		        note  B6
		        noteL C7,36
		        noteL E6,63
		        waitL 9
		        noteL A6,18
		        note  B6
		        noteL C7,36
		        noteL B6,18
		        note  A6
		        noteL B6,36
		        noteL D7,63
		        waitL 9
		        noteL E7,18
		        note  Fs7
		        noteL G7,36
		        noteL Fs7,18
		        note  E7
		        noteL Fs7,36
		        noteL D7,63
		        waitL 9
		        noteL C7,18
		        note  C6
		        note  D6
		        note  E6
		        note  Fs6
		        note  D6
		        noteL A6,36
		        noteL G6,63
		        waitL 9
		mainLoopEnd
Music_10_Channel_2:
		mainLoopStart
		        waitL 18
		  inst 26
		  vol 0Ah
		  setRelease 01h
		  vibrato 02Ah
		        note  D5
		        note  B5
		        note  D5
		        note  B5
		        note  D5
		        note  C6
		        note  E5
		        note  C6
		        note  E5
		        note  C6
		        note  E5
		        note  C6
		        note  D5
		        note  C6
		        note  D5
		        note  C6
		        note  D5
		        note  B5
		        note  D5
		        note  B5
		        note  D5
		        note  B5
		        note  D5
		        note  C6
		        note  E5
		        note  C6
		        note  E5
		        note  C6
		        note  E5
		        note  B5
		        note  D5
		        note  B5
		        note  D5
		        note  B5
		        note  D5
		        note  C6
		        note  E5
		        note  C6
		        note  E5
		        note  C6
		        note  E5
		        note  C6
		        note  D5
		        note  C6
		        note  D5
		        note  C6
		        note  D5
		        note  B5
		        note  D5
		        note  B5
		        note  D5
		        note  B5
		        note  D5
		        note  C6
		        note  E5
		        note  C6
		        note  E5
		        note  C6
		        note  E5
		        note  C6
		        note  D5
		        note  C6
		        note  D5
		        note  C6
		        note  D5
		        note  B5
		        note  D5
		        note  B5
		        note  D5
		        note  B5
		        note  D5
		        note  C6
		        note  E5
		        note  C6
		        note  E5
		        note  C6
		        note  E5
		        note  B5
		        note  D5
		        note  B5
		        note  D5
		        note  B5
		        note  D5
		        note  C6
		        note  E5
		        note  C6
		        note  E5
		        note  C6
		        note  D5
		        noteL C6,36
		        noteL B5,54
		        waitL 18
		mainLoopEnd
Music_10_Channel_3:
		  inst 26
		  vol 0Ah
		  setRelease 01h
		  vibrato 02Ch
		mainLoopStart
		        noteL G5,18
		        note  B4
		        note  G5
		        note  B4
		        note  G5
		        note  B4
		        note  G5
		        note  C5
		        note  G5
		        note  C5
		        note  G5
		        note  C5
		        note  Fs5
		        note  C5
		        note  Fs5
		        note  C5
		        note  Fs5
		        note  C5
		        note  G5
		        note  B4
		        note  G5
		        note  B4
		        note  G5
		        note  B4
		        note  G5
		        note  C5
		        note  G5
		        note  C5
		        note  G5
		        note  C5
		        note  Fs5
		        note  B4
		        note  Fs5
		        note  B4
		        note  Fs5
		        note  B4
		        note  G5
		        note  C5
		        note  G5
		        note  C5
		        note  G5
		        note  C5
		        note  Fs5
		        note  C5
		        note  Fs5
		        note  C5
		        note  Fs5
		        note  C5
		        note  G5
		        note  B4
		        note  G5
		        note  B4
		        note  G5
		        note  B4
		        note  G5
		        note  C5
		        note  G5
		        note  C5
		        note  G5
		        note  C5
		        note  Fs5
		        note  C5
		        note  Fs5
		        note  C5
		        note  Fs5
		        note  C5
		        note  G5
		        note  B4
		        note  G5
		        note  B4
		        note  G5
		        note  B4
		        note  G5
		        note  C5
		        note  G5
		        note  C5
		        note  G5
		        note  C5
		        note  Fs5
		        note  B4
		        note  Fs5
		        note  B4
		        note  Fs5
		        note  B4
		        note  G5
		        note  C5
		        note  G5
		        note  C5
		        note  Fs5
		        note  C5
		        noteL E5,36
		        noteL D5,54
		        waitL 18
		mainLoopEnd
Music_10_Channel_4:
		  inst 4
		  vol 0Eh
		  setRelease 01h
		  vibrato 02Ah
		mainLoopStart
		        noteL G4,108
		        note  A4
		        note  D5
		        note  G4
		        note  C5
		        note  B4
		        note  A4
		        note  D5
		        note  G4
		        note  A4
		        note  D5
		        note  G4
		        note  C5
		        note  B4
		        noteL A4,72
		        noteL D5,36
		        noteL G4,108
		mainLoopEnd
Music_10_Channel_5:
		channel_end
Music_10_Channel_6:
		mainLoopStart
		  psgInst 06Bh
		  setRelease 01h
		  vibrato 04Ch
		        psgNoteL B2,108
		        psgNoteL C3,36
		        psgNote  E2
		        psgNote  C3
		        psgNoteL A2,108
		        psgNoteL B2,36
		        psgNote  D2
		        psgNote  D3
		        psgNoteL E3,108
		        psgNoteL D3,36
		        psgNote  Fs3
		        psgNote  D3
		        psgNoteL C3,144
		        psgNoteL Fs2,36
		        psgNote  C3
		        psgNoteL B2,108
		        psgNoteL C3,36
		        psgNote  E2
		        psgNote  C3
		        psgNoteL A2,108
		        psgNoteL B2,36
		        psgNote  D2
		        psgNote  D3
		        psgNoteL E3,108
		        psgNoteL D3,36
		        psgNote  Fs3
		        psgNote  D3
		        psgNoteL C3,144
		        psgNoteL B2,72
		mainLoopEnd
Music_10_Channel_7:
		mainLoopStart
		  psgInst 00h
		  setRelease 01h
		  vibrato 04Ch
		        waitL    108
		  psgInst 06Bh
		        psgNoteL A2,36
		        psgNote  C2
		        psgNote  A2
		        psgNoteL Fs2,108
		        psgNoteL G2,36
		        psgNote  B1
		        psgNote  B2
		        psgNoteL C3,108
		        psgNoteL B2,36
		        psgNote  D3
		        psgNote  B2
		        psgNoteL A2,144
		        psgNoteL D2,36
		        psgNote  Fs2
		        psgNoteL G2,108
		        psgNoteL A2,36
		        psgNote  C2
		        psgNote  A2
		        psgNoteL Fs2,108
		        psgNoteL G2,36
		        psgNote  B1
		        psgNote  B2
		        psgNoteL C3,108
		        psgNoteL B2,36
		        psgNote  D3
		        psgNote  B2
		        psgNoteL A2,144
		        psgNoteL G2,72
		mainLoopEnd
Music_10_Channel_9:
		channel_end
