
; ASM FILE music01.asm :
; 0x8940..0x8B1A : Music 01
Music_1:        db 0
		db 0
		db 0
		db 0B7h
		dw Music_1_Channel_0
		dw Music_1_Channel_1
		dw Music_1_Channel_2
		dw Music_1_Channel_3
		dw Music_1_Channel_4
		dw Music_1_Channel_5
		dw Music_1_Channel_6
		dw Music_1_Channel_7
		dw Music_1_Channel_9
		dw Music_1_Channel_9
Music_1_Channel_0:
		  inst 26
		  vol 0Ch
		  setRelease 01h
		  vibrato 02Ah
		  inst 26
		mainLoopStart
		        noteL F5,32
		        waitL 4
		        noteL Cs5,8
		        waitL 4
		        noteL Cs5,44
		        waitL 4
		        noteL F5,44
		        waitL 4
		        noteL E5,32
		        waitL 4
		        noteL C5,8
		        waitL 4
		        noteL C5,230
		        waitL 10
		        noteL F5,32
		        waitL 4
		        noteL Cs5,8
		        waitL 4
		        noteL Cs5,44
		        waitL 4
		        noteL F5,44
		        waitL 4
		        noteL E5,44
		        waitL 4
		        noteL G5,230
		        waitL 10
		mainLoopEnd
Music_1_Channel_1:
		  inst 26
		  vol 0Ch
		  setRelease 01h
		  vibrato 04Ah
		  inst 26
		mainLoopStart
		        noteL Cs5,32
		        waitL 4
		        noteL Gs4,8
		        waitL 4
		        noteL Gs4,44
		        waitL 4
		        noteL Cs5,44
		        waitL 4
		        noteL C5,32
		        waitL 4
		        noteL G4,8
		        waitL 4
		        noteL G4,230
		        waitL 10
		        noteL Cs5,32
		        waitL 4
		        noteL Gs4,8
		        waitL 4
		        noteL Gs4,44
		        waitL 4
		        noteL Cs5,44
		        waitL 4
		        noteL C5,44
		        waitL 4
		        noteL E5,230
		        waitL 10
		mainLoopEnd
Music_1_Channel_2:
		  inst 6
		  vol 0Ch
		  setRelease 01h
		  vibrato 04Ah
		mainLoopStart
		        noteL Fs6,24
		        note  Fs5
		        note  Fs4
		        note  Fs5
		        note  Fs6
		        note  Fs5
		        note  Fs4
		        note  Fs5
		        note  Fs6
		        note  Fs5
		        note  Fs4
		        note  Fs5
		mainLoopEnd
Music_1_Channel_3:
		  stereo 040h
		  inst 26
		  vol 07h
		  setRelease 01h
		  vibrato 02Ah
		mainLoopStart
		        noteL F7,3
		        note  Cs7
		        note  F7
		        note  Cs7
		        note  F7
		        note  Cs7
		        note  F7
		        note  Cs7
		        note  F7
		        note  Cs7
		        note  F7
		        note  Cs7
		        note  F7
		        note  Cs7
		        note  F7
		        note  Cs7
		        note  F7
		        note  Cs7
		        note  F7
		        note  Cs7
		        note  F7
		        note  Cs7
		        note  F7
		        note  Cs7
		        note  F7
		        note  Cs7
		        note  F7
		        note  Cs7
		        note  F7
		        note  Cs7
		        note  F7
		        note  Cs7
		        note  F7
		        note  Cs7
		        note  F7
		        note  Cs7
		        note  F7
		        note  Cs7
		        note  F7
		        note  Cs7
		        note  F7
		        note  Cs7
		        note  F7
		        note  Cs7
		        note  F7
		        note  Cs7
		        note  F7
		        note  Cs7
		countedLoopStart 1
		        noteL E7,3
		        note  C7
		        note  E7
		        note  C7
		        note  E7
		        note  C7
		        note  E7
		        note  C7
		        note  E7
		        note  C7
		        note  E7
		        note  C7
		        note  E7
		        note  C7
		        note  E7
		        note  C7
		        note  E7
		        note  C7
		        note  E7
		        note  C7
		        note  E7
		        note  C7
		        note  E7
		        note  C7
		        note  E7
		        note  C7
		        note  E7
		        note  C7
		        note  E7
		        note  C7
		        note  E7
		        note  C7
		        note  E7
		        note  C7
		        note  E7
		        note  C7
		        note  E7
		        note  C7
		        note  E7
		        note  C7
		        note  E7
		        note  C7
		        note  E7
		        note  C7
		        note  E7
		        note  C7
		        note  E7
		        note  C7
		countedLoopEnd
		mainLoopEnd
Music_1_Channel_4:
		  shifting 020h
		  stereo 080h
		  inst 26
		  vol 07h
		  setRelease 01h
		  vibrato 02Ah
		mainLoopStart
		        noteL Cs7,4
		        note  Gs6
		        note  Cs7
		        note  Gs6
		        note  Cs7
		        note  Gs6
		        note  Cs7
		        note  Gs6
		        note  Cs7
		        note  Gs6
		        note  Cs7
		        note  Gs6
		        note  Cs7
		        note  Gs6
		        note  Cs7
		        note  Gs6
		        note  Cs7
		        note  Gs6
		        note  Cs7
		        note  Gs6
		        note  Cs7
		        note  Gs6
		        note  Cs7
		        note  Gs6
		        note  Cs7
		        note  Gs6
		        note  Cs7
		        note  Gs6
		        note  Cs7
		        note  Gs6
		        note  Cs7
		        note  Gs6
		        note  Cs7
		        note  Gs6
		        note  Cs7
		        note  Gs6
		countedLoopStart 1
		        noteL C7,4
		        note  G6
		        note  C7
		        note  G6
		        note  C7
		        note  G6
		        note  C7
		        note  G6
		        note  C7
		        note  G6
		        note  C7
		        note  G6
		        note  C7
		        note  G6
		        note  C7
		        note  G6
		        note  C7
		        note  G6
		        note  C7
		        note  G6
		        note  C7
		        note  G6
		        note  C7
		        note  G6
		        note  C7
		        note  G6
		        note  C7
		        note  G6
		        note  C7
		        note  G6
		        note  C7
		        note  G6
		        note  C7
		        note  G6
		        note  C7
		        note  G6
		countedLoopEnd
		mainLoopEnd
Music_1_Channel_5:
		mainLoopStart
		        sampleL 5,48
		        sampleL 5,96
		mainLoopEnd
Music_1_Channel_6:
		mainLoopStart
		  setRelease 01h
		  vibrato 04Ch
		  psgInst 00h
		        waitL    144
		        waitL    96
		  psgInst 07Ch
		        psgNoteL C4,48
		        psgNoteL E4,96
		        psgNoteL C4,48
		  psgInst 00h
		        waitL    144
		        waitL    96
		  psgInst 07Ch
		        psgNoteL E4,48
		        psgNoteL G4,96
		        psgNoteL E4,48
		mainLoopEnd
Music_1_Channel_7:
		mainLoopStart
		  setRelease 01h
		  vibrato 04Ch
		  psgInst 00h
		        waitL    144
		        waitL    96
		  psgInst 07Ch
		        psgNoteL G3,48
		        psgNoteL C4,96
		        psgNoteL G3,48
		  psgInst 00h
		        waitL    144
		        waitL    96
		  psgInst 07Ch
		        psgNoteL C4,48
		        psgNoteL E4,96
		        psgNoteL C4,48
		mainLoopEnd
Music_1_Channel_9:
		channel_end
