
; ASM FILE music27.asm :
; 0xCDDC..0xCEE2 : Music 27
Music_27:       db 0
		db 0
		db 0
		db 0B2h
		dw Music_27_Channel_0
		dw Music_27_Channel_1
		dw Music_27_Channel_2
		dw Music_27_Channel_3
		dw Music_27_Channel_4
		dw Music_27_Channel_9
		dw Music_27_Channel_9
		dw Music_27_Channel_9
		dw Music_27_Channel_9
		dw Music_27_Channel_9
Music_27_Channel_0:
		  inst 49
		  vol 0Ah
		  setRelease 01h
		  vibrato 02Ah
		mainLoopStart
		        noteL F6,27
		        noteL D6,9
		        noteL D6,36
		        note  F6
		        noteL E6,27
		        noteL C6,9
		        noteL C6,180
		        noteL G6,27
		        noteL D6,9
		        noteL D6,36
		        note  G6
		        note  F6
		        noteL A6,180
		        noteL As6,27
		        noteL D6,9
		        noteL D6,36
		        note  As6
		        note  A6
		        noteL F6,207
		        noteL D6,9
		        noteL D6,36
		        note  F6
		        note  Cs6
		        noteL E6,180
		mainLoopEnd
Music_27_Channel_1:
		  inst 49
		  vol 0Ah
		  setRelease 01h
		  vibrato 02Ah
		mainLoopStart
		        noteL D6,27
		        noteL A5,9
		        noteL A5,36
		        note  D6
		        noteL C6,27
		        noteL G5,9
		        noteL G5,180
		        noteL D6,27
		        noteL As5,9
		        noteL As5,36
		        note  D6
		        note  D6
		        noteL F6,207
		        noteL As5,9
		        noteL As5,36
		        note  F6
		        note  F6
		        noteL D6,207
		        noteL As5,9
		        noteL As5,36
		        note  D6
		        note  As5
		        noteL Cs6,180
		mainLoopEnd
Music_27_Channel_2:
		  inst 49
		  vol 0Ah
		  setRelease 01h
		  vibrato 02Ah
		mainLoopStart
		        noteL A5,27
		        noteL F5,9
		        noteL F5,36
		        note  A5
		        noteL G5,27
		        noteL E5,9
		        noteL E5,180
		        noteL As5,27
		        noteL G5,9
		        noteL G5,36
		        note  As5
		        note  A5
		        noteL D6,207
		        noteL F5,9
		        noteL F5,36
		        note  D6
		        note  D6
		        noteL A5,180
		        noteL As5,27
		        noteL F5,9
		        noteL F5,36
		        note  As5
		        note  G5
		        noteL As5,180
		mainLoopEnd
Music_27_Channel_3:
		  inst 49
		  vol 0Ah
		  setRelease 01h
		  vibrato 02Ah
		mainLoopStart
		        noteL D5,108
		        note  D5
		        noteL D5,72
		        waitL 36
		        noteL D5,108
		        noteL D5,72
		        waitL 36
		        noteL D5,108
		        noteL D5,72
		        waitL 36
		        noteL D5,108
		        noteL D5,72
		        waitL 36
		        noteL D5,108
		        noteL A4,216
		mainLoopEnd
Music_27_Channel_4:
		  inst 49
		  vol 0Ah
		  setRelease 01h
		  vibrato 02Ah
		mainLoopStart
		        waitL 108
		        waitL 72
		        noteL A4,36
		        noteL D4,108
		        wait
		        waitL 72
		        noteL A4,36
		        noteL D4,108
		        wait
		        waitL 72
		        noteL A4,36
		        noteL D4,108
		        wait
		        noteL A3,216
		mainLoopEnd
Music_27_Channel_9:
		channel_end
