
; ASM FILE music03.asm :
; 0xCEE2..0xD471 : Music 03
Music_3:        db 0
		db 0
		db 0
		db 0C6h
		dw Music_3_Channel_0
		dw Music_3_Channel_1
		dw Music_3_Channel_2
		dw Music_3_Channel_3
		dw Music_3_Channel_4
		dw Music_3_Channel_5
		dw Music_3_Channel_6
		dw Music_3_Channel_7
		dw Music_3_Channel_9
		dw Music_3_Channel_9
Music_3_Channel_0:
		mainLoopStart
		  inst 13
		  vol 0Bh
		  setRelease 01h
		  vibrato 02Ah
		        noteL As5,5
		        waitL 15
		        noteL Ds6,7
		        waitL 3
		        noteL Ds6,7
		        waitL 3
		        noteL Ds6,7
		        waitL 13
		        noteL As5,7
		        waitL 13
		        noteL Ds6,7
		        waitL 13
		        noteL As5,7
		        waitL 13
		        noteL F6,40
		        noteL Ds6,7
		        waitL 13
		        noteL As5,7
		        waitL 3
		        noteL Ds6,7
		        waitL 3
		        noteL As5,7
		        waitL 13
		        noteL Ds6,7
		        waitL 13
		        noteL As5,7
		        waitL 13
		        noteL Ds6,7
		        waitL 13
		        noteL F6,40
		        noteL E6,7
		        waitL 13
		        noteL C6,7
		        waitL 3
		        noteL C6,7
		        waitL 3
		        noteL C6,120
		  inst 16
		  vol 0Ch
		        noteL E6,7
		        waitL 13
		        noteL C6,7
		        waitL 3
		        noteL C6,7
		        waitL 3
		        noteL C6,7
		        waitL 13
		        noteL G5,7
		        waitL 13
		        noteL C6,80
		  inst 13
		  vol 0Ch
		        noteL As5,7
		        waitL 13
		        noteL Ds6,7
		        waitL 3
		        noteL Ds6,7
		        waitL 3
		        noteL Ds6,7
		        waitL 13
		        noteL As5,7
		        waitL 13
		        noteL Ds6,7
		        waitL 13
		        noteL As5,7
		        waitL 13
		        noteL F6,40
		        noteL Ds6,7
		        waitL 13
		        noteL As5,7
		        waitL 3
		        noteL Ds6,7
		        waitL 3
		        noteL As5,7
		        waitL 13
		        noteL Ds6,7
		        waitL 13
		        noteL As5,7
		        waitL 13
		        noteL Ds6,7
		        waitL 13
		        noteL F6,40
		        noteL E6,7
		        waitL 13
		        noteL C6,7
		        waitL 3
		        noteL C6,7
		        waitL 3
		        noteL C6,120
		        noteL A5,160
		        noteL E6,5
		        waitL 15
		        noteL B5,5
		        wait
		        note  B5
		        wait
		        note  B5
		        waitL 15
		        noteL Fs6,135
		        waitL 5
		        noteL E6,20
		        note  Fs6
		        noteL G6,30
		        noteL A6,10
		        noteL G6,20
		        note  Fs6
		        noteL E6,5
		        waitL 15
		        noteL B5,5
		        wait
		        note  B5
		        wait
		        noteL B5,200
		        noteL A5,40
		        note  B5
		        noteL C6,10
		        wait
		        noteL A5,5
		        wait
		        note  A5
		        wait
		        noteL A5,10
		        wait
		        noteL E6,180
		        noteL D6,40
		        note  E6
		        noteL Fs6,150
		        noteL F6,5
		        note  E6
		        noteL Ds6,80
		        noteL Cs6,40
		        note  Ds6
		        noteL E6,10
		        wait
		        noteL B5,8
		        waitL 2
		        noteL B5,8
		        waitL 2
		        noteL B5,120
		        noteL B5,160
		        noteL Cs6,40
		        noteL C6,80
		        noteL Cs6,40
		        noteL C6,160
		mainLoopEnd
Music_3_Channel_1:
		mainLoopStart
		  inst 13
		  vol 0Bh
		  setRelease 01h
		  vibrato 02Ah
		        noteL F5,5
		        waitL 15
		        noteL As5,7
		        waitL 3
		        noteL As5,7
		        waitL 3
		        noteL As5,7
		        waitL 13
		        noteL F5,7
		        waitL 13
		        noteL As5,7
		        waitL 13
		        noteL F5,7
		        waitL 13
		        noteL C6,40
		        noteL As5,7
		        waitL 13
		        noteL F5,7
		        waitL 3
		        noteL As5,7
		        waitL 3
		        noteL F5,7
		        waitL 13
		        noteL As5,7
		        waitL 13
		        noteL F5,7
		        waitL 13
		        noteL As5,7
		        waitL 13
		        noteL C6,40
		        noteL C6,7
		        waitL 13
		        noteL G5,7
		        waitL 3
		        noteL G5,7
		        waitL 3
		        noteL G5,120
		  inst 16
		  vol 0Ch
		        noteL C6,7
		        waitL 13
		        noteL G5,7
		        waitL 3
		        noteL G5,7
		        waitL 3
		        noteL G5,7
		        waitL 13
		        noteL E5,7
		        waitL 13
		        noteL G5,80
		  inst 13
		  vol 0Ch
		        noteL F5,7
		        waitL 13
		        noteL As5,7
		        waitL 3
		        noteL As5,7
		        waitL 3
		        noteL As5,7
		        waitL 13
		        noteL F5,7
		        waitL 13
		        noteL As5,7
		        waitL 13
		        noteL F5,7
		        waitL 13
		        noteL C6,40
		        noteL As5,7
		        waitL 13
		        noteL F5,7
		        waitL 3
		        noteL As5,7
		        waitL 3
		        noteL F5,7
		        waitL 13
		        noteL As5,7
		        waitL 13
		        noteL F5,7
		        waitL 13
		        noteL As5,7
		        waitL 13
		        noteL C6,40
		        noteL C6,7
		        waitL 13
		        noteL G5,7
		        waitL 3
		        noteL G5,7
		        waitL 3
		        noteL G5,120
		        noteL E5,160
		        noteL B5,5
		        waitL 15
		        noteL Fs5,5
		        wait
		        note  Fs5
		        wait
		        note  Fs5
		        waitL 15
		        noteL Cs6,135
		        waitL 5
		        noteL B5,20
		        note  Cs6
		        noteL D6,30
		        noteL E6,10
		        noteL D6,20
		        note  Cs6
		        noteL B5,5
		        waitL 15
		        noteL Fs5,5
		        wait
		        note  Fs5
		        wait
		        noteL Fs5,200
		        noteL E5,40
		        note  Fs5
		        noteL G5,10
		        wait
		        noteL E5,5
		        wait
		        note  E5
		        wait
		        noteL E5,10
		        wait
		        noteL C6,180
		        noteL B5,40
		        note  C6
		        noteL D6,150
		        noteL C6,5
		        note  B5
		        noteL As5,80
		        noteL Gs5,40
		        note  As5
		        waitL 78
		        noteL A6,5
		        waitL 17
		        noteL E6,3
		        waitL 6
		        noteL E6,3
		        waitL 7
		        noteL E6,198
		        noteL Fs6,163
		        noteL Fs6,160
		mainLoopEnd
Music_3_Channel_2:
		mainLoopStart
		  inst 26
		  vol 0Bh
		  setRelease 01h
		  vibrato 02Ah
		        noteL A4,5
		        noteL As4,150
		        noteL A4,5
		        noteL As4,140
		        noteL As4,6
		        noteL A4,7
		        note  Gs4
		        noteL G4,155
		        noteL Fs4,5
		        noteL G4,80
		        noteL Fs4,7
		        noteL G4,33
		        noteL Fs4,7
		        noteL G4,13
		        noteL G4,6
		        noteL Gs4,7
		        note  A4
		        noteL As4,155
		        noteL A4,5
		        noteL As4,140
		        noteL As4,6
		        noteL A4,7
		        note  Gs4
		        noteL G4,140
		        noteL G4,6
		        noteL Fs4,7
		        note  F4
		        noteL E4,160
		        noteL F4,3
		        noteL Fs4,157
		        noteL F4,3
		        noteL Fs4,77
		        noteL G4,80
		        noteL F4,3
		        noteL Fs4,157
		        noteL F4,3
		        noteL Fs4,77
		        noteL F4,3
		        noteL Fs4,37
		        noteL F4,3
		        noteL Fs4,37
		        noteL Fs4,3
		        noteL G4,157
		        noteL Fs4,3
		        noteL G4,157
		        noteL F4,3
		        noteL Fs4,148
		        noteL G4,3
		        note  Gs4
		        note  A4
		        noteL As4,160
		        note  B4
		        noteL B4,150
		        noteL As4,5
		        note  A4
		        noteL Gs4,160
		        note  Gs4
		mainLoopEnd
Music_3_Channel_3:
		mainLoopStart
		  inst 26
		  vol 0Bh
		  setRelease 01h
		  vibrato 02Ah
		        noteL D4,5
		        noteL Ds4,150
		        noteL D4,5
		        noteL Ds4,140
		        noteL Ds4,6
		        noteL D4,7
		        note  Cs4
		        noteL C4,155
		        noteL B3,5
		        noteL C4,80
		        noteL B3,7
		        noteL C4,33
		        noteL B3,7
		        noteL C4,13
		        noteL C4,6
		        noteL Cs4,7
		        note  D4
		        noteL Ds4,155
		        noteL D4,5
		        noteL Ds4,140
		        noteL Ds4,6
		        noteL D4,7
		        note  Cs4
		        noteL C4,140
		        noteL C4,6
		        noteL B3,7
		        note  As3
		        noteL A3,160
		        noteL As3,3
		        noteL B3,157
		        noteL As3,3
		        noteL B3,77
		        noteL C4,80
		        noteL As3,3
		        noteL B3,157
		        noteL As3,3
		        noteL B3,77
		        noteL As3,3
		        noteL B3,37
		        noteL As3,3
		        noteL B3,37
		        noteL B3,3
		        noteL C4,157
		        noteL B3,3
		        noteL C4,157
		        noteL As3,3
		        noteL B3,148
		        noteL C4,3
		        note  Cs4
		        note  D4
		        noteL Ds4,160
		        note  E4
		        noteL E4,150
		        noteL Ds4,5
		        note  D4
		        noteL Cs4,160
		        note  Cs4
		mainLoopEnd
Music_3_Channel_4:
		mainLoopStart
		  inst 26
		  vol 0Bh
		  setRelease 01h
		  vibrato 02Ah
		        noteL G3,5
		        noteL Gs3,150
		        noteL G3,5
		        noteL Gs3,140
		        noteL Gs3,6
		        noteL G3,7
		        note  Fs3
		        noteL F3,155
		        noteL E3,5
		        noteL F3,80
		        noteL E3,7
		        noteL F3,33
		        noteL E3,7
		        noteL F3,13
		        noteL F3,6
		        noteL Fs3,7
		        note  G3
		        noteL Gs3,155
		        noteL G3,5
		        noteL Gs3,140
		        noteL Gs3,6
		        noteL G3,7
		        note  Fs3
		        noteL F3,140
		        noteL F3,6
		        noteL E3,7
		        note  Ds3
		        noteL D3,160
		        noteL Ds3,3
		        noteL E3,157
		        noteL Ds3,3
		        noteL E3,157
		        noteL Ds3,3
		        noteL E3,157
		        noteL Ds3,3
		        noteL E3,77
		        noteL Ds3,3
		        noteL E3,37
		        noteL Ds3,3
		        noteL E3,37
		        noteL E3,3
		        noteL F3,157
		        noteL E3,3
		        noteL F3,157
		        noteL Ds3,3
		        noteL E3,148
		        noteL F3,3
		        note  Fs3
		        note  G3
		        noteL Gs3,160
		        note  A3
		        noteL A3,150
		        noteL Gs3,5
		        note  G3
		        noteL Fs3,160
		        note  Fs3
		mainLoopEnd
Music_3_Channel_5:
		mainLoopStart
		countedLoopStart 2
		        sampleL 1,8
		        waitL 12
		        sampleL 1,10
		        sample  1
		        sample  1
		        wait
		        sample  1
		        wait
		        sample  1
		        wait
		        sample  1
		        wait
		        sampleL 1,3
		        sampleL 2,2
		        sample  2
		        sampleL 2,3
		        sample  2
		        sampleL 2,2
		        sample  2
		        sampleL 2,3
		        sample  2
		        sampleL 2,2
		        sample  2
		        sampleL 2,3
		        sample  2
		        sampleL 2,2
		        sample  2
		        sampleL 2,3
		        sampleL 1,10
		        wait
		        sample  1
		        sample  1
		        sample  1
		        wait
		        sample  1
		        wait
		        sample  1
		        sample  1
		        sample  1
		        wait
		        sampleL 1,3
		        sampleL 2,2
		        sample  2
		        sampleL 2,3
		        sample  2
		        sampleL 2,2
		        sample  2
		        sampleL 2,3
		        sample  2
		        sampleL 2,2
		        sample  2
		        sampleL 2,3
		        sample  2
		        sampleL 2,2
		        sample  2
		        sampleL 2,3
		countedLoopEnd
		        sampleL 1,10
		        wait
		        sample  1
		        sample  1
		        sample  1
		        wait
		        sample  1
		        wait
		        sample  1
		        sample  1
		        sample  1
		        wait
		        sampleL 1,3
		        sampleL 2,2
		        sample  2
		        sampleL 2,3
		        sample  2
		        sampleL 2,2
		        sample  2
		        sampleL 2,3
		        sample  2
		        sampleL 2,2
		        sample  2
		        sampleL 2,3
		        sample  2
		        sampleL 2,2
		        sample  2
		        sampleL 2,3
		        sample  2
		        sampleL 2,2
		        sample  2
		        sampleL 2,3
		        sample  2
		        sampleL 2,2
		        sample  2
		        sampleL 2,3
		        sample  2
		        sampleL 2,2
		        sample  2
		        sampleL 2,3
		        sample  2
		        sampleL 2,2
		        sample  2
		        sampleL 2,3
		        sample  2
		        sampleL 2,2
		        sample  2
		        sampleL 2,3
		        sample  2
		        sampleL 2,2
		        sample  2
		        sampleL 2,3
		        sample  2
		        sampleL 2,2
		        sample  2
		        sampleL 2,3
		        sample  2
		        sampleL 2,2
		        sample  2
		        sampleL 2,3
		        sample  2
		        sampleL 2,2
		        sample  2
		        sampleL 2,3
		        sample  2
		        sampleL 2,2
		        sample  2
		        sampleL 2,3
		        sample  2
		        sampleL 2,2
		        sample  2
		        sampleL 2,3
		        sample  2
		        sampleL 2,2
		        sample  2
		        sampleL 2,3
		        sample  2
		        sampleL 2,2
		        sample  2
		        sampleL 2,3
		        sample  2
		        sampleL 2,2
		        sample  2
		        sampleL 2,3
		        sample  2
		        sampleL 2,2
		        sample  2
		        sampleL 2,3
		        sample  2
		        sampleL 2,2
		        sample  2
		        sampleL 2,3
		countedLoopStart 5
		        sampleL 1,10
		        wait
		        sample  1
		        sample  1
		        sample  1
		        wait
		        sample  1
		        wait
		        sample  1
		        wait
		        sample  1
		        wait
		        sampleL 1,3
		        sampleL 2,2
		        sample  2
		        sampleL 2,3
		        sample  2
		        sampleL 2,2
		        sample  2
		        sampleL 2,3
		        sample  2
		        sampleL 2,2
		        sample  2
		        sampleL 2,3
		        sample  2
		        sampleL 2,2
		        sample  2
		        sampleL 2,3
		        sampleL 1,10
		        wait
		        sample  1
		        sample  1
		        sample  1
		        wait
		        sample  1
		        wait
		        sample  1
		        sample  1
		        sample  1
		        wait
		        sampleL 1,3
		        sampleL 2,2
		        sample  2
		        sampleL 2,3
		        sample  2
		        sampleL 2,2
		        sample  2
		        sampleL 2,3
		        sample  2
		        sampleL 2,2
		        sample  2
		        sampleL 2,3
		        sample  2
		        sampleL 2,2
		        sample  2
		        sampleL 2,3
		countedLoopEnd
		mainLoopEnd
Music_3_Channel_6:
		mainLoopStart
		  setRelease 01h
		  vibrato 04Ch
		  psgInst 00h
		        waitL    160
		        wait
		        waitL    80
		  psgInst 06Dh
		        psgNoteL E4,7
		        waitL    13
		        psgNoteL C4,10
		        psgNote  C4
		        psgNoteL C4,200
		        waitL    160
		        wait
		        waitL    80
		        psgNoteL E4,7
		        waitL    13
		        psgNoteL C4,10
		        psgNote  C4
		        psgNoteL C4,40
		        psgNoteL E4,160
		        psgNoteL Fs3,88
		        waitL    12
		        psgNoteL B2,10
		        psgNote  B2
		        psgNoteL B2,8
		        waitL    12
		        psgNoteL Fs3,100
		        psgNoteL G3,80
		        psgNoteL Fs3,168
		        waitL    12
		        psgNoteL B2,10
		        psgNote  B2
		        psgNoteL B2,8
		        waitL    12
		        psgNoteL Fs3,100
		        psgNoteL G3,168
		        waitL    12
		        psgNoteL E3,10
		        psgNote  E3
		        psgNoteL E3,8
		        waitL    12
		        psgNoteL A3,100
		        psgNoteL Fs3,160
		        psgNote  Ds3
		        psgNote  E3
		  psgInst 06Eh
		        psgNoteL D4,8
		        waitL    12
		        psgNoteL A3,10
		        psgNote  A3
		        psgNoteL A3,120
		  psgInst 06Dh
		        psgNoteL As3,160
		        psgNote  As3
		mainLoopEnd
Music_3_Channel_7:
		mainLoopStart
		  setRelease 01h
		  vibrato 04Ch
		  psgInst 00h
		        waitL    160
		        wait
		        waitL    80
		  psgInst 06Dh
		        psgNoteL C4,7
		        waitL    13
		        psgNoteL G3,10
		        psgNote  G3
		        psgNoteL G3,200
		        waitL    160
		        wait
		        waitL    80
		        psgNoteL C4,7
		        waitL    13
		        psgNoteL G3,10
		        psgNote  G3
		        psgNoteL G3,40
		        psgNoteL A3,160
		        psgNoteL B2,88
		        waitL    12
		        psgNoteL Fs2,10
		        psgNote  Fs2
		        psgNoteL Fs2,8
		        waitL    12
		        psgNoteL B2,100
		        psgNoteL C3,80
		        psgNoteL B2,168
		        waitL    12
		        psgNoteL Fs2,10
		        psgNote  Fs2
		        psgNoteL Fs2,8
		        waitL    12
		        psgNoteL B2,100
		        psgNoteL C3,168
		        psgNoteL C3,40
		        waitL    12
		        psgNoteL E3,100
		        psgNoteL B2,160
		        psgNote  As2
		        psgNote  B2
		        wait
		        psgNote  Fs3
		        psgNote  Fs3
		mainLoopEnd
Music_3_Channel_9:
		channel_end
