
; ASM FILE music20.asm :
; 0xE033..0xE2AB : Music 20
Music_20:       db 0
		db 0
		db 0
		db 0BFh
		dw byte_E04B
		dw Music_20_Channel_1
		dw Music_20_Channel_2
		dw Music_20_Channel_3
		dw Music_20_Channel_4
		dw Music_20_Channel_5
		dw Music_20_Channel_6
		dw Music_20_Channel_7
		dw Music_20_Channel_9
		dw Music_20_Channel_9
byte_E04B:      mainLoopStart
		  inst 26
		  vol 0Ah
		  setRelease 01h
		  vibrato 02Ch
		repeatStart
		        noteL D7,36
		        noteL B6,12
		        noteL B6,48
		        note  D7
		        noteL Cs7,36
		        noteL Gs6,12
		        noteL Gs6,192
		        noteL D7,36
		        noteL B6,12
		        noteL B6,48
		        note  D7
		        note  Cs7
		        noteL F7,192
		mainLoopEnd
Music_20_Channel_1:
		mainLoopStart
		  inst 26
		  vol 0Bh
		  setRelease 01h
		  vibrato 02Ch
		        noteL Fs6,36
		        noteL D6,12
		        noteL D6,48
		        note  Fs6
		        noteL F6,36
		        noteL Cs6,12
		        noteL Cs6,192
		        noteL Fs6,36
		        noteL D6,12
		        noteL D6,48
		        note  Fs6
		        note  F6
		        noteL Gs6,192
		mainLoopEnd
Music_20_Channel_2:
		mainLoopStart
		  shifting 020h
		  stereo 080h
		        waitL 2
		  inst 26
		  vol 0Bh
		  setRelease 01h
		  vibrato 02Ch
		  shifting 020h
		        noteL D7,36
		        noteL B6,12
		        noteL B6,48
		        note  D7
		        noteL Cs7,36
		        noteL Gs6,12
		        noteL Gs6,46
		  vibrato 0C0h
		  inst 26
		  vol 0Bh
		  setRelease 01h
		  vibrato 02Ch
		        noteL F5,48
		        noteL Gs5,72
		        noteL F5,24
		  shifting 020h
		        waitL 2
		  stereo 080h
		  vol 0Bh
		        noteL D7,36
		        noteL B6,12
		        noteL B6,48
		        note  D7
		        note  Cs7
		        noteL F7,46
		  stereo 0C0h
		  shifting 00h
		  vol 0Bh
		        noteL Cs5,48
		        noteL F5,72
		        noteL Cs5,24
		mainLoopEnd
Music_20_Channel_3:
		mainLoopStart
		        waitL 2
		  stereo 040h
		  shifting 020h
		  inst 26
		  vol 0Bh
		  setRelease 01h
		  vibrato 02Ch
		        noteL Fs6,36
		        noteL D6,12
		        noteL D6,48
		        note  Fs6
		        noteL F6,36
		        noteL Cs6,12
		        noteL Cs6,46
		  vol 0Bh
		  stereo 0C0h
		  shifting 00h
		  inst 26
		  vol 0Bh
		  setRelease 01h
		  vibrato 02Ch
		        noteL Cs5,48
		        noteL F5,72
		        noteL Cs5,24
		        waitL 2
		  vol 0Bh
		  stereo 040h
		  shifting 020h
		        noteL Fs6,36
		        noteL D6,12
		        noteL D6,48
		        note  Fs6
		        note  F6
		        noteL Gs6,46
		  vol 0Bh
		  stereo 0C0h
		  shifting 00h
		        noteL Gs4,48
		        noteL Cs5,72
		        noteL Gs4,24
		mainLoopEnd
Music_20_Channel_4:
		mainLoopStart
		  inst 30
		  vol 0Bh
		  setRelease 01h
		  vibrato 02Ch
		        noteL B2,144
		  sustain
		        note  B2
		  setRelease 01h
		  vibrato 020h
		        noteL B2,96
		mainLoopEnd
Music_20_Channel_5:
		channel_end
Music_20_Channel_6:
		mainLoopStart
		  psgInst 06Bh
		  setRelease 00h
		  vibrato 04Ch
		        psgNoteL D3,6
		        psgNote  A2
		        psgNote  D3
		        psgNote  A2
		        psgNote  D3
		        psgNote  A2
		        psgNote  D3
		        psgNote  A2
		        psgNote  D3
		        psgNote  A2
		        psgNote  D3
		        psgNote  A2
		        psgNote  D3
		        psgNote  A2
		        psgNote  D3
		        psgNote  A2
		        psgNote  D3
		        psgNote  A2
		        psgNote  D3
		        psgNote  A2
		        psgNote  D3
		        psgNote  A2
		        psgNote  D3
		        psgNote  A2
		        psgNote  Cs3
		        psgNote  Gs2
		        psgNote  Cs3
		        psgNote  Gs2
		        psgNote  Cs3
		        psgNote  Gs2
		        psgNote  Cs3
		        psgNote  Gs2
		        psgNote  Cs3
		        psgNote  Gs2
		        psgNote  Cs3
		        psgNote  Gs2
		        psgNote  Cs3
		        psgNote  Gs2
		        psgNote  Cs3
		        psgNote  Gs2
		        psgNote  Cs3
		        psgNote  Gs2
		        psgNote  Cs3
		        psgNote  Gs2
		        psgNote  Cs3
		        psgNote  Gs2
		        psgNote  Cs3
		        psgNote  Gs2
		        psgNote  Cs3
		        psgNote  Gs2
		        psgNote  Cs3
		        psgNote  Gs2
		        psgNote  Cs3
		        psgNote  Gs2
		        psgNote  Cs3
		        psgNote  Gs2
		        psgNote  Cs3
		        psgNote  Gs2
		        psgNote  Cs3
		        psgNote  Gs2
		        psgNote  Cs3
		        psgNote  Gs2
		        psgNote  Cs3
		        psgNote  Gs2
		        psgNote  D3
		        psgNote  A2
		        psgNote  D3
		        psgNote  A2
		        psgNote  D3
		        psgNote  A2
		        psgNote  D3
		        psgNote  A2
		        psgNote  D3
		        psgNote  A2
		        psgNote  D3
		        psgNote  A2
		        psgNote  D3
		        psgNote  A2
		        psgNote  D3
		        psgNote  A2
		        psgNote  D3
		        psgNote  A2
		        psgNote  D3
		        psgNote  A2
		        psgNote  D3
		        psgNote  A2
		        psgNote  D3
		        psgNote  A2
		        psgNote  Cs3
		        psgNote  Gs2
		        psgNote  Cs3
		        psgNote  Gs2
		        psgNote  Cs3
		        psgNote  Gs2
		        psgNote  Cs3
		        psgNote  Gs2
		        psgNote  Cs3
		        psgNote  Gs2
		        psgNote  Cs3
		        psgNote  Gs2
		        psgNote  Cs3
		        psgNote  Gs2
		        psgNote  Cs3
		        psgNote  Gs2
		        psgNote  Cs3
		        psgNote  Gs2
		        psgNote  Cs3
		        psgNote  Gs2
		        psgNote  Cs3
		        psgNote  Gs2
		        psgNote  Cs3
		        psgNote  Gs2
		        psgNote  Cs3
		        psgNote  Gs2
		        psgNote  Cs3
		        psgNote  Gs2
		        psgNote  Cs3
		        psgNote  Gs2
		        psgNote  Cs3
		        psgNote  Gs2
		        psgNote  Cs3
		        psgNote  Gs2
		        psgNote  Cs3
		        psgNote  Gs2
		        psgNote  Cs3
		        psgNote  Gs2
		        psgNote  Cs3
		        psgNote  Gs2
		mainLoopEnd
Music_20_Channel_7:
		  shifting 020h
		mainLoopStart
		  psgInst 06Bh
		  setRelease 00h
		  vibrato 04Ch
		        psgNoteL A2,4
		        psgNote  Fs2
		        psgNote  A2
		        psgNote  Fs2
		        psgNote  A2
		        psgNote  Fs2
		        psgNote  A2
		        psgNote  Fs2
		        psgNote  A2
		        psgNote  Fs2
		        psgNote  A2
		        psgNote  Fs2
		        psgNote  A2
		        psgNote  Fs2
		        psgNote  A2
		        psgNote  Fs2
		        psgNote  A2
		        psgNote  Fs2
		        psgNote  A2
		        psgNote  Fs2
		        psgNote  A2
		        psgNote  Fs2
		        psgNote  A2
		        psgNote  Fs2
		        psgNote  A2
		        psgNote  Fs2
		        psgNote  A2
		        psgNote  Fs2
		        psgNote  A2
		        psgNote  Fs2
		        psgNote  A2
		        psgNote  Fs2
		        psgNote  A2
		        psgNote  Fs2
		        psgNote  A2
		        psgNote  Fs2
		        psgNote  Gs2
		        psgNote  F2
		        psgNote  Gs2
		        psgNote  F2
		        psgNote  Gs2
		        psgNote  F2
		        psgNote  Gs2
		        psgNote  F2
		        psgNote  Gs2
		        psgNote  F2
		        psgNote  Gs2
		        psgNote  F2
		        psgNote  Gs2
		        psgNote  F2
		        psgNote  Gs2
		        psgNote  F2
		        psgNote  Gs2
		        psgNote  F2
		        psgNote  Gs2
		        psgNote  F2
		        psgNote  Gs2
		        psgNote  F2
		        psgNote  Gs2
		        psgNote  F2
		        psgNote  Gs2
		        psgNote  F2
		        psgNote  Gs2
		        psgNote  F2
		        psgNote  Gs2
		        psgNote  F2
		        psgNote  Gs2
		        psgNote  F2
		        psgNote  Gs2
		        psgNote  F2
		        psgNote  Gs2
		        psgNote  F2
		        psgNote  Gs2
		        psgNote  F2
		        psgNote  Gs2
		        psgNote  F2
		        psgNote  Gs2
		        psgNote  F2
		        psgNote  Gs2
		        psgNote  F2
		        psgNote  Gs2
		        psgNote  F2
		        psgNote  Gs2
		        psgNote  F2
		        psgNote  Gs2
		        psgNote  F2
		        psgNote  Gs2
		        psgNote  F2
		        psgNote  Gs2
		        psgNote  F2
		        psgNote  Gs2
		        psgNote  F2
		        psgNote  Gs2
		        psgNote  F2
		        psgNote  Gs2
		        psgNote  F2
		        psgNote  A2
		        psgNote  Fs2
		        psgNote  A2
		        psgNote  Fs2
		        psgNote  A2
		        psgNote  Fs2
		        psgNote  A2
		        psgNote  Fs2
		        psgNote  A2
		        psgNote  Fs2
		        psgNote  A2
		        psgNote  Fs2
		        psgNote  A2
		        psgNote  Fs2
		        psgNote  A2
		        psgNote  Fs2
		        psgNote  A2
		        psgNote  Fs2
		        psgNote  A2
		        psgNote  Fs2
		        psgNote  A2
		        psgNote  Fs2
		        psgNote  A2
		        psgNote  Fs2
		        psgNote  A2
		        psgNote  Fs2
		        psgNote  A2
		        psgNote  Fs2
		        psgNote  A2
		        psgNote  Fs2
		        psgNote  A2
		        psgNote  Fs2
		        psgNote  A2
		        psgNote  Fs2
		        psgNote  A2
		        psgNote  Fs2
		        psgNote  Gs2
		        psgNote  F2
		        psgNote  Gs2
		        psgNote  F2
		        psgNote  Gs2
		        psgNote  F2
		        psgNote  Gs2
		        psgNote  F2
		        psgNote  Gs2
		        psgNote  F2
		        psgNote  Gs2
		        psgNote  F2
		        psgNote  Gs2
		        psgNote  F2
		        psgNote  Gs2
		        psgNote  F2
		        psgNote  Gs2
		        psgNote  F2
		        psgNote  Gs2
		        psgNote  F2
		        psgNote  Gs2
		        psgNote  F2
		        psgNote  Gs2
		        psgNote  F2
		        psgNote  Gs2
		        psgNote  F2
		        psgNote  Gs2
		        psgNote  F2
		        psgNote  Gs2
		        psgNote  F2
		        psgNote  Gs2
		        psgNote  F2
		        psgNote  Gs2
		        psgNote  F2
		        psgNote  Gs2
		        psgNote  F2
		        psgNote  Gs2
		        psgNoteL F2,0
		        psgNoteL Gs2,4
		        psgNote  F2
		        psgNote  Gs2
		        psgNote  F2
		        psgNote  Gs2
		        psgNote  F2
		        psgNote  Gs2
		        psgNote  F2
		        psgNote  Gs2
		        psgNote  F2
		        psgNote  Gs2
		        psgNote  F2
		        psgNote  Gs2
		        psgNote  F2
		        psgNote  Gs2
		        psgNote  F2
		        psgNote  Gs2
		        psgNote  F2
		        psgNote  Gs2
		        psgNote  F2
		        psgNote  Gs2
		        psgNote  F2
		        psgNote  Gs2
		mainLoopEnd
Music_20_Channel_9:
		channel_end
