
; ASM FILE music31.asm :
; 0xEB2A..0xEE4C : Music 31
Music_31:       db 0
		db 0
		db 0
		db 0BAh
		dw Music_31_Channel_0
		dw Music_31_Channel_1
		dw Music_31_Channel_2
		dw Music_31_Channel_3
		dw Music_31_Channel_4
		dw Music_31_Channel_5
		dw Music_31_Channel_6
		dw Music_31_Channel_7
		dw Music_31_Channel_9
		dw Music_31_Channel_9
Music_31_Channel_0:
		  inst 44
		  vol 0Bh
		  setRelease 00h
		  vibrato 02Ah
		        waitL 24
		        noteL G7,2
		        noteL A7,1
		        noteL As7,2
		        noteL C8,1
		        noteL Cs8,2
		        noteL Ds8,1
		        noteL E8,2
		        noteL Fs8,1
		        waitL 12
		        note  C2
		        note  C2
		        note  C2
		        noteL G7,2
		        noteL A7,1
		        noteL As7,2
		        noteL C8,1
		        noteL Cs8,2
		        noteL Ds8,1
		        noteL E8,2
		        noteL Fs8,1
		        noteL C2,12
		        noteL G7,2
		        noteL A7,1
		        noteL As7,2
		        noteL C8,1
		        noteL Cs8,2
		        noteL Ds8,1
		        noteL E8,2
		        noteL Fs8,1
		        noteL C2,12
		        note  C2
		        noteL G7,2
		        noteL A7,1
		        noteL As7,2
		        noteL C8,1
		        noteL Cs8,2
		        noteL Ds8,1
		        noteL E8,2
		        noteL Fs8,1
		        noteL G7,2
		        noteL A7,1
		        noteL As7,2
		        noteL C8,1
		        noteL Cs8,2
		        noteL Ds8,1
		        noteL E8,2
		        noteL Fs8,1
		        noteL C2,12
		        note  C2
		        noteL G7,2
		        noteL A7,1
		        noteL As7,2
		        noteL C8,1
		        noteL Cs8,2
		        noteL Ds8,1
		        noteL E8,2
		        noteL Fs8,1
		        noteL C2,12
		        note  C2
		        noteL G7,2
		        noteL A7,1
		        noteL As7,2
		        noteL C8,1
		        noteL Cs8,2
		        noteL Ds8,1
		        noteL E8,2
		        noteL Fs8,1
		        noteL C2,12
		        note  C2
		        note  C2
		        noteL G7,2
		        noteL A7,1
		        noteL As7,2
		        noteL C8,1
		        noteL Cs8,2
		        noteL Ds8,1
		        noteL E8,2
		        noteL Fs8,1
		        noteL C2,12
		        note  C2
		        note  C2
		        noteL G7,2
		        noteL A7,1
		        noteL As7,2
		        noteL C8,1
		        noteL Cs8,2
		        noteL Ds8,1
		        noteL E8,2
		        noteL Fs8,1
		        noteL C2,12
		        note  C2
		        note  C2
		        noteL G7,2
		        noteL A7,1
		        noteL As7,2
		        noteL C8,1
		        noteL Cs8,2
		        noteL Ds8,1
		        noteL E8,2
		        noteL Fs8,1
		        noteL C2,12
		        waitL 84
		channel_end
Music_31_Channel_1:
		  inst 41
		  vol 0Ch
		  setRelease 01h
		  vibrato 02Ch
		        noteL Ds4,11
		        noteL F4,10
		        noteL Fs4,11
		        note  F4
		        noteL Fs4,10
		        noteL Gs4,11
		        note  A4
		        noteL Gs4,10
		        noteL B4,11
		        note  Ds4
		        noteL F4,10
		        noteL Fs4,11
		        note  F4
		        noteL Fs4,10
		        noteL Gs4,11
		        note  A4
		        noteL Gs4,10
		        noteL B4,11
		        note  Fs4
		        noteL Gs4,10
		        noteL A4,11
		        note  Gs4
		        noteL A4,10
		        noteL B4,11
		        note  C5
		        noteL B4,10
		        noteL D5,11
		        note  Fs4
		        noteL Gs4,10
		        noteL A4,11
		        note  Gs4
		        noteL A4,10
		        noteL B4,11
		        note  C5
		        noteL B4,10
		        noteL D5,11
		        noteL Ds5,96
		channel_end
Music_31_Channel_2:
		  inst 41
		  vol 0Ch
		  setRelease 01h
		  vibrato 02Ch
		        noteL B3,11
		        noteL Cs4,10
		        noteL D4,11
		        note  Cs4
		        noteL D4,10
		        noteL E4,11
		        note  F4
		        noteL E4,10
		        noteL G4,11
		        note  B3
		        noteL Cs4,10
		        noteL D4,11
		        note  Cs4
		        noteL D4,10
		        noteL E4,11
		        note  F4
		        noteL E4,10
		        noteL G4,11
		        note  D4
		        noteL E4,10
		        noteL F4,11
		        note  E4
		        noteL F4,10
		        noteL G4,11
		        note  Gs4
		        noteL G4,10
		        noteL As4,11
		        note  D4
		        noteL E4,10
		        noteL F4,11
		        note  E4
		        noteL F4,10
		        noteL G4,11
		        note  Gs4
		        noteL G4,10
		        noteL As4,11
		        noteL B4,96
		channel_end
Music_31_Channel_3:
		  inst 41
		  vol 0Ch
		  setRelease 01h
		  vibrato 02Ch
		        noteL F3,11
		        noteL G3,10
		        noteL Gs3,11
		        note  G3
		        noteL Gs3,10
		        noteL As3,11
		        note  B3
		        noteL As3,10
		        noteL Cs4,11
		        note  F3
		        noteL G3,10
		        noteL Gs3,11
		        note  G3
		        noteL Gs3,10
		        noteL As3,11
		        note  B3
		        noteL As3,10
		        noteL Cs4,11
		        note  Gs3
		        noteL As3,10
		        noteL B3,11
		        note  As3
		        noteL B3,10
		        noteL Cs4,11
		        note  D4
		        noteL Cs4,10
		        noteL E4,11
		        note  Gs3
		        noteL As3,10
		        noteL B3,11
		        note  As3
		        noteL B3,10
		        noteL Cs4,11
		        note  D4
		        noteL Cs4,10
		        noteL E4,11
		        noteL F4,96
		channel_end
Music_31_Channel_4:
		  inst 28
		  vol 0Dh
		  setRelease 01h
		  vibrato 02Ch
		        noteL E3,192
		        note  Cs3
		  vol 0Bh
		        noteL As3,96
Music_31_Channel_5:
		channel_end
Music_31_Channel_6:
		  psgInst 06Bh
		  setRelease 00h
		  vibrato 04Ch
		        psgNoteL G4,3
		        psgNote  E4
		        psgNote  G4
		        psgNote  E4
		        psgNote  A4
		        psgNote  Fs4
		        psgNote  A4
		        psgNote  Fs4
		        psgNote  A4
		        psgNote  Fs4
		        psgNote  A4
		        psgNote  Fs4
		        psgNote  A4
		        psgNote  Fs4
		        psgNote  A4
		        psgNote  Fs4
		        psgNote  G4
		        psgNote  E4
		        psgNote  G4
		        psgNote  E4
		        psgNote  A4
		        psgNote  Fs4
		        psgNote  A4
		        psgNote  Fs4
		        psgNote  A4
		        psgNote  Fs4
		        psgNote  A4
		        psgNote  Fs4
		        psgNote  A4
		        psgNote  Fs4
		        psgNote  A4
		        psgNote  Fs4
		        psgNote  G4
		        psgNote  E4
		        psgNote  G4
		        psgNote  E4
		        psgNote  A4
		        psgNote  Fs4
		        psgNote  A4
		        psgNote  Fs4
		        psgNote  A4
		        psgNote  Fs4
		        psgNote  A4
		        psgNote  Fs4
		        psgNote  A4
		        psgNote  Fs4
		        psgNote  A4
		        psgNote  Fs4
		        psgNote  G4
		        psgNote  E4
		        psgNote  G4
		        psgNote  E4
		        psgNote  A4
		        psgNote  Fs4
		        psgNote  A4
		        psgNote  Fs4
		        psgNote  A4
		        psgNote  Fs4
		        psgNote  A4
		        psgNote  Fs4
		        psgNote  A4
		        psgNote  Fs4
		        psgNote  A4
		        psgNote  Fs4
		        psgNote  As4
		        psgNote  G4
		        psgNote  As4
		        psgNote  G4
		        psgNote  C5
		        psgNote  A4
		        psgNote  C5
		        psgNote  A4
		        psgNote  C5
		        psgNote  A4
		        psgNote  C5
		        psgNote  A4
		        psgNote  C5
		        psgNote  A4
		        psgNote  C5
		        psgNote  A4
		        psgNote  As4
		        psgNote  G4
		        psgNote  As4
		        psgNote  G4
		        psgNote  C5
		        psgNote  A4
		        psgNote  C5
		        psgNote  A4
		        psgNote  C5
		        psgNote  A4
		        psgNote  C5
		        psgNote  A4
		        psgNote  C5
		        psgNote  A4
		        psgNote  C5
		        psgNote  A4
		        psgNote  As4
		        psgNote  G4
		        psgNote  As4
		        psgNote  G4
		        psgNote  C5
		        psgNote  A4
		        psgNote  C5
		        psgNote  A4
		        psgNote  C5
		        psgNote  A4
		        psgNote  C5
		        psgNote  A4
		        psgNote  C5
		        psgNote  A4
		        psgNote  C5
		        psgNote  A4
		        psgNote  As4
		        psgNote  G4
		        psgNote  As4
		        psgNote  G4
		        psgNote  C5
		        psgNote  A4
		        psgNote  C5
		        psgNote  A4
		        psgNote  C5
		        psgNote  A4
		        psgNote  C5
		        psgNote  A4
		        psgNote  C5
		        psgNote  A4
		        psgNote  C5
		        psgNote  A4
		        psgNote  Cs5
		        psgNote  Ds5
		        psgNote  Cs5
		        psgNote  Ds5
		        psgNote  Cs5
		        psgNote  Ds5
		        psgNote  Cs5
		        psgNote  Ds5
		        psgNote  Cs5
		        psgNote  Ds5
		        psgNote  Cs5
		        psgNote  Ds5
		        psgNote  Cs5
		        psgNote  Ds5
		        psgNote  Cs5
		        psgNote  Ds5
		        psgNote  Cs5
		        psgNote  Ds5
		        psgNote  Cs5
		        psgNote  Ds5
		        psgNote  Cs5
		        psgNote  Ds5
		        psgNote  Cs5
		        psgNote  Ds5
		        psgNote  Cs5
		        psgNote  Ds5
		        psgNote  Cs5
		        psgNote  Ds5
		        psgNote  Cs5
		        psgNote  Ds5
		        psgNote  Cs5
		        psgNote  Ds5
		channel_end
Music_31_Channel_7:
		  psgInst 06Bh
		  setRelease 00h
		  vibrato 04Ch
		        psgNoteL C4,3
		        psgNote  Gs3
		        psgNote  C4
		        psgNote  Gs3
		        psgNote  D4
		        psgNote  As3
		        psgNote  D4
		        psgNote  As3
		        psgNote  D4
		        psgNote  As3
		        psgNote  D4
		        psgNote  As3
		        psgNote  D4
		        psgNote  As3
		        psgNote  D4
		        psgNote  As3
		        psgNote  C4
		        psgNote  Gs3
		        psgNote  C4
		        psgNote  Gs3
		        psgNote  D4
		        psgNote  As3
		        psgNote  D4
		        psgNote  As3
		        psgNote  D4
		        psgNote  As3
		        psgNote  D4
		        psgNote  As3
		        psgNote  D4
		        psgNote  As3
		        psgNote  D4
		        psgNote  As3
		        psgNote  C4
		        psgNote  Gs3
		        psgNote  C4
		        psgNote  Gs3
		        psgNote  D4
		        psgNote  As3
		        psgNote  D4
		        psgNote  As3
		        psgNote  D4
		        psgNote  As3
		        psgNote  D4
		        psgNote  As3
		        psgNote  D4
		        psgNote  As3
		        psgNote  D4
		        psgNote  As3
		        psgNote  C4
		        psgNote  Gs3
		        psgNote  C4
		        psgNote  Gs3
		        psgNote  D4
		        psgNote  As3
		        psgNote  D4
		        psgNote  As3
		        psgNote  D4
		        psgNote  As3
		        psgNote  D4
		        psgNote  As3
		        psgNote  D4
		        psgNote  As3
		        psgNote  D4
		        psgNote  As3
		        psgNote  Ds4
		        psgNote  B3
		        psgNote  Ds4
		        psgNote  B3
		        psgNote  F4
		        psgNote  Cs4
		        psgNote  F4
		        psgNote  Cs4
		        psgNote  F4
		        psgNote  Cs4
		        psgNote  F4
		        psgNote  Cs4
		        psgNote  F4
		        psgNote  Cs4
		        psgNote  F4
		        psgNote  Cs4
		        psgNote  Ds4
		        psgNote  B3
		        psgNote  Ds4
		        psgNote  B3
		        psgNote  F4
		        psgNote  Cs4
		        psgNote  F4
		        psgNote  Cs4
		        psgNote  F4
		        psgNote  Cs4
		        psgNote  F4
		        psgNote  Cs4
		        psgNote  F4
		        psgNote  Cs4
		        psgNote  F4
		        psgNote  Cs4
		        psgNote  Ds4
		        psgNote  B3
		        psgNote  Ds4
		        psgNote  B3
		        psgNote  F4
		        psgNote  Cs4
		        psgNote  F4
		        psgNote  Cs4
		        psgNote  F4
		        psgNote  Cs4
		        psgNote  F4
		        psgNote  Cs4
		        psgNote  F4
		        psgNote  Cs4
		        psgNote  F4
		        psgNote  Cs4
		        psgNote  Ds4
		        psgNote  B3
		        psgNote  Ds4
		        psgNote  B3
		        psgNote  F4
		        psgNote  Cs4
		        psgNote  F4
		        psgNote  Cs4
		        psgNote  F4
		        psgNote  Cs4
		        psgNote  F4
		        psgNote  Cs4
		        psgNote  F4
		        psgNote  Cs4
		        psgNote  F4
		        psgNote  Cs4
		        psgNoteL As4,4
		        psgNote  C5
		        psgNote  As4
		        psgNote  C5
		        psgNote  As4
		        psgNote  C5
		        psgNote  As4
		        psgNote  C5
		        psgNote  As4
		        psgNote  C5
		        psgNote  As4
		        psgNote  C5
		        psgNote  As4
		        psgNote  C5
		        psgNote  As4
		        psgNote  C5
		        psgNote  As4
		        psgNote  C5
		        psgNote  As4
		        psgNote  C5
		        psgNote  As4
		        psgNote  C5
		        psgNote  As4
		        psgNote  C5
Music_31_Channel_9:
		channel_end
