
; ASM FILE music29.asm :
; 0xEFE9..0xFF14 : Music 29
Music_29:       db 0
		db 0
		db 0
		db 0CFh
		dw Music_29_Channel_0
		dw Music_29_Channel_1
		dw Music_29_Channel_2
		dw Music_29_Channel_3
		dw Music_29_Channel_4
		dw Music_29_Channel_5
		dw Music_29_Channel_6
		dw Music_29_Channel_7
		dw Music_29_Channel_8
		dw Music_29_Channel_9
Music_29_Channel_0:
		        waitL 12
		  stereo 080h
		  inst 13
		  vol 0Bh
		  setRelease 01h
		  vibrato 02Ch
		        noteL D7,36
		        noteL A6,12
		        noteL A6,48
		        note  D7
		        noteL D7,36
		        noteL A6,12
		        noteL A6,48
		        note  D7
		  sustain
		        noteL Fs7,144
		  vibrato 020h
		  setRelease 01h
		        note  Fs7
		  vibrato 02Ch
		        waitL 48
		        waitL 192
		        wait
		        waitL 144
		  stereo 0C0h
		  vol 0Ch
		        noteL D6,36
		        noteL A5,12
		        noteL A5,48
		        note  D6
		        noteL D6,36
		        noteL B5,12
		        noteL B5,96
		        noteL Cs6,24
		        note  D6
		        noteL E6,48
		        noteL D6,24
		        note  Cs6
		        noteL D6,48
		        noteL Fs6,96
		        noteL G6,36
		        noteL As5,12
		        noteL As5,48
		        note  G6
		        noteL Fs6,12
		        note  E6
		        note  Fs6
		        note  G6
		        noteL A6,96
		        noteL B6,36
		        noteL E6,12
		        noteL E6,48
		        note  D6
		        noteL Cs6,12
		        note  B5
		        note  Cs6
		        note  D6
		        noteL E6,96
		        noteL D6,36
		        noteL A5,12
		        noteL A5,48
		        note  D6
		        noteL D6,36
		        noteL B5,12
		        noteL B5,96
		        noteL Cs6,24
		        note  D6
		        noteL E6,48
		        noteL D6,24
		        note  Cs6
		        noteL D6,48
		        noteL Fs6,96
		  inst 26
		  vol 0Ah
		        noteL G6,36
		        noteL B5,12
		        noteL B5,24
		        note  G6
		        note  Fs6
		        note  E6
		        noteL Fs6,36
		        noteL A5,12
		        noteL A5,96
		        noteL G6,36
		        noteL B5,12
		        noteL B5,24
		        note  G6
		        note  Fs6
		        note  E6
		        noteL Fs6,48
		        noteL A6,96
		        noteL B6,36
		        noteL E6,12
		        noteL E6,24
		        note  B6
		        note  A6
		        note  Gs6
		        noteL Cs7,36
		        noteL E6,12
		        noteL E6,24
		        note  Cs7
		        note  B6
		        note  A6
		        noteL D7,36
		        noteL Fs6,12
		        noteL Fs6,24
		        note  D7
		        note  Cs7
		        note  B6
		        noteL Cs7,48
		        noteL E7,96
		        noteL D7,36
		        noteL A6,12
		        noteL A6,48
		        note  D7
		        noteL D7,36
		        noteL B6,12
		        noteL B6,96
		        noteL Cs7,24
		        note  D7
		        noteL E7,48
		        noteL D7,24
		        note  Cs7
		        noteL D7,48
		        noteL Fs7,96
		        noteL G7,36
		        noteL As6,12
		        noteL As6,48
		        note  G7
		        noteL Fs7,12
		        note  E7
		        note  Fs7
		        note  G7
		        noteL A7,96
		        noteL B7,36
		        noteL E7,12
		        noteL E7,48
		        note  D7
		        noteL Cs7,12
		        note  B6
		        note  Cs7
		        note  D7
		        noteL E7,94
		        waitL 50
		        waitL 192
		        wait
		  inst 13
		  vol 0Bh
		        waitL 72
		        noteL A5,12
		        note  B5
		        note  Cs6
		        note  D6
		        note  E6
		        noteL Fs6,13
		        noteL G6,47
		        noteL Fs6,48
		        note  E6
		        note  D6
		        noteL Cs6,96
		        waitL 24
		  inst 6
		  setRelease 03h
		  vol 08h
		        noteL D5,4
		        note  E5
		        note  Fs5
		        noteL Gs5,5
		        noteL A5,4
		        noteL B5,5
		        noteL Cs6,4
		        noteL D6,5
		        noteL E6,4
		        note  Fs6
		        noteL Gs6,5
		        noteL A6,4
		        note  Gs6
		        noteL Fs6,5
		        noteL E6,4
		        note  D6
		        noteL Cs6,5
		        noteL B5,4
		        noteL A5,5
		        noteL Gs5,4
		        note  Fs5
		        noteL E5,5
		        noteL D5,4
		        note  E5
		        noteL Fs5,5
		        noteL Gs5,4
		        note  A5
		        noteL B5,5
		        noteL Cs6,4
		        note  D6
		        noteL E6,5
		        noteL Fs6,4
		        noteL Gs6,5
		        noteL As6,4
		        note  Gs6
		        noteL Fs6,5
		        noteL E6,4
		        note  D6
		        noteL Cs6,5
		        noteL B5,4
		        noteL As5,5
		        noteL Gs5,4
		        note  Fs5
		        noteL E5,5
		        noteL D5,4
		        note  E5
		        noteL Fs5,5
		        noteL Gs5,4
		        note  As5
		        noteL B5,5
		        noteL Cs6,4
		        noteL D6,5
		        noteL E6,4
		        note  Fs6
		        noteL Gs6,5
		        noteL As6,4
		        note  Gs6
		        noteL Fs6,5
		        noteL E6,4
		        note  D6
		        noteL Cs6,5
		        noteL B5,4
		        noteL As5,5
		        noteL Gs5,4
		        note  Fs5
		        noteL E5,5
		        noteL D5,4
		        note  E5
		        noteL Fs5,5
		        noteL Gs5,4
		        note  As5
		        noteL B5,5
		        noteL Cs6,4
		        noteL D6,5
		        noteL E6,4
		        note  Fs6
		        noteL Gs6,5
		        noteL As6,4
		        note  Gs6
		        noteL Fs6,5
		        noteL E6,4
		        note  D6
		        noteL Cs6,5
		        noteL B5,4
		        noteL As5,5
		        noteL Gs5,4
		        note  Fs5
		        noteL E5,5
		        noteL D5,4
		        note  E5
		        noteL Fs5,5
		        noteL Gs5,4
		        note  As5
		        noteL B5,5
		        noteL Cs6,4
		        noteL D6,5
		        noteL E6,4
		        note  Fs6
		        noteL Gs6,5
		        noteL A6,4
		        note  Gs6
		        noteL Fs6,5
		        noteL E6,4
		        note  D6
		        noteL Cs6,5
		        noteL B5,4
		        noteL A5,5
		        noteL Gs5,4
		        note  Fs5
		        noteL E5,5
		        noteL D5,4
		        note  E5
		        noteL Fs5,5
		        noteL Gs5,4
		        note  A5
		        noteL B5,5
		        noteL Cs6,4
		        note  D6
		        noteL E6,5
		        noteL Fs6,4
		        noteL Gs6,5
		        noteL A6,4
		        note  Gs6
		        note  Fs6
		        noteL E6,5
		        noteL D6,4
		        noteL Cs6,5
		        noteL B5,4
		        noteL A5,5
		        noteL Gs5,4
		        note  Fs5
		        noteL E5,5
		        noteL D5,4
		        note  E5
		        noteL Fs5,5
		        noteL Gs5,4
		        note  As5
		        noteL B5,5
		        noteL Cs6,4
		        noteL D6,5
		        noteL E6,4
		        note  Fs6
		        noteL Gs6,5
		        noteL As6,4
		        note  Gs6
		        noteL Fs6,5
		        noteL E6,4
		        note  D6
		        noteL Cs6,5
		        noteL B5,4
		        note  As5
		        noteL Gs5,5
		        noteL Fs5,4
		        noteL E5,5
		        noteL D5,4
		        note  E5
		        noteL Fs5,5
		        noteL Gs5,4
		        note  As5
		        noteL B5,5
		        noteL Cs6,4
		        noteL D6,5
		        noteL E6,4
		        note  Fs6
		        noteL Gs6,5
		        noteL As6,4
		        note  Gs6
		        noteL Fs6,5
		        noteL E6,4
		        note  D6
		        noteL Cs6,5
		        noteL B5,4
		        noteL As5,5
		        noteL Gs5,4
		        note  Fs5
		        noteL E5,5
		        noteL D5,4
		        note  E5
		        noteL Fs5,5
		        noteL Gs5,4
		        note  As5
		        noteL B5,5
		        noteL Cs6,4
		        noteL D6,5
		        noteL E6,4
		        note  Fs6
		        noteL Gs6,5
		        noteL As6,4
		        note  Gs6
		        noteL Fs6,5
		        noteL E6,4
		        note  D6
		        noteL Cs6,5
		        noteL B5,4
		        noteL As5,5
		        noteL Gs5,4
		        note  Fs5
		        noteL E5,5
		        noteL D4,3
		        note  E4
		        note  Fs4
		        note  A4
		        note  D5
		        note  E5
		        noteL Fs5,2
		        noteL A5,4
		        noteL E4,3
		        note  Fs4
		        note  A4
		        note  D5
		        note  E5
		        note  Fs5
		        note  A5
		        note  D6
		        note  Fs4
		        note  A4
		        note  B4
		        note  D5
		        note  Fs5
		        note  A5
		        note  B5
		        note  D6
		        note  A4
		        note  B4
		        note  D5
		        note  Fs5
		        note  A5
		        note  B5
		        note  D6
		        note  Fs6
		        note  D5
		        note  E5
		        note  Fs5
		        note  A5
		        noteL D6,2
		        noteL E6,4
		        noteL Fs6,3
		        note  A6
		        note  E5
		        note  Fs5
		        note  A5
		        note  D6
		        note  E6
		        note  Fs6
		        note  A6
		        note  D7
		        note  Fs5
		        note  A5
		        note  B5
		        note  D6
		        note  Fs6
		        note  A6
		        note  B6
		        note  D7
		        note  A5
		        note  B5
		        note  D6
		        note  Fs6
		        note  A6
		        note  B6
		        note  D7
		        note  Fs7
		        note  D6
		        note  E6
		        note  Fs6
		        note  A6
		        note  D7
		        note  E7
		        note  Fs7
		        note  A7
		        noteL B6,4
		        note  D7
		        note  A5
		        note  B5
		        note  D6
		        note  Fs6
		        note  A6
		        note  B6
		        note  D7
		        note  Fs7
		        note  D6
		        note  E6
		        note  Fs6
		        note  A6
		        note  D7
		        note  E7
		        note  Fs7
		        note  A7
		channel_end
Music_29_Channel_1:
		        waitL 12
		  inst 3
		  vol 0Bh
		  setRelease 01h
		  vibrato 02Ch
		        noteL D5,48
		        note  D5
		        note  D5
		        note  D5
		        note  D5
		        note  D5
		  vol 08h
		  sustain
		        noteL D5,144
		  vibrato 020h
		  setRelease 01h
		        note  D5
		  vibrato 02Ch
		  sustain
		        note  D5
		  vibrato 020h
		  setRelease 01h
		        note  D5
		        wait
		        wait
		  vibrato 02Ch
		  inst 13
		  vol 0Bh
		        noteL A5,36
		        noteL Fs5,12
		        noteL Fs5,48
		        note  A5
		        noteL B5,36
		        noteL Gs5,12
		        noteL Gs5,96
		        noteL G5,48
		        note  B5
		        note  G5
		        note  A5
		        noteL D6,96
		        noteL Ds6,36
		        noteL G5,12
		        noteL G5,48
		        note  Ds6
		        note  D6
		        noteL Fs6,96
		        noteL Gs6,36
		        noteL B5,12
		        noteL B5,48
		        note  B5
		        note  G5
		        noteL B5,96
		        noteL A5,36
		        noteL Fs5,12
		        noteL Fs5,48
		        note  A5
		        noteL B5,36
		        noteL Fs5,12
		        noteL Fs5,96
		        noteL G5,48
		        note  B5
		        note  G5
		        note  A5
		        noteL D6,96
		  inst 26
		  vol 0Ah
		        noteL B5,36
		        noteL D5,12
		        noteL D5,24
		        note  B5
		        note  A5
		        note  G5
		        noteL A5,36
		        noteL Fs5,12
		        noteL Fs5,96
		        noteL B5,36
		        noteL D5,12
		        noteL D5,24
		        note  B5
		        note  A5
		        note  G5
		        noteL A5,48
		        noteL D6,96
		        noteL D5,144
		        note  Cs5
		        noteL D5,48
		        noteL Fs5,96
		        noteL G5,48
		        noteL G5,96
		  inst 3
		  vol 0Bh
		        noteL Fs4,144
		        noteL Gs4,96
		        noteL Gs4,48
		        noteL B4,96
		        noteL B4,48
		        noteL A4,96
		        noteL A4,48
		        noteL As4,144
		        noteL A4,96
		        noteL A4,48
		        noteL B4,96
		        noteL B4,48
		        noteL G4,144
		        waitL 48
		        waitL 192
		        wait
		        waitL 144
		  inst 13
		  vol 0Bh
		        noteL D6,48
		        note  D6
		        note  B5
		        note  G5
		        noteL G5,94
		        waitL 24
		        waitL 146
		        waitL 48
		  inst 0
		  vol 0Bh
		        waitL 84
		        noteL D4,12
		        noteL D4,144
		        waitL 96
		        waitL 180
		        noteL D4,12
		        noteL D4,144
		  inst 26
		  vol 09h
		  sustain
		        noteL A5,240
		  vibrato 020h
		  setRelease 01h
		        noteL A5,48
		channel_end
Music_29_Channel_2:
		        waitL 12
		  inst 3
		  vol 0Bh
		  setRelease 01h
		  vibrato 02Ch
		        noteL Fs4,48
		        note  Fs4
		        note  Fs4
		        note  Fs4
		        note  Fs4
		        note  Fs4
		        noteL Fs4,144
		  inst 45
		  vol 0Ah
		        noteL B4,24
		        note  Cs5
		        note  D5
		        note  Fs5
		        note  B5
		        note  Cs6
		        noteL D6,144
		        waitL 96
		        waitL 192
		        waitL 144
		  inst 13
		  vol 0Bh
		        noteL Fs5,36
		        noteL D5,12
		        noteL D5,48
		        note  Fs5
		        noteL Gs5,36
		        noteL E5,12
		        noteL E5,24
		  stereo 080h
		  inst 44
		  vol 0Ch
		        noteL D6,6
		        note  E6
		        note  Fs6
		        note  Gs6
		        noteL E5,0
		        noteL B6,6
		        note  A6
		        note  Gs6
		        note  Fs6
		        note  A6
		        note  Gs6
		        note  Fs6
		        note  E6
		  stereo 0C0h
		  inst 13
		  vol 0Ch
		        noteL E5,48
		        note  G5
		        note  E5
		        note  Fs5
		        noteL A5,24
		  stereo 080h
		  inst 44
		  vol 0Ch
		        noteL D6,6
		        note  E6
		        note  Fs6
		        note  A6
		        note  D7
		        note  B6
		        note  A6
		        note  Fs6
		        note  B6
		        note  A6
		        note  Fs6
		        note  D6
		  stereo 0C0h
		  inst 13
		  vol 0Bh
		        noteL As5,36
		        noteL Ds5,12
		        noteL Ds5,48
		        note  As5
		        note  A5
		        noteL D6,96
		        noteL E6,36
		        noteL Gs5,12
		        noteL Gs5,48
		        note  Gs5
		        note  E5
		        note  G5
		  stereo 080h
		  inst 6
		  vol 0Ch
		        noteL A4,1
		        noteL B4,2
		        noteL D5,1
		        noteL D5,2
		        noteL E5,1
		        noteL Fs5,2
		        note  A5
		        noteL A5,1
		        noteL B5,2
		        noteL D6,1
		        noteL D6,2
		        note  E6
		        noteL Fs6,1
		        noteL A6,2
		        noteL A6,1
		        noteL B6,2
		        note  D7
		        noteL D7,1
		        noteL E7,2
		        noteL Fs7,1
		        noteL A7,2
		        noteL A7,4
		        waitL 11
		  stereo 0C0h
		  inst 13
		  vol 0Bh
		        noteL Fs5,36
		        noteL D5,12
		        noteL D5,48
		        note  Fs5
		        noteL Fs5,36
		        noteL D5,12
		        noteL D5,96
		        noteL E5,48
		        note  G5
		        note  E5
		        note  Fs5
		        note  A5
		  stereo 080h
		  inst 6
		  vol 0Ch
		        noteL A4,1
		        noteL B4,2
		        noteL D5,1
		        noteL D5,2
		        noteL E5,1
		        noteL Fs5,2
		        note  A5
		        noteL A5,1
		        noteL B5,2
		        noteL D6,1
		        noteL D6,2
		        note  E6
		        noteL Fs6,1
		        noteL A6,2
		        noteL A6,1
		        noteL B6,2
		        note  D7
		        noteL D7,1
		        noteL E7,2
		        noteL Fs7,1
		        noteL A7,2
		        noteL A7,6
		        waitL 57
		        waitL 188
		        noteL A4,2
		        note  B4
		        noteL D5,1
		        noteL D5,2
		        note  E5
		        note  Fs5
		        note  A5
		        noteL A5,1
		        noteL B5,2
		        note  D6
		        noteL D6,1
		        noteL E6,2
		        note  Fs6
		        note  A6
		        noteL A6,1
		        noteL B6,2
		        note  D7
		        note  D7
		        note  E7
		        noteL Fs7,1
		        noteL A7,2
		        noteL A7,0
		        waitL 159
		        waitL 92
		        noteL A4,2
		        note  B4
		        noteL D5,1
		        noteL D5,2
		        note  E5
		        note  Fs5
		        noteL A5,1
		        noteL A5,2
		        note  B5
		        note  D6
		        noteL D6,1
		        noteL E6,2
		        note  Fs6
		        note  A6
		        noteL A6,1
		        noteL B6,2
		        note  D7
		        note  D7
		        note  E7
		        noteL Fs7,1
		        noteL A7,2
		        noteL A7,0
		        waitL 63
		        waitL 192
		        wait
		        waitL 144
		  stereo 0C0h
		  inst 3
		  vol 0Bh
		        note  D4
		        noteL E4,96
		        noteL E4,48
		        noteL G4,96
		        noteL G4,48
		        noteL Fs4,96
		        noteL Fs4,48
		        noteL G4,144
		        noteL Fs4,96
		        noteL Fs4,48
		        noteL Gs4,96
		        noteL Gs4,48
		        noteL E4,144
		  inst 44
		  vol 0Bh
		        noteL D6,36
		        noteL A5,12
		        noteL A5,48
		        note  D6
		        noteL D6,36
		        noteL B5,12
		        noteL B5,96
		        noteL Cs6,24
		        note  D6
		        noteL E6,48
		        noteL D6,24
		        note  Cs6
		        noteL D6,48
		        noteL Fs6,96
		  inst 13
		  vol 0Bh
		        noteL B5,48
		        note  A5
		        note  G5
		        note  E5
		        noteL E5,94
		        waitL 24
		        waitL 146
		        waitL 48
		  inst 3
		  vol 0Ch
		        waitL 84
		        noteL D3,12
		        noteL D3,144
		        waitL 96
		        waitL 180
		        noteL D3,12
		        noteL D3,144
		  inst 26
		  vol 09h
		  sustain
		        noteL Fs5,240
		  vibrato 020h
		  setRelease 01h
		        noteL Fs5,48
		channel_end
Music_29_Channel_3:
		        waitL 12
		  inst 36
		  vol 0Eh
		  setRelease 01h
		  vibrato 02Ch
		        noteL D4,48
		        note  Cs4
		        note  B3
		        note  As3
		        note  A3
		        note  Fs3
		  sustain
		        noteL Gs3,144
		  vibrato 020h
		  setRelease 01h
		        note  Gs3
		  vibrato 02Ch
		  sustain
		        noteL A3,240
		  vibrato 020h
		  setRelease 01h
		        noteL A3,48
		        waitL 144
		        wait
		  stereo 040h
		  vibrato 02Ch
		  inst 26
		  setRelease 01h
		  vol 0Dh
		        noteL D4,6
		        waitL 18
		        noteL D4,8
		        note  D4
		        note  D4
		        noteL D4,6
		        waitL 18
		        noteL D4,6
		        waitL 18
		        noteL D4,6
		        waitL 18
		        noteL D4,6
		        waitL 18
		        noteL D4,6
		        waitL 18
		        noteL D4,8
		        note  D4
		        note  D4
		        noteL D4,6
		        waitL 18
		        noteL D4,6
		        waitL 18
		        noteL D4,6
		        waitL 18
		        noteL D4,6
		        waitL 18
		        noteL D4,6
		        waitL 18
		        noteL D4,8
		        note  D4
		        note  D4
		        noteL D4,6
		        waitL 18
		        noteL D4,6
		        waitL 18
		        noteL D4,6
		        waitL 18
		        noteL D4,6
		        waitL 18
		        noteL D4,6
		        waitL 18
		        noteL D4,8
		        note  D4
		        note  D4
		        noteL D4,6
		        waitL 18
		        noteL D4,6
		        waitL 18
		        noteL D4,6
		        waitL 18
		        noteL D4,6
		        waitL 18
		        noteL Ds4,6
		        waitL 18
		        noteL Ds4,8
		        note  Ds4
		        note  Ds4
		        noteL Ds4,6
		        waitL 18
		        noteL Ds4,6
		        waitL 18
		        noteL Ds4,6
		        waitL 18
		        noteL Ds4,6
		        waitL 18
		        noteL D4,6
		        waitL 18
		        noteL D4,8
		        note  D4
		        note  D4
		        noteL D4,6
		        waitL 18
		        noteL D4,6
		        waitL 18
		        noteL D4,6
		        waitL 18
		        noteL D4,6
		        waitL 18
		        noteL E4,6
		        waitL 18
		        noteL E4,8
		        note  E4
		        note  E4
		        noteL E4,6
		        waitL 18
		        noteL E4,6
		        waitL 18
		        noteL E4,6
		        waitL 18
		        noteL E4,6
		        waitL 18
		        noteL E4,6
		        waitL 18
		        noteL E4,8
		        note  E4
		        note  E4
		        noteL E4,6
		        waitL 18
		        noteL E4,6
		        waitL 18
		        noteL E4,6
		        waitL 18
		        noteL E4,6
		        waitL 18
		  vol 0Bh
		        noteL E4,6
		        waitL 18
		        noteL E4,8
		        note  E4
		        note  E4
		        noteL E4,6
		        waitL 18
		        noteL E4,6
		        waitL 18
		        noteL E4,6
		        waitL 18
		        noteL E4,6
		        waitL 18
		        noteL Fs4,6
		        waitL 18
		        noteL Fs4,8
		        note  Fs4
		        note  Fs4
		        noteL Fs4,6
		        waitL 18
		        noteL Fs4,6
		        waitL 18
		        noteL Fs4,6
		        waitL 18
		        noteL Fs4,6
		        waitL 18
		        noteL E4,6
		        waitL 18
		        noteL E4,8
		        note  E4
		        note  E4
		        noteL E4,6
		        waitL 18
		        noteL E4,6
		        waitL 18
		        noteL E4,6
		        waitL 18
		        noteL E4,6
		        waitL 18
		        noteL E4,6
		        waitL 18
		        noteL E4,8
		        note  E4
		        note  E4
		        noteL A4,96
		        waitL 48
		        waitL 192
		        wait
		        waitL 144
		  stereo 0C0h
		        note  B5
		        noteL A5,192
		        noteL D6,96
		        noteL D6,48
		        noteL Cs6,96
		        noteL Fs6,36
		        noteL Fs6,12
		        noteL Fs6,48
		        note  Fs6
		        noteL B6,36
		        noteL Gs6,12
		        noteL Gs6,96
		        noteL E6,24
		        note  G6
		        noteL G6,48
		        noteL E6,24
		        note  E6
		        noteL Fs6,48
		        noteL D7,96
		        noteL Ds7,36
		        noteL G6,12
		        noteL G6,48
		        note  Ds7
		        noteL D7,12
		        note  Cs7
		        note  D7
		        note  D7
		        noteL Fs7,96
		        noteL Gs7,36
		        noteL Gs6,12
		        noteL Gs6,48
		        note  B6
		        noteL E6,12
		        note  E6
		        note  E6
		        note  E6
		        noteL G6,96
		        noteL D7,36
		        noteL A6,12
		        noteL A6,48
		        note  D7
		        noteL D7,36
		        noteL B6,12
		        noteL B6,96
		        noteL Cs7,24
		        note  D7
		        noteL E7,48
		        noteL D7,24
		        note  Cs7
		        noteL D7,48
		        noteL Fs7,96
		        noteL G6,48
		        note  Fs6
		        note  E6
		        note  D6
		        noteL Cs6,96
		        waitL 24
		  vol 0Ah
		        noteL D7,36
		        noteL A6,12
		        noteL A6,48
		        note  D7
		        noteL D7,36
		        noteL As6,12
		        noteL As6,240
		        noteL D7,36
		        noteL A6,12
		        noteL A6,48
		        note  D7
		        noteL D7,36
		        noteL As6,12
		        noteL As6,240
		  inst 26
		  vol 09h
		  sustain
		        note  D7
		  vibrato 020h
		  setRelease 01h
		        noteL D7,48
		channel_end
Music_29_Channel_4:
		        waitL 12
		  inst 26
		  vol 0Dh
		  setRelease 01h
		  vibrato 02Ch
		        waitL 144
		        wait
		  sustain
		        note  Gs3
		  vibrato 020h
		  setRelease 01h
		        note  Gs3
		  vibrato 02Ch
		  sustain
		        noteL A3,240
		  vibrato 020h
		        noteL A3,192
		  setRelease 01h
		  vibrato 02Ch
		        noteL A3,144
		  inst 36
		  vol 0Bh
		        noteL D4,24
		        note  D4
		        note  D4
		        note  D4
		        note  D4
		        note  D4
		        note  D4
		        note  D4
		        note  D4
		        note  D4
		        note  D4
		        note  D4
		        note  D4
		        note  D4
		        note  D4
		        note  D4
		        note  D4
		        note  D4
		        note  D4
		        note  D4
		        note  D4
		        note  D4
		        note  D4
		        note  D4
		        note  D4
		        note  D4
		        note  D4
		        note  D4
		        note  D4
		        note  D4
		        note  D4
		        note  D4
		        note  D4
		        note  D4
		        note  D4
		        note  D4
		        note  D4
		        note  D4
		        note  D4
		        note  D4
		        note  D4
		        note  D4
		        note  A4
		        note  A4
		        note  A4
		        note  A4
		        note  G4
		        note  G4
		        note  Fs4
		        note  Fs4
		        note  Fs4
		        note  Fs4
		        note  Fs4
		        note  Fs4
		        note  G4
		        note  G4
		        note  G4
		        note  G4
		        note  G4
		        note  G4
		        note  A4
		        note  A4
		        note  A4
		        note  A4
		        note  G4
		        note  G4
		        note  Fs4
		        note  Fs4
		        noteL B4,96
		        noteL G4,144
		        noteL Fs4,48
		        noteL B4,96
		        noteL G4,144
		        noteL Fs4,48
		        noteL B4,96
		  inst 26
		  vol 0Ch
		        noteL Gs3,144
		        note  G3
		        noteL Fs3,48
		        noteL B3,96
		        noteL E3,48
		        noteL A3,96
		  inst 36
		  vol 0Ch
		        noteL D4,24
		        note  D4
		        note  D4
		        note  D4
		        note  D4
		        note  D4
		        note  D4
		        note  D4
		        note  D4
		        note  D4
		        note  D4
		        note  D4
		        note  D4
		        note  D4
		        note  D4
		        note  D4
		        note  D4
		        note  D4
		        note  D4
		        note  D4
		        note  D4
		        note  D4
		        note  D4
		        note  D4
		        note  D4
		        note  D4
		        note  D4
		        note  D4
		        note  D4
		        note  D4
		        note  D4
		        note  D4
		        note  D4
		        note  D4
		        note  D4
		        note  D4
		        note  D4
		        note  D4
		        note  D4
		        note  D4
		        note  D4
		        note  D4
		        note  A4
		        note  A4
		        note  A4
		        note  A4
		        note  A4
		        note  A4
		  inst 4
		  vol 0Bh
		        note  D4
		        note  A4
		        wait
		        note  A4
		        wait
		        note  D4
		        note  D4
		        note  B4
		        wait
		        note  B4
		        wait
		        note  D4
		        note  D4
		        note  A4
		        wait
		        note  A4
		        wait
		        note  D4
		        note  Fs4
		        note  B3
		        noteL B4,96
		  inst 36
		  vol 0Ch
		        noteL E4,48
		        note  Fs4
		        note  G4
		        note  A4
		        noteL A4,96
		        waitL 24
		        waitL 144
		        waitL 132
		        noteL D4,12
		        noteL D4,144
		        waitL 96
		        waitL 180
		        noteL D4,12
		        noteL D4,144
		  inst 26
		  vol 0Ah
		  sustain
		        noteL D4,240
		  vibrato 020h
		  setRelease 01h
		        noteL D4,48
		channel_end
Music_29_Channel_5:
		        sampleL 4,4
		        sample  4
		        sample  4
		        sampleL 4,48
		        waitL 192
		        wait
		        wait
		        wait
		        wait
		        sampleL 11,6
		        sample  11
		        sample  11
		        sample  11
		        sample  11
		        sample  11
		        sample  11
		        sample  11
		        sample  11
		        sample  11
		        sample  11
		        sample  11
		        sample  11
		        sample  11
		        sample  11
		        sample  11
		        sample  11
		        sample  11
		        sample  11
		        sample  11
		        sample  11
		        sample  11
		        sample  11
		        sampleL 11,7
		        sampleL 4,95
		        waitL 144
		        waitL 192
		        wait
		        wait
		        wait
		        sampleL 11,6
		        sample  11
		        sample  11
		        sample  11
		        sample  11
		        sample  11
		        sample  11
		        sample  11
		        sample  11
		        sample  11
		        sample  11
		        sample  11
		        sample  11
		        sample  11
		        sample  11
		        sample  11
		        sample  11
		        sample  11
		        sample  11
		        sample  11
		        sample  11
		        sample  11
		        sample  11
		        sample  11
		        sample  11
		        waitL 42
		        waitL 192
		        wait
		        wait
		        wait
		        wait
		        wait
		        wait
		        wait
		        sampleL 11,6
		        sample  11
		        sample  11
		        sample  11
		        sample  11
		        sample  11
		        sample  11
		        sample  11
		        sample  11
		        sample  11
		        sample  11
		        sample  11
		        sample  11
		        sample  11
		        sample  11
		        sample  11
		        sample  11
		        sample  11
		        sample  11
		        sample  11
		        sample  11
		        sample  11
		        sample  11
		        sampleL 11,7
		        sampleL 4,44
		        waitL 3
		        waitL 192
		        wait
		        wait
		        wait
		        wait
		        waitL 48
		        sampleL 11,6
		        sample  11
		        sample  11
		        sample  11
		        sample  11
		        sample  11
		        sample  11
		        sample  11
		        sample  11
		        sample  11
		        sample  11
		        sample  11
		        sample  11
		        sample  11
		        sample  11
		        sample  11
		        sampleL 4,48
		        waitL 192
		        wait
		        waitL 144
		        sampleL 12,48
		        sample  12
		        sample  12
		        sample  11
		        sampleL 11,1
		        sampleL 11,2
		        sampleL 11,1
		        sampleL 11,2
		        sampleL 11,1
		        sampleL 11,2
		        sampleL 11,1
		        sampleL 11,2
		        sampleL 11,1
		        sampleL 11,2
		        sampleL 11,1
		        sampleL 11,2
		        sampleL 11,1
		        sampleL 11,2
		        sampleL 11,1
		        sampleL 11,2
		        sampleL 11,1
		        sampleL 11,2
		        sampleL 11,1
		        sampleL 11,2
		        sampleL 11,1
		        sampleL 11,2
		        sampleL 11,1
		        sampleL 11,2
		        sampleL 11,1
		        sampleL 11,2
		        sampleL 11,1
		        sampleL 11,2
		        sampleL 11,1
		        sampleL 11,2
		        sampleL 11,1
		        sampleL 11,2
		        sampleL 11,1
		        sample  11
		        sampleL 11,2
		        sample  11
		        sampleL 11,1
		        sampleL 11,2
		        sampleL 11,1
		        sampleL 11,2
		        sampleL 11,1
		        sample  11
		        sampleL 11,2
		        sample  11
		        sampleL 11,1
		        sampleL 11,2
		        sampleL 11,1
		        sampleL 11,2
		        sampleL 11,1
		        sampleL 11,2
		        sampleL 11,1
		        sampleL 11,2
		        sampleL 11,1
		        sampleL 11,2
		        sampleL 11,1
		        sampleL 11,2
		        sampleL 11,1
		        sampleL 11,2
		        sampleL 11,1
		        sampleL 11,2
		        sampleL 11,1
		        sample  11
		        sampleL 11,2
		        sample  11
		        waitL 24
		        waitL 144
		        waitL 132
		        sampleL 4,12
		        sampleL 4,4
		        sample  4
		        sampleL 4,5
		        sample  4
		        sampleL 4,4
		        sampleL 4,5
		        sampleL 4,4
		        sampleL 4,5
		        sampleL 4,4
		        sample  4
		        sampleL 4,5
		        sample  4
		        sampleL 4,4
		        sampleL 4,5
		        sampleL 4,4
		        sampleL 4,5
		        sampleL 4,4
		        sampleL 4,5
		        sampleL 4,4
		        sampleL 4,5
		        sampleL 4,4
		        sample  4
		        sampleL 4,5
		        sample  4
		        sampleL 4,4
		        sampleL 4,5
		        sampleL 4,4
		        sampleL 4,5
		        sampleL 4,4
		        sampleL 4,5
		        sampleL 4,4
		        sample  4
		        waitL 49
		        waitL 228
		        sampleL 4,12
		        sampleL 4,4
		        sample  4
		        sampleL 4,5
		        sample  4
		        sampleL 4,4
		        sampleL 4,5
		        sampleL 4,4
		        sampleL 4,5
		        sampleL 4,4
		        sample  4
		        sampleL 4,5
		        sample  4
		        sampleL 4,4
		        sampleL 4,5
		        sampleL 4,4
		        sampleL 4,5
		        sampleL 4,4
		        sampleL 4,5
		        sampleL 4,4
		        sampleL 4,5
		        sampleL 4,4
		        sample  4
		        sampleL 4,5
		        sample  4
		        sampleL 4,4
		        sampleL 4,5
		        sampleL 4,4
		        sampleL 4,5
		        sampleL 4,4
		        sampleL 4,5
		        sampleL 4,4
		        sample  4
		        waitL 49
		channel_end
Music_29_Channel_6:
		  psgInst 00h
		        waitL    12
		  psgInst 07Bh
		  setRelease 01h
		  vibrato 04Ch
		        psgNoteL 126,31
		        psgNoteL D6,8
		        psgNote  D6
		        psgNote  D6
		        psgNote  D6
		        psgNote  D6
		        psgNote  D6
		        psgNote  D6
		        psgNote  D6
		        psgNote  D6
		        psgNote  D6
		        psgNote  D6
		        psgNote  D6
		        psgNote  D6
		        psgNote  D6
		        psgNote  D6
		        psgNote  D6
		        psgNote  D6
		        psgNote  D6
		        psgNote  D6
		        psgNote  D6
		        psgNote  D6
		        psgNote  D6
		        psgNote  D6
		        psgNote  D6
		        psgNote  D6
		        psgNote  D6
		        psgNote  D6
		        psgNote  D6
		        psgNote  D6
		        psgNote  D6
		        psgNote  D6
		        psgNote  D6
		        psgNote  D6
		        psgNote  D6
		        psgNote  D6
		        psgNote  D6
		        psgNote  Fs5
		        psgNote  Fs5
		        psgNote  Fs5
		        psgNote  Fs5
		        psgNote  Fs5
		        psgNote  Fs5
		        psgNote  Fs5
		        psgNote  Fs5
		        psgNote  Fs5
		        psgNote  Fs5
		        psgNote  Fs5
		        psgNote  Fs5
		        psgNote  Fs5
		        psgNote  Fs5
		        psgNote  Fs5
		        psgNote  Fs5
		        psgNote  Fs5
		        psgNote  Fs5
		        psgNote  Fs5
		        psgNote  Fs5
		        psgNote  Fs5
		        psgNote  Fs5
		        psgNote  Fs5
		        psgNote  Fs5
		        psgNote  Fs5
		        psgNote  Fs5
		        psgNote  Fs5
		        psgNote  Fs5
		        psgNote  Fs5
		        psgNote  Fs5
		        psgNote  Fs5
		        psgNote  Fs5
		        psgNote  Fs5
		        psgNote  Fs5
		        psgNote  Fs5
		        psgNote  Fs5
		  psgInst 07Ch
		        psgNoteL A2,7
		        psgNoteL B2,6
		        psgNoteL Cs3,7
		        psgNote  D3
		        psgNote  Cs3
		        psgNote  B2
		        psgNote  A2
		        psgNote  B2
		        psgNoteL Cs3,6
		        psgNoteL D3,7
		        psgNote  E3
		        psgNote  D3
		        psgNote  Cs3
		        psgNote  B2
		        psgNoteL Cs3,6
		        psgNoteL D3,7
		        psgNote  E3
		        psgNote  Fs3
		        psgNote  E3
		        psgNote  D3
		        psgNote  Cs3
		        psgNoteL D3,6
		        psgNoteL E3,7
		        psgNote  Fs3
		        psgNote  G3
		        psgNote  Fs3
		        psgNote  E3
		        psgNote  D3
		        psgNote  E3
		        psgNoteL Fs3,6
		        psgNoteL G3,7
		        psgNote  A3
		        psgNote  G3
		        psgNote  Fs3
		        psgNote  E3
		        psgNote  Fs3
		        psgNoteL G3,6
		        psgNoteL A3,7
		        psgNote  B3
		        psgNote  A3
		        psgNote  G3
		        psgNote  Fs3
		        psgNoteL G3,6
		        psgNoteL A3,7
		        psgNote  B3
		        psgNote  Cs4
		        psgNote  B3
		        psgNote  A3
		        psgNote  G3
		        psgNoteL A3,6
		        psgNoteL B3,7
		        psgNote  Cs4
		        psgNote  D4
		        psgNote  Cs4
		        psgNote  B3
		        psgNote  A3
		        psgNote  B3
		        psgNoteL Cs4,6
		        psgNoteL D4,7
		        psgNote  E4
		        psgNote  D4
		        psgNote  Cs4
		        psgNote  B3
		        psgNote  Cs4
		        psgNoteL D4,6
		        psgNoteL E4,7
		        psgNote  Fs4
		        psgNote  E4
		        psgNote  D4
		        psgNote  Cs4
		        psgNoteL D4,6
		        psgNoteL E4,7
		        psgNote  Fs4
		        psgNote  G4
		        psgNote  Fs4
		        psgNote  E4
		        psgNote  D4
		        psgNoteL Cs4,6
		        psgNote  D4
		        psgNote  E4
		        psgNote  Fs4
		        psgNote  G4
		        psgNote  A4
		        psgNote  B4
		        psgNoteL Cs5,7
		  psgInst 07Eh
		        psgNoteL A2,4
		        waitL    19
		        psgNoteL A2,8
		        psgNote  A2
		        psgNote  A2
		        psgNoteL A2,6
		        waitL    18
		        psgNoteL A2,6
		        waitL    18
		        psgNoteL A2,6
		        waitL    18
		        psgNoteL A2,6
		        waitL    18
		        psgNoteL B2,6
		        waitL    18
		        psgNoteL B2,8
		        psgNote  B2
		        psgNote  B2
		        psgNoteL B2,6
		        waitL    18
		        psgNoteL B2,6
		        waitL    18
		        psgNoteL B2,6
		        waitL    18
		        psgNoteL B2,6
		        waitL    18
		        psgNoteL B2,6
		        waitL    18
		        psgNoteL B2,8
		        psgNote  B2
		        psgNote  B2
		        psgNoteL B2,6
		        waitL    18
		        psgNoteL B2,6
		        waitL    18
		        psgNoteL B2,6
		        waitL    18
		        psgNoteL B2,6
		        waitL    18
		        psgNoteL A2,6
		        waitL    18
		        psgNoteL A2,8
		        psgNote  A2
		        psgNote  A2
		        psgNoteL A2,6
		        waitL    18
		        psgNoteL A2,6
		        waitL    18
		        psgNoteL A2,6
		        waitL    18
		        psgNoteL A2,6
		        waitL    18
		        psgNoteL As2,6
		        waitL    18
		        psgNoteL As2,8
		        psgNote  As2
		        psgNote  As2
		        psgNoteL As2,6
		        waitL    18
		        psgNoteL As2,6
		        waitL    18
		        psgNoteL As2,6
		        waitL    18
		        psgNoteL As2,6
		        waitL    18
		        psgNoteL A2,6
		        waitL    18
		        psgNoteL A2,8
		        psgNote  A2
		        psgNote  A2
		        psgNoteL A2,6
		        waitL    18
		        psgNoteL A2,6
		        waitL    18
		        psgNoteL A2,6
		        waitL    18
		        psgNoteL A2,6
		        waitL    18
		        psgNoteL B2,6
		        waitL    18
		        psgNoteL B2,8
		        psgNote  B2
		        psgNote  B2
		        psgNoteL B2,6
		        waitL    18
		        psgNoteL B2,6
		        waitL    18
		        psgNoteL B2,6
		        waitL    18
		        psgNoteL B2,6
		        waitL    18
		        psgNoteL B2,6
		        waitL    18
		        psgNoteL B2,8
		        psgNote  B2
		        psgNote  B2
		        psgNoteL B2,6
		        waitL    18
		        psgNoteL B2,6
		        waitL    18
		        psgNoteL B2,6
		        waitL    18
		        psgNoteL B2,6
		        waitL    18
		        psgNoteL D3,6
		        waitL    18
		        psgNoteL D3,8
		        psgNote  D3
		        psgNote  D3
		        psgNoteL D3,6
		        waitL    18
		        psgNoteL D3,6
		        waitL    18
		        psgNoteL D3,6
		        waitL    18
		        psgNoteL D3,6
		        waitL    18
		        psgNoteL D3,6
		        waitL    18
		        psgNoteL D3,8
		        psgNote  D3
		        psgNote  D3
		        psgNoteL D3,6
		        waitL    18
		        psgNoteL D3,6
		        waitL    18
		        psgNoteL D3,6
		        waitL    18
		        psgNoteL D3,6
		        waitL    18
		        psgNoteL Cs3,6
		        waitL    18
		        psgNoteL Cs3,8
		        psgNote  Cs3
		        psgNote  Cs3
		        psgNoteL Cs3,6
		        waitL    18
		        psgNoteL Cs3,6
		        waitL    18
		        psgNoteL Cs3,6
		        waitL    18
		        psgNoteL Cs3,6
		        waitL    18
		        psgNoteL D3,6
		        waitL    18
		        psgNoteL D3,8
		        psgNote  D3
		        psgNote  D3
		        psgNoteL Fs3,96
		  psgInst 00h
		        waitL    144
		        wait
		        wait
		        wait
		  psgInst 07Bh
		        psgNoteL E2,240
		        psgNoteL E2,48
		        psgNote  E2
		        psgNoteL A2,96
		        psgNoteL B2,48
		        psgNoteL A2,96
		  psgInst 07Ch
		        psgNoteL D2,216
		  psgInst 07Ch
		        psgNoteL D5,6
		        psgNote  E5
		        psgNote  Fs5
		        psgNote  Gs5
		        psgNote  B5
		        psgNote  A5
		        psgNote  Gs5
		        psgNote  Fs5
		        psgNote  A5
		        psgNote  Gs5
		        psgNote  Fs5
		        psgNote  E5
		  psgInst 07Ch
		        psgNoteL D2,96
		        psgNoteL D2,48
		        psgNoteL D2,72
		  psgInst 07Ch
		        psgNoteL D5,6
		        psgNote  E5
		        psgNote  Fs5
		        psgNote  A5
		        psgNote  D6
		        psgNote  B5
		        psgNote  A5
		        psgNote  Fs5
		        psgNote  B5
		        psgNote  A5
		        psgNote  Fs5
		  psgInst 07Ch
		        psgNote  D4
		        psgNoteL D2,240
		        psgNoteL D2,48
		        psgNoteL D2,96
		        psgNoteL D2,48
		        psgNoteL A2,144
		  psgInst 07Bh
		        psgNoteL D4,12
		        psgNote  Fs3
		        psgNote  D4
		        psgNote  Fs3
		        psgNote  D4
		        psgNote  Fs3
		        psgNote  D4
		        psgNote  Fs3
		        psgNote  D4
		        psgNote  Fs3
		        psgNote  D4
		        psgNote  Fs3
		        psgNote  D4
		        psgNote  Gs3
		        psgNote  D4
		        psgNote  Gs3
		        psgNote  D4
		        psgNote  Gs3
		        psgNote  D4
		        psgNote  Gs3
		        psgNote  Cs4
		        psgNote  Gs3
		        psgNote  D4
		        psgNote  Gs3
		        psgNote  Cs4
		        psgNote  G3
		        psgNote  Cs4
		        psgNote  G3
		        psgNote  Cs4
		        psgNote  G3
		        psgNote  Cs4
		        psgNote  G3
		        psgNote  Cs4
		        psgNote  G3
		        psgNote  Cs4
		        psgNote  G3
		        psgNoteL D4,48
		        psgNoteL Fs4,96
		  psgInst 07Ch
		  ymTimer 0CCh
		        psgNoteL D4,48
		  ymTimer 0C8h
		        psgNote  D4
		  ymTimer 0C2h
		        psgNote  B3
		  ymTimer 0C0h
		        psgNote  G3
		  ymTimer 0A6h
		        psgNoteL G3,96
		  psgInst 00h
		        waitL    24
		  ymTimer 0C0h
		  psgInst 079h
		        psgNoteL A4,36
		        psgNoteL Fs4,12
		        psgNoteL Fs4,48
		        psgNote  A4
		        psgNoteL As4,36
		        psgNoteL Fs4,12
		        psgNoteL Fs4,240
		        psgNoteL A4,36
		        psgNoteL Fs4,12
		        psgNoteL Fs4,48
		        psgNote  A4
		        psgNoteL As4,36
		        psgNoteL Fs4,12
		        psgNoteL Fs4,216
		  ymTimer 0B9h
		        psgNoteL Fs4,24
		  vibrato 05Ch
		  setRelease 080h
		        psgNoteL Fs5,240
		  vibrato 040h
		  setRelease 01h
		        psgNoteL Fs5,48
		        waitL    2
		channel_end
Music_29_Channel_7:
		  psgInst 00h
		        waitL    12
		  psgInst 07Bh
		  setRelease 01h
		  vibrato 04Ch
		        psgNoteL 126,31
		        psgNoteL D5,6
		        psgNote  D5
		        psgNote  D5
		        psgNote  D5
		        psgNote  D5
		        psgNote  D5
		        psgNote  D5
		        psgNote  D5
		        psgNote  D5
		        psgNote  D5
		        psgNote  D5
		        psgNote  D5
		        psgNote  D5
		        psgNote  D5
		        psgNote  D5
		        psgNote  D5
		        psgNote  D5
		        psgNote  D5
		        psgNote  D5
		        psgNote  D5
		        psgNote  D5
		        psgNote  D5
		        psgNote  D5
		        psgNote  D5
		        psgNote  D5
		        psgNote  D5
		        psgNote  D5
		        psgNote  D5
		        psgNote  D5
		        psgNote  D5
		        psgNote  D5
		        psgNote  D5
		        psgNote  D5
		        psgNote  D5
		        psgNote  D5
		        psgNote  D5
		        psgNote  D5
		        psgNote  D5
		        psgNote  D5
		        psgNote  D5
		        psgNote  D5
		        psgNote  D5
		        psgNote  D5
		        psgNote  D5
		        psgNote  D5
		        psgNote  D5
		        psgNote  D5
		        psgNote  D5
		        psgNoteL D5,8
		        psgNote  D5
		        psgNote  D5
		        psgNote  D5
		        psgNote  D5
		        psgNote  D5
		        psgNote  D5
		        psgNote  D5
		        psgNote  D5
		        psgNote  D5
		        psgNote  D5
		        psgNote  D5
		        psgNote  D5
		        psgNote  D5
		        psgNote  D5
		        psgNote  D5
		        psgNote  D5
		        psgNote  D5
		        psgNote  D5
		        psgNote  D5
		        psgNote  D5
		        psgNote  D5
		        psgNote  D5
		        psgNote  D5
		        psgNote  D5
		        psgNote  D5
		        psgNote  D5
		        psgNote  D5
		        psgNote  D5
		        psgNote  D5
		        psgNote  D5
		        psgNote  D5
		        psgNote  D5
		        psgNote  D5
		        psgNote  D5
		        psgNoteL D5,6
		  psgInst 00h
		        waitL    50
		        waitL    192
		        waitL    48
		  psgInst 07Ch
		        psgNoteL B2,6
		        psgNoteL Cs3,7
		        psgNote  D3
		        psgNote  E3
		        psgNote  D3
		        psgNote  Cs3
		        psgNote  B2
		        psgNoteL Cs3,6
		        psgNoteL D3,7
		        psgNote  E3
		        psgNote  Fs3
		        psgNote  E3
		        psgNote  D3
		        psgNote  Cs3
		        psgNote  D3
		        psgNoteL E3,6
		        psgNoteL Fs3,7
		        psgNote  G3
		        psgNote  Fs3
		        psgNote  E3
		        psgNote  D3
		        psgNote  E3
		        psgNoteL Fs3,6
		        psgNoteL G3,7
		        psgNote  A3
		        psgNote  G3
		        psgNote  Fs3
		        psgNote  E3
		        psgNoteL Fs3,6
		        psgNoteL G3,7
		        psgNote  A3
		        psgNote  B3
		        psgNote  A3
		        psgNote  G3
		        psgNote  Fs3
		        psgNoteL G3,6
		        psgNote  A3
		        psgNote  B3
		        psgNote  Cs4
		        psgNote  D4
		        psgNote  E4
		        psgNote  Fs4
		        psgNoteL G4,7
		  psgInst 07Eh
		        psgNoteL Fs2,4
		        waitL    19
		        psgNoteL Fs2,8
		        psgNote  Fs2
		        psgNote  Fs2
		        psgNoteL Fs2,6
		        waitL    18
		        psgNoteL Fs2,6
		        waitL    18
		        psgNoteL Fs2,6
		        waitL    18
		        psgNoteL Fs2,6
		        waitL    18
		        psgNoteL Gs2,6
		        waitL    18
		        psgNoteL Gs2,8
		        psgNote  Gs2
		        psgNote  Gs2
		        psgNoteL Gs2,6
		        waitL    18
		        psgNoteL Gs2,6
		        waitL    18
		        psgNoteL Gs2,6
		        waitL    18
		        psgNoteL Gs2,6
		        waitL    18
		        psgNoteL G2,6
		        waitL    18
		        psgNoteL G2,8
		        psgNote  G2
		        psgNote  G2
		        psgNoteL G2,6
		        waitL    18
		        psgNoteL G2,6
		        waitL    18
		        psgNoteL G2,6
		        waitL    18
		        psgNoteL G2,6
		        waitL    18
		        psgNoteL Fs2,6
		        waitL    18
		        psgNoteL Fs2,8
		        psgNote  Fs2
		        psgNote  Fs2
		        psgNoteL Fs2,6
		        waitL    18
		        psgNoteL Fs2,6
		        waitL    18
		        psgNoteL Fs2,6
		        waitL    18
		        psgNoteL Fs2,6
		        waitL    18
		        psgNoteL G2,6
		        waitL    18
		        psgNoteL G2,8
		        psgNote  G2
		        psgNote  G2
		        psgNoteL G2,6
		        waitL    18
		        psgNoteL G2,6
		        waitL    18
		        psgNoteL G2,6
		        waitL    18
		        psgNoteL G2,6
		        waitL    18
		        psgNoteL Fs2,6
		        waitL    18
		        psgNoteL Fs2,8
		        psgNote  Fs2
		        psgNote  Fs2
		        psgNoteL Fs2,6
		        waitL    18
		        psgNoteL Fs2,6
		        waitL    18
		        psgNoteL Fs2,6
		        waitL    18
		        psgNoteL Fs2,6
		        waitL    18
		        psgNoteL Gs2,6
		        waitL    18
		        psgNoteL Gs2,8
		        psgNote  Gs2
		        psgNote  Gs2
		        psgNoteL Gs2,6
		        waitL    18
		        psgNoteL Gs2,6
		        waitL    18
		        psgNoteL Gs2,6
		        waitL    18
		        psgNoteL Gs2,6
		        waitL    18
		        psgNoteL G2,6
		        waitL    18
		        psgNoteL G2,8
		        psgNote  G2
		        psgNote  G2
		        psgNoteL G2,6
		        waitL    18
		        psgNoteL G2,6
		        waitL    18
		        psgNoteL G2,6
		        waitL    18
		        psgNoteL G2,6
		        waitL    18
		        psgNoteL A2,6
		        waitL    18
		        psgNoteL A2,8
		        psgNote  A2
		        psgNote  A2
		        psgNoteL A2,6
		        waitL    18
		        psgNoteL A2,6
		        waitL    18
		        psgNoteL A2,6
		        waitL    18
		        psgNoteL A2,6
		        waitL    18
		        psgNoteL B2,6
		        waitL    18
		        psgNoteL B2,8
		        psgNote  B2
		        psgNote  B2
		        psgNoteL B2,6
		        waitL    18
		        psgNoteL B2,6
		        waitL    18
		        psgNoteL B2,6
		        waitL    18
		        psgNoteL B2,6
		        waitL    18
		        psgNoteL A2,6
		        waitL    18
		        psgNoteL A2,8
		        psgNote  A2
		        psgNote  A2
		        psgNoteL A2,6
		        waitL    18
		        psgNoteL A2,6
		        waitL    18
		        psgNoteL A2,6
		        waitL    18
		        psgNoteL A2,6
		        waitL    18
		        psgNoteL A2,6
		        waitL    18
		        psgNoteL A2,8
		        psgNote  A2
		        psgNote  A2
		        psgNoteL D3,96
		  psgInst 00h
		        waitL    144
		        wait
		        wait
		        wait
		  psgInst 07Ch
		        psgNoteL B2,36
		        psgNoteL E2,12
		        psgNoteL E2,24
		        psgNote  B2
		        psgNote  A2
		        psgNote  Gs2
		        psgNoteL Cs3,36
		        psgNoteL E2,12
		        psgNoteL E2,24
		        psgNote  Cs3
		        psgNote  B2
		        psgNote  A2
		        psgNoteL D3,36
		        psgNoteL Fs2,12
		        psgNoteL Fs2,24
		        psgNote  D3
		        psgNote  Cs3
		        psgNote  B2
		        psgNoteL Cs3,48
		        psgNoteL E3,96
		  psgInst 07Ch
		        psgNoteL D3,36
		        psgNoteL A2,12
		        psgNoteL A2,48
		        psgNote  D3
		        psgNoteL D3,36
		        psgNoteL B2,12
		        psgNoteL B2,96
		        psgNoteL Cs3,24
		        psgNote  D3
		        psgNoteL E3,48
		        psgNoteL D3,24
		        psgNote  Cs3
		        psgNoteL D3,48
		        psgNoteL Fs3,96
		        psgNoteL G3,36
		        psgNoteL As2,12
		        psgNoteL As2,48
		        psgNote  G3
		        psgNoteL Fs3,12
		        psgNote  E3
		        psgNote  Fs3
		        psgNote  G3
		        psgNoteL A3,96
		        psgNoteL B3,36
		        psgNoteL E3,12
		        psgNoteL E3,48
		        psgNote  D3
		        psgNoteL Cs3,12
		        psgNote  B2
		        psgNote  Cs3
		        psgNote  D3
		        psgNoteL E3,96
		  psgInst 07Bh
		        psgNoteL A3,12
		        psgNote  D3
		        psgNote  A3
		        psgNote  D3
		        psgNote  A3
		        psgNote  D3
		        psgNote  A3
		        psgNote  D3
		        psgNote  A3
		        psgNote  D3
		        psgNote  A3
		        psgNote  D3
		        psgNote  B3
		        psgNote  E3
		        psgNote  B3
		        psgNote  E3
		        psgNote  B3
		        psgNote  E3
		        psgNote  B3
		        psgNote  E3
		        psgNote  B3
		        psgNote  E3
		        psgNote  B3
		        psgNote  E3
		        psgNote  A3
		        psgNote  E3
		        psgNote  A3
		        psgNote  E3
		        psgNote  A3
		        psgNote  E3
		        psgNote  A3
		        psgNote  E3
		        psgNote  A3
		        psgNote  E3
		        psgNote  A3
		        psgNote  E3
		        psgNoteL Fs3,48
		        psgNoteL B3,96
		  psgInst 07Ch
		        psgNoteL E2,48
		        psgNote  Fs2
		        psgNote  G2
		        psgNote  A2
		        psgNoteL A2,96
		  psgInst 00h
		        waitL    24
		  psgInst 079h
		        psgNoteL Fs4,36
		        psgNoteL D4,12
		        psgNoteL D4,48
		        psgNote  Fs4
		        psgNoteL Fs4,36
		        psgNoteL D4,12
		        psgNoteL D4,240
		        psgNoteL Fs4,36
		        psgNoteL D4,12
		        psgNoteL D4,48
		        psgNote  Fs4
		        psgNoteL Fs4,36
		        psgNoteL D4,12
		        psgNoteL D4,240
		  vibrato 05Ch
		  setRelease 080h
		        psgNote  D5
		  setRelease 01h
		  vibrato 040h
		        psgNoteL D5,48
		        waitL    2
		channel_end
Music_29_Channel_8:
		channel_end
Music_29_Channel_9:
		channel_end
