
; ASM FILE music08.asm :
; 0xB55A..0xB856 : Music 08
Music_8:        db 0
		db 0
		db 0
		db 0BCh
		dw Music_8_Channel_0
		dw Music_8_Channel_1
		dw Music_8_Channel_2
		dw Music_8_Channel_3
		dw Music_8_Channel_4
		dw Music_8_Channel_9
		dw Music_8_Channel_9
		dw Music_8_Channel_9
		dw Music_8_Channel_9
		dw Music_8_Channel_9
Music_8_Channel_0:
		  inst 11
		  vol 0Ah
		  setRelease 01h
		  vibrato 051h
		mainLoopStart
		        noteL Ds6,48
		        note  C6
		        note  D6
		        note  As5
		        note  F6
		        note  D6
		        note  Ds6
		        note  C6
		        note  G6
		        note  E6
		        note  F6
		        note  A6
		        note  As6
		        noteL A6,24
		        note  G6
		        noteL F6,48
		        note  E6
		        noteL F6,36
		        noteL C6,12
		        noteL C6,24
		        note  F6
		        noteL F6,36
		        noteL D6,12
		        noteL D6,48
		        noteL E6,24
		        note  F6
		        note  G6
		        noteL F6,12
		        note  E6
		        noteL F6,24
		        noteL A6,72
		        noteL As5,96
		        noteL A5,36
		        noteL C5,6
		        wait
		        noteL C5,48
		        noteL As5,96
		        noteL A5,36
		        noteL C6,6
		        wait
		        noteL C6,48
		        noteL D6,36
		        noteL B5,12
		        noteL B5,24
		        note  D6
		        noteL E6,36
		        noteL C6,12
		        noteL C6,24
		        note  E6
		        noteL F6,36
		        noteL C6,12
		        note  C6
		        note  F6
		        note  E6
		        note  D6
		        noteL D6,48
		        note  E6
		        noteL F6,36
		        noteL C6,12
		        noteL C6,24
		        note  F6
		        noteL F6,36
		        noteL Cs6,12
		        noteL Cs6,24
		        note  F6
		        noteL F6,36
		        noteL D6,12
		        noteL D6,24
		        note  F6
		        noteL F6,36
		        noteL Cs6,12
		        noteL Cs6,24
		        note  F6
		        noteL F6,96
		        note  F6
		        note  F6
		        noteL F6,48
		        note  E6
		mainLoopEnd
Music_8_Channel_1:
		  inst 11
		  vol 0Ah
		  setRelease 01h
		  vibrato 052h
		mainLoopStart
		        noteL A5,96
		        note  As5
		        note  B5
		        note  C6
		        note  Cs6
		        noteL D6,48
		        note  F6
		        note  G6
		        note  D6
		        noteL C6,96
		        noteL C6,36
		        noteL A5,12
		        noteL A5,24
		        note  C6
		        noteL D6,36
		        noteL As5,12
		        noteL As5,48
		        noteL As5,24
		        note  As5
		        note  E6
		        noteL As5,12
		        note  As5
		        noteL C6,24
		        noteL F6,72
		        noteL F5,96
		        noteL F5,36
		        noteL A4,6
		        wait
		        noteL A4,48
		        noteL F5,96
		        noteL F5,36
		        noteL A5,6
		        wait
		        noteL A5,48
		        noteL B5,36
		        noteL G5,12
		        noteL G5,24
		        note  B5
		        noteL C6,36
		        noteL G5,12
		        noteL G5,24
		        note  C6
		        noteL C6,36
		        noteL A5,12
		        noteL A5,48
		        note  As5
		        note  As5
		        noteL C6,36
		        noteL A5,12
		        noteL A5,24
		        note  C6
		        noteL Cs6,36
		        noteL As5,12
		        noteL As5,24
		        note  Cs6
		        noteL D6,36
		        noteL B5,12
		        noteL B5,24
		        note  D6
		        noteL Cs6,36
		        noteL As5,12
		        noteL As5,24
		        note  Cs6
		        noteL C6,96
		        note  Cs6
		        note  D6
		        noteL C6,48
		        note  C6
		mainLoopEnd
Music_8_Channel_2:
		  inst 11
		  vol 0Ah
		  setRelease 01h
		  vibrato 052h
		mainLoopStart
		        noteL F5,192
		        note  G5
		        noteL A5,144
		        noteL D6,48
		        note  D6
		        noteL As5,24
		        note  B5
		        noteL G5,96
		        noteL A5,36
		        noteL F5,12
		        noteL F5,24
		        note  A5
		        noteL As5,36
		        noteL F5,12
		        noteL F5,48
		        noteL G5,24
		        note  G5
		        note  As5
		        noteL G5,12
		        note  E6
		        noteL A5,24
		        noteL C6,72
		        noteL D5,96
		        noteL C5,36
		        noteL F4,6
		        wait
		        noteL F4,48
		        noteL D5,96
		        noteL C5,36
		        noteL F5,6
		        wait
		        noteL F5,48
		        noteL G5,36
		        noteL D5,12
		        noteL D5,24
		        note  G5
		        noteL G5,36
		        noteL E5,12
		        noteL E5,24
		        note  G5
		        noteL A5,36
		        noteL A5,12
		        noteL F5,48
		        note  G5
		        note  G5
		        noteL A5,36
		        noteL F5,12
		        noteL F5,24
		        note  A5
		        noteL As5,36
		        noteL F5,12
		        noteL F5,24
		        note  As5
		        noteL B5,36
		        noteL F5,12
		        noteL F5,24
		        note  B5
		        noteL As5,36
		        noteL F5,12
		        noteL F5,24
		        note  As5
		        noteL A5,96
		        note  As5
		        note  B5
		        noteL As5,48
		        note  As5
		mainLoopEnd
Music_8_Channel_3:
		  inst 11
		  vol 09h
		  setRelease 01h
		  vibrato 052h
		mainLoopStart
		        noteL F4,12
		        note  Ds5
		        note  C5
		        note  Ds5
		        note  A4
		        note  C5
		        note  F4
		        note  A4
		        note  As4
		        note  F5
		        note  D5
		        note  F5
		        note  As4
		        note  D5
		        note  F4
		        note  As4
		        note  B4
		        note  F5
		        note  D5
		        note  F5
		        note  B4
		        note  D5
		        note  G4
		        note  B4
		        note  C5
		        note  G5
		        note  Ds5
		        note  G5
		        note  C5
		        note  Ds5
		        note  G4
		        note  C5
		        note  Cs5
		        note  G5
		        note  E5
		        note  G5
		        note  Cs5
		        note  E5
		        note  A4
		        note  Cs5
		        note  F5
		        note  A5
		        note  E5
		        note  A5
		        note  D5
		        note  F5
		        note  A4
		        note  D5
		        note  D5
		        note  As5
		        note  A5
		        note  As5
		        note  D5
		        note  F5
		        note  E5
		        note  D5
		        note  E5
		        note  As5
		        note  D5
		        note  F5
		        note  E5
		        note  D5
		        note  As4
		        note  G4
		        wait
		        note  F4
		        note  E4
		        note  F4
		        note  C4
		        note  F4
		        note  E4
		        note  F4
		        wait
		        note  F4
		        note  E4
		        note  F4
		        note  As3
		        note  F4
		        note  D4
		        note  F4
		        wait
		        note  E4
		        note  D4
		        note  E4
		        note  G4
		        note  E4
		        note  As4
		        note  G4
		        note  A4
		        note  F4
		        note  E4
		        note  F4
		        note  C4
		        note  F4
		        note  E4
		        note  F4
		        note  D4
		        note  As4
		        note  Cs4
		        note  As4
		        note  D4
		        note  As4
		        note  E4
		        note  As4
		        note  F4
		        note  F5
		        note  E5
		        note  F5
		        note  C5
		        note  F5
		        note  E5
		        note  F5
		        note  D4
		        note  As4
		        note  Cs4
		        note  As4
		        note  D4
		        note  As4
		        note  E4
		        note  As4
		        note  F4
		        note  F5
		        note  E5
		        note  F5
		        note  C5
		        note  F5
		        note  E5
		        note  F5
		        note  B4
		        note  G4
		        note  D4
		        note  G4
		        note  B4
		        note  G4
		        note  D5
		        note  B4
		        note  C5
		        note  G4
		        note  E4
		        note  G4
		        note  C5
		        note  G4
		        note  E5
		        note  C5
		        note  F5
		        note  C5
		        note  A4
		        note  C5
		        note  F5
		        note  C5
		        note  A5
		        note  F5
		        note  G5
		        note  D5
		        note  As4
		        note  D5
		        note  E5
		        note  As4
		        note  C5
		        note  G4
		        note  F3
		        note  F4
		        note  C4
		        note  F4
		        note  A3
		        note  F4
		        note  C4
		        note  F4
		        note  F3
		        note  F4
		        note  Cs4
		        note  F4
		        note  As3
		        note  F4
		        note  Cs4
		        note  F4
		        note  F3
		        note  F4
		        note  D4
		        note  F4
		        note  B3
		        note  F4
		        note  D4
		        note  F4
		        note  F3
		        note  F4
		        note  Cs4
		        note  F4
		        note  As3
		        note  F4
		        note  Cs4
		        note  F4
		        note  A3
		        note  F4
		        note  E4
		        note  F4
		        note  F3
		        note  F4
		        note  E4
		        note  F4
		        note  As3
		        note  F4
		        note  E4
		        note  F4
		        note  F3
		        note  F4
		        note  E4
		        note  F4
		        note  B3
		        note  F4
		        note  E4
		        note  F4
		        note  F3
		        note  F4
		        note  E4
		        note  F4
		        note  As3
		        note  G4
		        note  E4
		        note  G4
		        note  As3
		        note  E4
		        note  C4
		        note  G3
		mainLoopEnd
Music_8_Channel_4:
		  inst 11
		  vol 0Ch
		  setRelease 01h
		  vibrato 052h
		mainLoopStart
		        noteL A2,24
		        note  G2
		        note  A2
		        note  F2
		        note  As2
		        note  C3
		        note  D3
		        note  As2
		        note  B2
		        note  A2
		        note  B2
		        note  G2
		        note  C3
		        note  D3
		        note  Ds3
		        note  C3
		        note  Cs3
		        note  B2
		        note  Cs3
		        note  A2
		        note  D3
		        note  A2
		        note  F2
		        note  D2
		        note  G2
		        note  A2
		        note  As2
		        note  B2
		        note  C3
		        note  B2
		        note  C3
		        note  As2
		        note  A2
		        note  G2
		        note  A2
		        note  F2
		        note  As2
		        note  A2
		        note  As2
		        note  G2
		        note  C3
		        note  D3
		        note  As2
		        note  G2
		        noteL A2,48
		        note  D2
		        noteL As3,36
		        noteL D3,12
		        note  D3
		        note  As3
		        note  A3
		        note  G3
		        noteL F3,96
		        noteL As3,36
		        noteL D3,12
		        note  D3
		        note  As3
		        note  A3
		        note  G3
		        noteL F3,96
		        note  B2
		        note  As2
		        noteL A2,48
		        note  D3
		        note  G2
		        note  C3
		  sustain
		        noteL F2,192
		  setRelease 01h
		        note  F2
		        noteL A2,36
		        noteL F2,12
		        noteL F2,24
		        note  A2
		        noteL As2,36
		        noteL F2,12
		        noteL F2,24
		        note  As2
		        noteL B2,36
		        noteL G2,12
		        noteL G2,24
		        note  B2
		        noteL C3,48
		        note  As2
		mainLoopEnd
Music_8_Channel_9:
		channel_end
