
; ASM FILE music09.asm :
; 0xB856..0xC076 : Music 09
Music_9:        db 0
		db 0
		db 0
		db 0C8h
		dw Music_9_Channel_0
		dw Music_9_Channel_1
		dw Music_9_Channel_2
		dw Music_9_Channel_3
		dw Music_9_Channel_4
		dw Music_9_Channel_5
		dw Music_9_Channel_6
		dw Music_9_Channel_7
		dw Music_9_Channel_9
		dw Music_9_Channel_9
Music_9_Channel_0:
		        waitL 108
		mainLoopStart
		        waitL 90
		  inst 8
		  vol 0Bh
		  setRelease 01h
		  vibrato 02Ah
		        noteL Fs6,6
		mainLoopStart
		        noteL Fs6,24
		        note  F6
		        note  Fs6
		        note  As6
		        noteL A6,6
		        waitL 12
		        noteL F6,6
		        noteL F6,60
		        waitL 6
		        note  Fs6
		        noteL Fs6,24
		        note  F6
		        note  Fs6
		        note  As6
		        noteL A6,6
		        waitL 12
		        noteL C7,6
		        noteL C7,60
		        waitL 6
		        note  Cs7
		        noteL Cs7,24
		        note  C7
		        note  Cs7
		        note  A6
		        note  Cs7
		        note  C7
		        note  Cs7
		        note  A6
		        noteL Gs6,6
		        waitL 12
		        noteL E6,6
		        noteL E6,156
		        waitL 6
		  inst 26
		  vol 0Ch
		        note  Ds6
		        noteL Ds6,24
		        noteL D6,48
		        noteL Ds6,24
		        noteL D6,48
		        note  As5
		        noteL Cs6,78
		        waitL 12
		        noteL B5,6
		        noteL B5,78
		        waitL 12
		        noteL Ds7,6
		        noteL Ds7,24
		        noteL D7,48
		        noteL Ds7,24
		        noteL D7,48
		        note  As6
		        noteL Cs7,78
		        waitL 12
		        noteL B6,6
		        noteL B6,78
		        waitL 12
		  inst 8
		  vol 0Ch
		        noteL Ds7,6
		        noteL Ds7,24
		        noteL B6,6
		        waitL 12
		        noteL Ds7,6
		        noteL Ds7,24
		        noteL B6,6
		        waitL 12
		        noteL Ds7,6
		        note  Ds7
		        waitL 12
		        noteL Fs7,6
		        noteL F7,144
		        waitL 18
		        noteL Fs6,6
		mainLoopEnd
Music_9_Channel_1:
		        waitL 12
		  inst 19
		  vol 06h
		  setRelease 01h
		  vibrato 02Ah
		        noteL Ds4,6
		        note  D4
		        note  Ds4
		        note  D4
		        note  Ds4
		        note  D4
		        note  Ds4
		        note  D4
		  vol 07h
		        note  Ds4
		        note  D4
		        note  Ds4
		        note  D4
		        note  Ds4
		        note  D4
		        note  Ds4
		        note  D4
		mainLoopStart
		  vol 08h
		        noteL Ds4,6
		        note  D4
		        note  Ds4
		        note  D4
		  vol 09h
		        note  Ds4
		        note  D4
		        note  Ds4
		        note  D4
		  vol 0Ah
		        note  Ds4
		        note  D4
		        note  Ds4
		        note  D4
		  vol 0Bh
		        note  Ds4
		        note  D4
		  vol 0Ch
		        note  Ds4
		        note  D4
		mainLoopStart
		  vol 0Bh
		        noteL Ds4,6
		        note  D4
		        note  Ds4
		        note  D4
		        note  Ds4
		        note  D4
		        note  Ds4
		        note  D4
		        note  Ds4
		        note  D4
		        note  Ds4
		        note  D4
		        note  Ds4
		        note  D4
		        note  Ds4
		        note  D4
		  vol 0Bh
		        note  Ds4
		        note  D4
		        note  Ds4
		        note  D4
		        note  Ds4
		        note  F4
		        note  Fs4
		        note  A4
		        note  As4
		        note  A4
		        note  As4
		        note  A4
		        note  As4
		        note  A4
		        note  Fs4
		        note  F4
		        note  Ds4
		        note  D4
		        note  Ds4
		        note  D4
		        note  Ds4
		        note  D4
		        note  Ds4
		        note  D4
		        note  Ds4
		        note  D4
		        note  Ds4
		        note  D4
		        note  Ds4
		        note  D4
		        note  Ds4
		        note  D4
		        note  Ds4
		        note  D4
		        note  Ds4
		        note  D4
		        note  Ds4
		        note  F4
		        note  Fs4
		        note  A4
		        note  As4
		        note  A4
		        note  As4
		        note  A4
		        note  As4
		        note  C5
		        note  Cs5
		        note  D5
		        waitL 12
		  inst 47
		  vol 0Eh
		        wait
		        noteL Ds6,36
		        waitL 12
		        noteL Ds6,36
		        waitL 12
		        noteL Ds6,36
		        waitL 12
		        noteL Ds6,36
		        waitL 12
		        noteL Ds6,24
		        waitL 12
		  inst 19
		  vol 0Bh
		        noteL Ds4,6
		        note  D4
		        note  Ds4
		        note  D4
		        note  Ds4
		        note  D4
		  vol 0Ah
		        note  Ds4
		        note  D4
		        note  Ds4
		        note  D4
		        note  Ds4
		        note  D4
		        note  Ds4
		        note  D4
		        note  Ds4
		        note  D4
		        note  Ds4
		        note  D4
		        note  Ds4
		        note  D4
		        note  Ds4
		        note  D4
		        note  Ds4
		        note  D4
		        note  Ds4
		        note  D4
		        note  Ds4
		        note  D4
		        note  Ds4
		        note  D4
		        note  Ds4
		        note  D4
		        note  Ds4
		        note  D4
		        note  Ds4
		        note  D4
		        note  Ds4
		        note  D4
		        note  Ds4
		        note  D4
		        note  Ds4
		        note  D4
		        note  Ds4
		        note  D4
		        note  Ds4
		        note  D4
		        note  Ds4
		        note  D4
		        note  Ds4
		        note  D4
		        note  Ds4
		        note  D4
		        note  Ds4
		        note  D4
		        note  Ds4
		        note  D4
		        note  Ds4
		        note  D4
		        note  Ds4
		        note  D4
		        note  Ds4
		        note  D4
		  vol 0Bh
		        note  Ds4
		        note  D4
		        note  Ds4
		        note  D4
		        note  Ds4
		        note  D4
		        note  Ds4
		        note  D4
		  vol 0Ch
		        note  Ds4
		        note  D4
		        note  Ds4
		        note  D4
		  vol 0Dh
		        note  Ds4
		        note  D4
		        note  Ds4
		        note  D4
		  vol 0Ch
		        note  Ds4
		        note  D4
		        note  Ds4
		        note  D4
		  vol 0Bh
		        note  Ds4
		        note  D4
		        note  Ds4
		        note  D4
		  vol 0Ah
		        note  Ds4
		        note  D4
		        note  Ds4
		        note  D4
		        note  Ds4
		        note  D4
		        note  Ds4
		        note  D4
		        note  Ds4
		        note  D4
		        note  Ds4
		        note  D4
		        note  Ds4
		        note  D4
		        note  Ds4
		        note  D4
		        note  Ds4
		        note  D4
		        note  Ds4
		        note  D4
		        note  Ds4
		        note  D4
		        note  Ds4
		        note  D4
		        note  Ds4
		        note  D4
		        note  Ds4
		        note  D4
		        note  Ds4
		        note  D4
		        note  Ds4
		        note  D4
		  vol 0Bh
		        note  Ds4
		        note  D4
		        note  Ds4
		        note  D4
		  vol 0Ch
		        note  Ds4
		        note  D4
		        note  Ds4
		        note  D4
		  vol 0Dh
		        note  Ds4
		        note  D4
		        note  Ds4
		        note  D4
		  vol 0Ch
		        note  Ds4
		        note  D4
		        note  Ds4
		        note  D4
		  vol 0Ah
		        note  Ds4
		        note  D4
		        note  Ds4
		        note  D4
		        note  Ds4
		        note  D4
		        note  Ds4
		        note  D4
		        note  Ds4
		        note  D4
		        note  Ds4
		        note  D4
		        note  Ds4
		        note  D4
		        note  Ds4
		        note  D4
		        waitL 12
		  inst 47
		  vol 0Eh
		        wait
		        noteL Ds6,36
		        waitL 12
		        noteL Ds6,36
		        waitL 12
		        noteL Ds6,24
		        waitL 12
		  inst 19
		  vol 0Bh
		        noteL Ds4,6
		        note  D4
		        note  Ds4
		        note  D4
		        note  Ds4
		        note  D4
		        note  Ds4
		        note  D4
		        note  Ds4
		        note  D4
		        note  Ds4
		        note  D4
		        note  Ds4
		        note  D4
		        note  Ds4
		        note  D4
		        note  Ds4
		        note  D4
		        note  Ds4
		        note  D4
		        note  Ds4
		        note  D4
		mainLoopEnd
Music_9_Channel_2:
		        waitL 12
		  inst 36
		  vol 0Dh
		  setRelease 01h
		  vibrato 02Ch
		        note  Ds3
		        wait
		        note  Ds3
		        wait
		        note  Ds3
		        wait
		        note  Ds3
		        wait
		mainLoopStart
		        noteL Ds3,12
		        wait
		        note  Ds3
		        wait
		        note  Ds3
		        wait
		        note  Ds3
		        wait
		mainLoopStart
		        noteL Ds3,12
		        wait
		        note  Ds3
		        wait
		        note  Ds3
		        wait
		        note  Ds3
		        wait
		        note  Ds3
		        wait
		        note  Ds3
		        wait
		        note  Ds3
		        wait
		        note  Ds3
		        wait
		        note  Ds3
		        wait
		        note  Ds3
		        wait
		        note  Ds3
		        wait
		        note  Ds3
		        wait
		        note  Ds3
		        wait
		        note  Ds3
		        wait
		        note  Ds3
		        wait
		        note  Ds3
		        wait
		  vol 0Eh
		        waitL 24
		        noteL Ds3,12
		        waitL 36
		        noteL Ds3,12
		        waitL 36
		        noteL Ds3,12
		        waitL 36
		        noteL Ds3,12
		        waitL 36
		  vol 0Dh
		        noteL Ds3,12
		        wait
		        note  Ds3
		        wait
		        note  Ds3
		        wait
		        note  Ds3
		        wait
		        note  Ds3
		        wait
		        note  Ds3
		        wait
		        note  Ds3
		        wait
		        note  Ds3
		        wait
		        note  Ds3
		        wait
		        note  Ds3
		        wait
		        note  Ds3
		        wait
		        note  Ds3
		        wait
		        note  Ds3
		        wait
		        note  Ds3
		        wait
		        note  Ds3
		        wait
		        note  Ds3
		        wait
		        note  Ds3
		        wait
		        note  Ds3
		        wait
		        note  Ds3
		        wait
		        note  Ds3
		        wait
		        note  Ds3
		        wait
		        note  Ds3
		        wait
		        note  Ds3
		        wait
		        note  Ds3
		        wait
		        note  Ds3
		        wait
		        note  Ds3
		        wait
		        note  Ds3
		        wait
		        note  Ds3
		        wait
		        note  Ds3
		        wait
		        note  Ds3
		        wait
		        note  Ds3
		        wait
		        note  Ds3
		        wait
		        note  Ds3
		        wait
		        note  Ds3
		        wait
		        note  Ds3
		        wait
		        note  Ds3
		        wait
		        note  Ds3
		        wait
		        note  Ds3
		        wait
		        note  Ds3
		        wait
		        note  C4
		        wait
		        noteL Gs3,8
		        waitL 16
		        noteL C4,24
		        noteL Gs3,8
		        waitL 16
		        noteL C4,12
		        wait
		        note  Ds3
		        wait
		        note  Ds3
		        wait
		        note  Ds3
		        wait
		        note  Ds3
		        wait
		        note  Ds3
		        wait
		        note  Ds3
		        wait
		        note  Ds3
		        wait
		mainLoopEnd
Music_9_Channel_3:
		        waitL 108
		mainLoopStart
		        waitL 90
		  inst 8
		  vol 0Bh
		  setRelease 01h
		  vibrato 02Ah
		        noteL Cs6,6
		mainLoopStart
		        noteL Cs6,24
		        note  C6
		        note  Cs6
		        note  Fs6
		        noteL F6,6
		        waitL 12
		        noteL C6,6
		        noteL C6,60
		        waitL 6
		        note  Cs6
		        noteL Cs6,24
		        note  C6
		        note  Cs6
		        note  Fs6
		        noteL F6,6
		        waitL 12
		        noteL A6,6
		        noteL A6,60
		        waitL 6
		        note  As6
		        noteL As6,24
		        note  A6
		        note  As6
		        note  F6
		        note  As6
		        note  A6
		        note  As6
		        note  F6
		        noteL E6,6
		        waitL 12
		        noteL C6,6
		        noteL C6,156
		        waitL 6
		  inst 26
		  vol 0Ch
		        note  B5
		        noteL B5,24
		        noteL As5,48
		        noteL B5,24
		        noteL As5,48
		        note  Fs5
		        noteL A5,78
		        waitL 12
		        noteL G5,6
		        noteL G5,78
		        waitL 12
		        noteL B6,6
		        noteL B6,24
		        noteL As6,48
		        noteL B6,24
		        noteL As6,48
		        note  Fs6
		        noteL A6,78
		        waitL 12
		        noteL G6,6
		        noteL G6,78
		        waitL 12
		  inst 8
		  vol 0Ch
		        noteL B6,6
		        noteL B6,24
		        noteL G6,6
		        waitL 12
		        noteL B6,6
		        noteL B6,24
		        noteL G6,6
		        waitL 12
		        noteL B6,6
		        note  B6
		        waitL 12
		        noteL D7,6
		        noteL Cs7,144
		        waitL 18
		        noteL Cs6,6
		mainLoopEnd
Music_9_Channel_4:
		        waitL 108
		mainLoopStart
		        waitL 90
		  inst 8
		  vol 0Bh
		  setRelease 01h
		  vibrato 02Ah
		        noteL As5,6
		mainLoopStart
		        noteL As5,24
		        note  A5
		        note  As5
		        note  Cs6
		        noteL C6,6
		        waitL 12
		        noteL A5,6
		        noteL A5,60
		        waitL 6
		        note  As5
		        noteL As5,24
		        note  A5
		        note  As5
		        note  Cs6
		        noteL C6,6
		        waitL 12
		        noteL F6,6
		        noteL F6,60
		        waitL 6
		        note  Fs6
		        noteL Fs6,24
		        note  F6
		        note  Fs6
		        note  D6
		        note  Fs6
		        note  F6
		        note  Fs6
		        note  D6
		        noteL Cs6,6
		        waitL 12
		        noteL A5,6
		        noteL A5,156
		        waitL 6
		  inst 26
		  vol 0Ch
		        note  Fs5
		        noteL Fs5,24
		        noteL F5,48
		        noteL Fs5,24
		        noteL F5,48
		        note  Cs5
		        noteL E5,78
		        waitL 12
		        noteL D5,6
		        noteL D5,78
		        waitL 12
		        noteL Fs6,6
		        noteL Fs6,24
		        noteL F6,48
		        noteL Fs6,24
		        noteL F6,48
		        note  Cs6
		        noteL E6,78
		        waitL 12
		        noteL D6,6
		        noteL D6,78
		        waitL 12
		  inst 8
		  vol 0Ch
		        noteL Fs6,6
		        noteL Fs6,24
		        noteL D6,6
		        waitL 12
		        noteL Fs6,6
		        noteL Fs6,24
		        noteL D6,6
		        waitL 12
		        noteL Fs6,6
		        note  Fs6
		        waitL 12
		        noteL A6,6
		        noteL Gs6,144
		        waitL 18
		        noteL As5,6
		mainLoopEnd
Music_9_Channel_5:
		        sampleL 3,3
		        sample  3
		        sample  3
		        sample  3
		countedLoopStart 1
		        sampleL 1,12
		        sampleL 3,3
		        sample  3
		        sample  3
		        sample  3
		        sampleL 1,12
		        sampleL 3,3
		        sample  3
		        sample  3
		        sample  3
		        sampleL 1,12
		        sampleL 3,3
		        sample  3
		        sample  3
		        sample  3
		        sampleL 1,12
		        sampleL 3,3
		        sample  3
		        sample  3
		        sample  3
		countedLoopEnd
		mainLoopStart
		countedLoopStart 2
		        sampleL 1,12
		        sampleL 3,3
		        sample  3
		        sample  3
		        sample  3
		        sampleL 1,12
		        sampleL 3,3
		        sample  3
		        sample  3
		        sample  3
		        sampleL 1,12
		        sampleL 3,3
		        sample  3
		        sample  3
		        sample  3
		        sampleL 1,12
		        sampleL 3,3
		        sample  3
		        sample  3
		        sample  3
		countedLoopEnd
		        sampleL 1,12
		        sampleL 3,3
		        sample  3
		        sample  3
		        sample  3
		        sampleL 1,12
		        sampleL 3,3
		        sample  3
		        sample  3
		        sample  3
		        sampleL 1,12
		        sampleL 3,3
		        sample  3
		        sample  3
		        sample  3
		        sampleL 1,6
		        sample  1
		        sample  1
		        sample  1
		countedLoopStart 1
		        waitL 12
		        sampleL 3,3
		        sample  3
		        sample  3
		        sample  3
		        sampleL 1,24
		        waitL 12
		        sampleL 3,3
		        sample  3
		        sample  3
		        sample  3
		        sampleL 1,12
		        wait
		countedLoopEnd
		        waitL 12
		        sampleL 3,3
		        sample  3
		        sample  3
		        sample  3
		        sampleL 1,12
		        sampleL 3,3
		        sample  3
		        sample  3
		        sample  3
		        sampleL 1,12
		        sampleL 3,3
		        sample  3
		        sample  3
		        sample  3
		        sampleL 1,12
		        sampleL 3,3
		        sample  3
		        sample  3
		        sample  3
		countedLoopStart 8
		        sampleL 1,12
		        sampleL 3,3
		        sample  3
		        sample  3
		        sample  3
		        sampleL 1,12
		        sampleL 3,3
		        sample  3
		        sample  3
		        sample  3
		        sampleL 1,12
		        sampleL 3,3
		        sample  3
		        sample  3
		        sample  3
		        sampleL 1,12
		        sampleL 3,3
		        sample  3
		        sample  3
		        sample  3
		countedLoopEnd
		        waitL 12
		        sampleL 3,3
		        sample  3
		        sample  3
		        sample  3
		        sampleL 1,24
		        waitL 12
		        sampleL 3,3
		        sample  3
		        sample  3
		        sample  3
		        sampleL 1,12
		        wait
		        wait
		        sampleL 3,3
		        sample  3
		        sample  3
		        sample  3
		        sampleL 1,12
		        sampleL 3,3
		        sample  3
		        sample  3
		        sample  3
		        sampleL 1,12
		        sampleL 3,3
		        sample  3
		        sample  3
		        sample  3
		        sampleL 1,12
		        sampleL 3,3
		        sample  3
		        sample  3
		        sample  3
		        sampleL 1,12
		        sampleL 3,3
		        sample  3
		        sample  3
		        sample  3
		        sampleL 1,12
		        sampleL 3,3
		        sample  3
		        sample  3
		        sample  3
		        sampleL 1,12
		        sampleL 3,3
		        sample  3
		        sample  3
		        sample  3
		        sampleL 1,12
		        sampleL 3,3
		        sample  3
		        sample  3
		        sample  3
		mainLoopEnd
Music_9_Channel_6:
		  psgInst 00h
		        waitL    12
		  setRelease 01h
		  vibrato 04Ch
		        waitL    96
		mainLoopStart
		        waitL    96
		mainLoopStart
		        waitL    96
		        waitL    48
		  psgInst 06Dh
		        psgNoteL C4,12
		        waitL    6
		        psgNote  A3
		  psgInst 06Ch
		        psgNoteL A3,4
		        psgNote  As3
		        psgNote  A3
		        psgNote  As3
		        psgNote  A3
		        psgNote  As3
		        waitL    96
		        waitL    48
		  psgInst 06Eh
		        psgNoteL F4,12
		        waitL    6
		        psgNote  C4
		  psgInst 06Dh
		        psgNoteL C4,4
		        psgNote  Cs4
		        psgNote  C4
		        psgNote  Cs4
		        psgNote  C4
		        psgNote  Cs4
		  setRelease 01h
		        waitL    48
		        psgNoteL Cs4,2
		        psgNoteL Ds4,1
		        psgNoteL F4,2
		        psgNote  Fs4
		        psgNoteL Gs4,1
		        psgNoteL As4,2
		        psgNote  B4
		        psgNoteL Cs5,1
		        psgNoteL Ds5,2
		        psgNoteL F5,1
		        psgNoteL Fs5,2
		        psgNoteL Gs5,1
		        psgNoteL As5,2
		  psgInst 06Eh
		        psgNoteL B5,1
		        psgNoteL Cs6,2
		        waitL    24
		        waitL    48
		  psgInst 06Dh
		        psgNoteL Cs4,2
		        psgNoteL Ds4,1
		        psgNoteL F4,2
		        psgNote  Fs4
		        psgNoteL Gs4,1
		        psgNoteL As4,2
		        psgNote  B4
		        psgNoteL Cs5,1
		        psgNoteL Ds5,2
		        psgNoteL F5,1
		        psgNoteL Fs5,2
		        psgNoteL Gs5,1
		        psgNoteL As5,2
		  psgInst 06Eh
		        psgNoteL B5,1
		        psgNoteL Cs6,2
		        waitL    24
		        waitL    96
		  setRelease 01h
		  psgInst 06Dh
		        psgNoteL As4,6
		        psgNote  D5
		        psgNote  A4
		        psgNote  Cs5
		        psgNote  Gs4
		        psgNote  C5
		        psgNote  G4
		        psgNote  B4
		  psgInst 06Ch
		        psgNote  Fs4
		        psgNote  As4
		        psgNote  F4
		        psgNote  A4
		        psgNote  E4
		        psgNote  Gs4
		        psgNote  Ds4
		        psgNote  G4
		  psgInst 06Bh
		        psgNote  D4
		        psgNote  Fs4
		        psgNote  Cs4
		        psgNote  F4
		        psgNote  C4
		        psgNote  E4
		        psgNote  B3
		        psgNote  Ds4
		        psgNote  As3
		        psgNote  D4
		        psgNote  A3
		        psgNote  Cs4
		        psgNote  Gs3
		        psgNote  C4
		        psgNote  G3
		        psgNote  B3
		        waitL    96
		        waitL    24
		  setRelease 01h
		  psgInst 06Ch
		        psgNoteL D4,3
		        psgNote  Ds4
		        psgNote  E4
		        psgNote  F4
		        psgNote  Fs4
		        psgNote  G4
		        psgNote  Gs4
		        psgNote  A4
		        psgNote  As4
		        psgNote  B4
		        psgNote  C5
		        psgNote  Cs5
		        psgNote  D5
		        psgNote  Ds5
		        psgNote  E5
		        psgNote  F5
		        psgNote  Fs5
		        psgNote  G5
		        psgNote  Gs5
		        psgNote  A5
		        psgNote  As5
		        psgNote  B5
		        psgNote  C6
		        psgNote  Cs6
		        psgNote  D6
		        psgNote  Ds6
		        psgNote  D6
		        psgNote  Cs6
		        psgNote  C6
		        psgNote  B5
		        psgNote  As5
		        psgNote  A5
		        psgNote  Gs5
		        psgNote  G5
		        psgNote  Fs5
		        psgNote  F5
		        psgNote  E5
		        psgNote  Ds5
		        psgNote  D5
		        psgNote  Cs5
		        psgNote  C5
		        psgNote  B4
		        psgNote  As4
		        psgNote  A4
		        psgNote  Gs4
		        psgNote  G4
		        psgNote  Fs4
		        psgNote  F4
		        waitL    24
		        waitL    96
		        wait
		        waitL    24
		        psgNoteL D4,3
		        psgNote  Ds4
		        psgNote  E4
		        psgNote  F4
		        psgNote  Fs4
		        psgNote  G4
		        psgNote  Gs4
		        psgNote  A4
		        psgNote  As4
		        psgNote  B4
		        psgNote  C5
		        psgNote  Cs5
		        psgNote  D5
		        psgNote  Ds5
		        psgNote  E5
		        psgNote  F5
		        psgNote  Fs5
		        psgNote  G5
		        psgNote  Gs5
		        psgNote  A5
		        psgNote  As5
		        psgNote  B5
		        psgNote  C6
		        psgNote  Cs6
		        psgNote  D6
		        psgNote  Ds6
		        psgNote  D6
		        psgNote  Cs6
		        psgNote  C6
		        psgNote  B5
		        psgNote  As5
		        psgNote  A5
		        psgNote  Gs5
		        psgNote  G5
		        psgNote  Fs5
		        psgNote  F5
		        psgNote  E5
		        psgNote  Ds5
		        psgNote  D5
		        psgNote  Cs5
		        psgNote  C5
		        psgNote  B4
		        psgNote  As4
		        psgNote  A4
		        psgNote  Gs4
		        psgNote  G4
		        psgNote  Fs4
		        psgNote  F4
		        waitL    24
		        waitL    12
		  psgInst 06Dh
		        psgNoteL B4,2
		        psgNote  Cs5
		        psgNote  Ds5
		        psgNote  E5
		        psgNote  Fs5
		        psgNote  Gs5
		  psgInst 06Eh
		        psgNote  As5
		        psgNoteL B5,4
		  psgInst 06Dh
		        waitL    32
		        psgNoteL B4,2
		        psgNote  Cs5
		        psgNote  Ds5
		        psgNote  E5
		        psgNote  Fs5
		        psgNote  Gs5
		  psgInst 06Eh
		        psgNote  As5
		        psgNote  B5
		        waitL    18
		  psgInst 06Dh
		        psgNoteL Ds4,12
		        waitL    6
		        psgNote  Fs4
		  psgInst 06Ch
		        psgNoteL F4,4
		        psgNote  Fs4
		        psgNote  F4
		        psgNote  Fs4
		        psgNote  F4
		        psgNote  Fs4
		        psgNote  F4
		        psgNote  Fs4
		        psgNote  F4
		        psgNote  Fs4
		        psgNote  F4
		        psgNote  Fs4
		        psgNote  F4
		        psgNote  Fs4
		        psgNote  F4
		        psgNote  Fs4
		        psgNote  F4
		        psgNote  Fs4
		        psgNote  F4
		        psgNote  Fs4
		        psgNote  F4
		        psgNote  Fs4
		        psgNote  F4
		        psgNote  Fs4
		        psgNote  F4
		        psgNote  Fs4
		        psgNote  F4
		        psgNote  Fs4
		        psgNote  F4
		        psgNote  Fs4
		        psgNote  F4
		        psgNote  Fs4
		        psgNote  F4
		        psgNote  Fs4
		        psgNote  F4
		        psgNote  Fs4
		        psgNote  F4
		        psgNote  Fs4
		        psgNote  F4
		        psgNote  Fs4
		        psgNote  F4
		        psgNote  Fs4
		mainLoopEnd
Music_9_Channel_7:
		  psgInst 00h
		        waitL    12
		  setRelease 01h
		  vibrato 04Ch
		        waitL    96
		mainLoopStart
		        waitL    96
		mainLoopStart
		        waitL    96
		        waitL    48
		  psgInst 06Dh
		        psgNoteL A3,12
		        waitL    6
		        psgNote  F3
		  psgInst 06Ch
		        psgNoteL F3,3
		        psgNote  Fs3
		        psgNote  F3
		        psgNote  Fs3
		        psgNote  F3
		        psgNote  Fs3
		        psgNote  F3
		        psgNote  Fs3
		        waitL    96
		        waitL    48
		  psgInst 06Eh
		        psgNoteL C4,12
		        waitL    6
		        psgNote  A3
		  psgInst 06Dh
		        psgNoteL A3,3
		        psgNote  As3
		        psgNote  A3
		        psgNote  As3
		        psgNote  A3
		        psgNote  As3
		        psgNote  A3
		        psgNote  As3
		  setRelease 01h
		        waitL    48
		        psgNoteL Cs3,2
		        psgNoteL Ds3,1
		        psgNoteL F3,2
		        psgNote  Fs3
		        psgNoteL Gs3,1
		        psgNoteL As3,2
		        psgNote  B3
		        psgNoteL Cs4,1
		        psgNoteL Ds4,2
		        psgNoteL F4,1
		        psgNoteL Fs4,2
		        psgNoteL Gs4,1
		        psgNoteL As4,2
		  psgInst 06Eh
		        psgNoteL B4,1
		        psgNoteL Cs5,2
		        waitL    24
		        waitL    48
		  psgInst 06Dh
		        psgNoteL Cs3,2
		        psgNoteL Ds3,1
		        psgNoteL F3,2
		        psgNote  Fs3
		        psgNoteL Gs3,1
		        psgNoteL As3,2
		        psgNote  B3
		        psgNoteL Cs4,1
		        psgNoteL Ds4,2
		        psgNoteL F4,1
		        psgNoteL Fs4,2
		        psgNoteL Gs4,1
		        psgNoteL As4,2
		  psgInst 06Eh
		        psgNoteL B4,1
		        psgNoteL Cs5,2
		        waitL    24
		        waitL    96
		  setRelease 01h
		  psgInst 06Dh
		        psgNoteL Fs4,6
		        psgNote  As4
		        psgNote  F4
		        psgNote  A4
		        psgNote  E4
		        psgNote  Gs4
		        psgNote  Ds4
		        psgNote  G4
		  psgInst 06Ch
		        psgNote  D4
		        psgNote  Fs4
		        psgNote  Cs4
		        psgNote  F4
		        psgNote  C4
		        psgNote  E4
		        psgNote  B3
		        psgNote  Ds4
		  psgInst 06Bh
		        psgNote  As3
		        psgNote  D4
		        psgNote  A3
		        psgNote  Cs4
		        psgNote  Gs3
		        psgNote  C4
		        psgNote  G3
		        psgNote  B3
		        psgNote  Fs3
		        psgNote  As3
		        psgNote  F3
		        psgNote  A3
		        psgNote  E3
		        psgNote  Gs3
		        psgNote  Ds3
		        psgNote  G3
		        waitL    96
		        waitL    23
		  setRelease 01h
		  shifting 020h
		  psgInst 06Ch
		        psgNoteL D4,3
		        psgNote  Ds4
		        psgNote  E4
		        psgNote  F4
		        psgNote  Fs4
		        psgNote  G4
		        psgNote  Gs4
		        psgNote  A4
		        psgNote  As4
		        psgNote  B4
		        psgNote  C5
		        psgNote  Cs5
		        psgNote  D5
		        psgNote  Ds5
		        psgNote  E5
		        psgNote  F5
		        psgNote  Fs5
		        psgNote  G5
		        psgNote  Gs5
		        psgNote  A5
		        psgNote  As5
		        psgNote  B5
		        psgNote  C6
		        psgNote  Cs6
		        psgNote  D6
		        psgNote  Ds6
		        psgNote  D6
		        psgNote  Cs6
		        psgNote  C6
		        psgNote  B5
		        psgNote  As5
		        psgNote  A5
		        psgNote  Gs5
		        psgNote  G5
		        psgNote  Fs5
		        psgNote  F5
		        psgNote  E5
		        psgNote  Ds5
		        psgNote  D5
		        psgNote  Cs5
		        psgNote  C5
		        psgNote  B4
		        psgNote  As4
		        psgNote  A4
		        psgNote  Gs4
		        psgNote  G4
		        psgNote  Fs4
		        psgNote  F4
		        waitL    25
		        waitL    96
		        wait
		        waitL    23
		        psgNoteL D3,3
		        psgNote  Ds3
		        psgNote  E3
		        psgNote  F3
		        psgNote  Fs3
		        psgNote  G3
		        psgNote  Gs3
		        psgNote  A3
		        psgNote  As3
		        psgNote  B3
		        psgNote  C4
		        psgNote  Cs4
		        psgNote  D4
		        psgNote  Ds4
		        psgNote  E4
		        psgNote  F4
		        psgNote  Fs4
		        psgNote  G4
		        psgNote  Gs4
		        psgNote  A4
		        psgNote  As4
		        psgNoteL B4,4
		        psgNoteL C5,3
		        psgNote  Cs5
		        psgNote  D5
		        psgNote  Ds5
		        psgNote  D5
		        psgNote  Cs5
		        psgNote  C5
		        psgNote  B4
		        psgNote  As4
		        psgNote  A4
		        psgNote  Gs4
		        psgNote  G4
		        psgNote  Fs4
		        psgNote  F4
		        psgNote  E4
		        psgNote  Ds4
		        psgNote  D4
		        psgNote  Cs4
		        psgNote  C4
		        psgNote  B3
		        psgNote  As3
		        psgNote  A3
		        psgNote  Gs3
		        psgNote  G3
		        psgNote  Fs3
		        psgNote  F3
		        waitL    24
		        waitL    12
		  psgInst 06Dh
		        psgNoteL B3,2
		        psgNote  Cs4
		        psgNote  Ds4
		        psgNote  E4
		        psgNote  Fs4
		        psgNote  Gs4
		  psgInst 06Eh
		        psgNote  As4
		        psgNoteL B4,4
		        waitL    32
		  psgInst 06Dh
		        psgNoteL B3,2
		        psgNote  Cs4
		        psgNote  Ds4
		        psgNote  E4
		        psgNote  Fs4
		        psgNote  Gs4
		  psgInst 06Eh
		        psgNote  As4
		        psgNote  B4
		        waitL    18
		  psgInst 06Dh
		        psgNoteL B3,12
		        waitL    6
		        psgNoteL D4,5
		  psgInst 06Ch
		        psgNoteL Cs4,3
		        psgNote  D4
		        psgNote  Cs4
		        psgNote  D4
		        psgNote  Cs4
		        psgNote  D4
		        psgNote  Cs4
		        psgNote  D4
		        psgNote  Cs4
		        psgNote  D4
		        psgNote  Cs4
		        psgNote  D4
		        psgNote  Cs4
		        psgNote  D4
		        psgNote  Cs4
		        psgNote  D4
		        psgNote  Cs4
		        psgNote  D4
		        psgNote  Cs4
		        psgNote  D4
		        psgNote  Cs4
		        psgNote  D4
		        psgNote  Cs4
		        psgNote  D4
		        psgNote  Cs4
		        psgNote  D4
		        psgNote  Cs4
		        psgNote  D4
		        psgNote  Cs4
		        psgNote  D4
		        psgNote  Cs4
		        psgNote  D4
		        psgNote  Cs4
		        psgNote  D4
		        psgNote  Cs4
		        psgNote  D4
		        psgNote  Cs4
		        psgNote  D4
		        psgNote  Cs4
		        psgNote  D4
		        psgNote  Cs4
		        psgNote  D4
		        psgNote  Cs4
		        psgNote  D4
		        psgNote  Cs4
		        psgNote  D4
		        psgNote  Cs4
		        psgNote  D4
		        psgNote  Cs4
		        psgNote  D4
		        psgNote  Cs4
		        psgNoteL D4,4
		        psgNoteL Cs4,3
		        psgNote  D4
		        psgNote  Cs4
		        psgNote  D4
		mainLoopEnd
Music_9_Channel_9:
		channel_end
