
; ASM FILE music06.asm :
; 0x9E7F..0xAF67 : Music 06
Music_6:        db 0
		db 0
		db 0
		db 0BFh
		dw Music_6_Channel_0
		dw Music_6_Channel_1
		dw Music_6_Channel_2
		dw Music_6_Channel_3
		dw Music_6_Channel_4
		dw Music_6_Channel_5
		dw Music_6_Channel_6
		dw Music_6_Channel_7
		dw Music_6_Channel_9
		dw Music_6_Channel_9
Music_6_Channel_0:
		  stereo 080h
		  inst 37
		  vol 0Eh
		  setRelease 01h
		  vibrato 02Ch
		        noteL G3,24
		        waitL 48
		        noteL G3,4
		        note  G3
		        note  G3
		        noteL G3,12
		        waitL 24
		        noteL G3,12
		        note  C4
		        note  G3
		        note  C4
		        waitL 24
		  stereo 0C0h
		mainLoopStart
		  inst 44
		  setRelease 00h
		  vol 0Bh
		countedLoopStart 1
		        waitL 18
		        noteL F7,1
		        note  G7
		        note  Gs7
		        note  As7
		        note  C8
		        note  D8
		        note  E8
		        noteL F8,5
		        waitL 66
		countedLoopEnd
		        waitL 96
		        noteL D6,6
		        wait
		        noteL As5,3
		        wait
		        note  As5
		        wait
		        noteL As5,6
		        wait
		        note  D6
		        wait
		        noteL F6,4
		        note  G6
		        note  F6
		        note  G6
		        note  F6
		        note  G6
		        note  F6
		        note  G6
		        note  F6
		        note  G6
		        note  F6
		        note  G6
		        waitL 48
		        noteL Gs6,6
		        waitL 12
		        noteL F6,6
		        noteL F6,4
		        note  G6
		        note  F6
		        note  G6
		        note  F6
		        note  G6
		        waitL 48
		        noteL As6,6
		        waitL 12
		        noteL G6,6
		        noteL G6,4
		        note  Gs6
		        note  G6
		        note  Gs6
		        note  G6
		        note  Gs6
		        waitL 48
		        noteL B6,6
		        waitL 12
		        noteL Gs6,6
		        noteL Gs6,24
		        noteL C7,4
		        note  Cs7
		        note  C7
		        note  Cs7
		        note  C7
		        note  Cs7
		        note  C7
		        note  Cs7
		        note  C7
		        note  Cs7
		        note  C7
		        note  Cs7
		        noteL C6,2
		        note  D6
		        note  E6
		        note  F6
		        note  G6
		        note  A6
		        note  B6
		        note  C7
		        note  D7
		        note  E7
		        note  F7
		        note  G7
		        note  A7
		        noteL B7,3
		        noteL C8,4
		        waitL 15
		countedLoopStart 1
		        waitL 18
		        noteL F7,1
		        note  G7
		        note  Gs7
		        note  As7
		        note  C8
		        note  D8
		        note  E8
		        noteL F8,5
		        waitL 66
		countedLoopEnd
		        waitL 96
		        waitL 48
		        noteL D6,6
		        wait
		        noteL As5,3
		        wait
		        note  As5
		        wait
		        noteL As5,6
		        wait
		        note  D6
		        wait
		        noteL F6,4
		        waitL 8
		        noteL Gs5,6
		        note  Cs6
		        noteL Gs6,3
		        note  As6
		        note  Gs6
		        note  As6
		        note  Gs6
		        note  As6
		        note  Gs6
		        note  As6
		        note  Gs6
		        note  As6
		        note  Gs6
		        note  As6
		        note  Gs6
		        note  As6
		        note  Gs6
		        note  As6
		        noteL F6,24
		        noteL G6,4
		        waitL 8
		        noteL As5,6
		        note  Ds6
		        noteL As6,3
		        note  C7
		        note  As6
		        note  C7
		        note  As6
		        note  C7
		        note  As6
		        note  C7
		        note  As6
		        note  C7
		        note  As6
		        note  C7
		        note  As6
		        note  C7
		        note  As6
		        note  C7
		        noteL G6,24
		        noteL A6,3
		        note  As6
		        note  A6
		        note  As6
		        note  A6
		        note  As6
		        note  A6
		        note  As6
		        note  A6
		        note  As6
		        note  A6
		        note  As6
		        note  A6
		        note  As6
		        note  A6
		        note  As6
		        note  A6
		        note  As6
		        note  A6
		        note  As6
		        note  A6
		        note  As6
		        note  A6
		        note  As6
		        note  A6
		        note  As6
		        note  A6
		        note  As6
		        note  A6
		        note  As6
		        note  A6
		        note  As6
		        note  A6
		        note  As6
		        note  A6
		        note  As6
		        note  A6
		        note  As6
		        note  A6
		        note  As6
		        note  A6
		        note  As6
		        note  A6
		        note  As6
		        note  A6
		        note  As6
		        note  A6
		        wait
		        noteL F5,2
		        note  G5
		        note  A5
		        note  As5
		        note  C6
		        note  D6
		        note  E6
		        note  F6
		        note  G6
		        note  A6
		        note  As6
		        note  C7
		        note  D7
		        note  E7
		        noteL F7,4
		        waitL 16
		        waitL 96
		        wait
		        waitL 60
		        noteL As5,12
		        note  Ds6
		        note  G6
		        noteL As6,18
		        noteL As6,2
		        note  A6
		        note  Gs6
		        noteL G6,4
		        note  Gs6
		        note  G6
		        note  Gs6
		        note  G6
		        note  Gs6
		        note  G6
		        note  Gs6
		        note  G6
		        note  Gs6
		        note  G6
		        note  Gs6
		        note  G6
		        note  Gs6
		        note  G6
		        note  Gs6
		        note  G6
		        note  Gs6
		        waitL 96
		        waitL 72
		        noteL F5,2
		        note  G5
		        note  Gs5
		        note  As5
		        note  C6
		        noteL Cs6,3
		        noteL Ds6,2
		        note  F6
		        note  G6
		        note  Gs6
		        noteL As6,3
		  setRelease 02h
		        noteL C7,6
		        note  C7
		        note  C7
		        note  C7
		        note  C7
		        waitL 18
		        noteL C7,6
		        note  C7
		        note  C7
		        note  C7
		        note  C7
		        waitL 18
		  setRelease 00h
		        noteL Cs7,4
		        waitL 20
		        noteL Cs7,4
		        note  D7
		        note  Cs7
		        note  D7
		        note  Cs7
		        note  D7
		        note  Cs7
		        note  D7
		        note  Cs7
		        note  D7
		        note  Cs7
		        note  D7
		        note  Cs7
		        note  D7
		        note  Cs7
		        note  D7
		        note  Cs7
		        note  D7
		countedLoopStart 1
		        waitL 18
		        noteL Fs7,1
		        note  Gs7
		        note  A7
		        note  B7
		        note  Cs8
		        note  Ds8
		        note  F8
		        noteL Fs8,5
		        waitL 66
		countedLoopEnd
		        waitL 96
		        noteL Ds6,6
		        wait
		        noteL B5,3
		        wait
		        note  B5
		        wait
		        noteL B5,6
		        wait
		        note  Ds6
		        wait
		        noteL Fs6,4
		        note  Gs6
		        note  Fs6
		        note  Gs6
		        note  Fs6
		        note  Gs6
		        note  Fs6
		        note  Gs6
		        note  Fs6
		        note  Gs6
		        note  Fs6
		        note  Gs6
		        waitL 48
		        noteL A6,6
		        waitL 12
		        noteL Fs6,6
		        noteL Fs6,4
		        note  Gs6
		        note  Fs6
		        note  Gs6
		        note  Fs6
		        note  Gs6
		        waitL 48
		        noteL B6,6
		        waitL 12
		        noteL Gs6,6
		        noteL Gs6,4
		        note  A6
		        note  Gs6
		        note  A6
		        note  Gs6
		        note  A6
		        waitL 48
		        noteL C7,6
		        waitL 12
		        noteL A6,6
		        noteL A6,24
		        noteL Gs6,4
		        note  A6
		        note  Gs6
		        note  A6
		        note  Gs6
		        note  A6
		        note  Gs6
		        note  A6
		        note  Gs6
		        note  A6
		        note  Gs6
		        note  A6
		        noteL Cs6,2
		        note  Ds6
		        note  F6
		        note  Fs6
		        note  Gs6
		        note  As6
		        note  C7
		        note  Cs7
		        note  Ds7
		        note  F7
		        note  Fs7
		        note  Gs7
		        note  As7
		        note  C8
		        noteL Cs8,5
		        waitL 15
		countedLoopStart 1
		        waitL 18
		        noteL Fs7,1
		        note  Gs7
		        note  A7
		        note  B7
		        note  Cs8
		        note  Ds8
		        note  F8
		        noteL Fs8,5
		        waitL 66
		countedLoopEnd
		        waitL 96
		        waitL 48
		        noteL Ds6,6
		        wait
		        noteL B5,3
		        wait
		        note  B5
		        wait
		        noteL B5,6
		        wait
		        note  Ds6
		        wait
		        noteL Fs6,4
		        waitL 8
		        noteL D6,6
		        note  Fs6
		        noteL A6,25
		        noteL D6,1
		        noteL E6,2
		        note  Fs6
		        note  G6
		        note  A6
		        note  B6
		        note  Cs7
		        note  D7
		        note  E7
		        note  Fs7
		        note  G7
		        note  A7
		        note  B7
		        note  Cs8
		        noteL D8,5
		        waitL 15
		        noteL Gs6,4
		        waitL 8
		        noteL E6,6
		        note  Gs6
		        noteL B6,24
		        noteL E6,2
		        note  Fs6
		        note  Gs6
		        note  A6
		        note  B6
		        note  Cs7
		        note  Ds7
		        note  E7
		        note  Fs7
		        note  Gs7
		        note  A7
		        note  B7
		        note  Cs8
		        note  Ds8
		        noteL E8,5
		        waitL 15
		        noteL A6,3
		        waitL 9
		        noteL Fs6,6
		        note  A6
		        noteL Cs7,4
		        note  D7
		        note  Cs7
		        note  D7
		        note  Cs7
		        note  D7
		        note  Cs7
		        note  D7
		        note  Cs7
		        note  D7
		        note  Cs7
		        note  D7
		        note  D7
		        note  Cs7
		        note  D7
		        note  Cs7
		        note  D7
		        note  Cs7
		        note  D7
		        note  Cs7
		        note  D7
		        note  Cs7
		        note  D7
		        note  Cs7
		        note  D7
		        note  Cs7
		        note  D7
		        note  Cs7
		        note  D7
		        note  Cs7
		        waitL 30
		        noteL D6,2
		        note  E6
		        note  Fs6
		        note  G6
		        note  A6
		        note  B6
		        note  Cs7
		        note  D7
		        note  E7
		        noteL Fs7,150
		        waitL 42
		mainLoopEnd
Music_6_Channel_1:
		  inst 36
		  vol 0Dh
		  setRelease 02h
		  vibrato 02Ch
		        noteL G3,12
		        wait
		        note  A3
		        wait
		        note  As3
		        waitL 36
		        noteL C4,6
		        wait
		        note  Cs4
		        waitL 78
		mainLoopStart
		        noteL F3,8
		        waitL 16
		        noteL F3,8
		        waitL 16
		        noteL G3,8
		        waitL 16
		        noteL G3,8
		        waitL 16
		        noteL Gs3,8
		        waitL 16
		        noteL Gs3,8
		        waitL 16
		        noteL G3,8
		        waitL 16
		        noteL G3,8
		        waitL 16
		        noteL F3,8
		        waitL 16
		        noteL F3,8
		        waitL 16
		        noteL Ds3,8
		        waitL 16
		        noteL Ds3,8
		        waitL 16
		        noteL D3,7
		        waitL 16
		        noteL D3,8
		        waitL 16
		        noteL As3,8
		        waitL 17
		        noteL As3,7
		        waitL 17
		        noteL Cs4,8
		        waitL 16
		        noteL Cs4,8
		        waitL 16
		        noteL Cs4,8
		        waitL 16
		        noteL Cs4,7
		        waitL 17
		        noteL C4,7
		        waitL 16
		        noteL C4,8
		        waitL 16
		        noteL C4,8
		        waitL 17
		        noteL C4,7
		        waitL 17
		        noteL B3,7
		        waitL 16
		        noteL B3,8
		        waitL 16
		        noteL G3,8
		        waitL 17
		        noteL G3,7
		        waitL 17
		        noteL C4,8
		        waitL 16
		        noteL D4,8
		        waitL 16
		        noteL E4,8
		        waitL 16
		        noteL C4,8
		        waitL 16
		        noteL F3,8
		        waitL 16
		        noteL F3,8
		        waitL 16
		        noteL G3,8
		        waitL 16
		        noteL G3,8
		        waitL 16
		        noteL Gs3,8
		        waitL 16
		        noteL Gs3,8
		        waitL 16
		        noteL G3,8
		        waitL 16
		        noteL G3,8
		        waitL 16
		        noteL F3,8
		        waitL 16
		        noteL F3,8
		        waitL 16
		        noteL Ds3,8
		        waitL 16
		        noteL Ds3,8
		        waitL 16
		        noteL D3,8
		        waitL 16
		        noteL D3,8
		        waitL 16
		        noteL As3,8
		        waitL 16
		        noteL As3,8
		        waitL 16
		        noteL Cs4,8
		        waitL 16
		        noteL Cs4,8
		        waitL 16
		        noteL Cs4,8
		        waitL 16
		        noteL Cs4,7
		        waitL 17
		        noteL C4,8
		        waitL 16
		        noteL C4,8
		        waitL 16
		        noteL C4,8
		        waitL 16
		        noteL C4,8
		        waitL 16
		        noteL F3,8
		        waitL 16
		        noteL F3,8
		        waitL 16
		        noteL F3,8
		        waitL 16
		        noteL F3,7
		        waitL 17
		        noteL F3,7
		        waitL 17
		        noteL G3,8
		        waitL 16
		        noteL A3,8
		        waitL 16
		        noteL C4,8
		        waitL 16
		        noteL Cs4,6
		        waitL 12
		        noteL Cs4,3
		        wait
		        noteL Cs4,168
		        noteL C4,6
		        waitL 12
		        noteL C4,3
		        wait
		        noteL C4,168
		        noteL As3,12
		        wait
		        note  As3
		        wait
		        note  Gs3
		        wait
		        note  Gs3
		        wait
		        note  G3
		        wait
		        note  G3
		        wait
		        note  F3
		        wait
		        note  F3
		        wait
		        noteL C4,6
		        note  C4
		        note  C4
		        note  C4
		        note  C4
		        waitL 18
		        noteL C4,6
		        note  C4
		        note  C4
		        note  C4
		        note  C4
		        waitL 18
		        noteL Cs4,6
		        waitL 18
		        noteL Cs4,72
		        noteL Fs3,8
		        waitL 16
		        noteL Fs3,8
		        waitL 16
		        noteL Gs3,8
		        waitL 16
		        noteL Gs3,8
		        waitL 16
		        noteL A3,8
		        waitL 16
		        noteL A3,8
		        waitL 16
		        noteL Gs3,8
		        waitL 16
		        noteL Gs3,8
		        waitL 16
		        noteL Fs3,8
		        waitL 16
		        noteL Fs3,8
		        waitL 16
		        noteL E3,8
		        waitL 16
		        noteL E3,8
		        waitL 16
		        noteL Ds3,8
		        waitL 16
		        noteL Ds3,8
		        waitL 16
		        noteL B3,8
		        waitL 16
		        noteL B3,7
		        waitL 17
		        noteL D4,7
		        waitL 17
		        noteL D4,8
		        waitL 16
		        noteL D4,8
		        waitL 16
		        noteL D4,7
		        waitL 17
		        noteL Cs4,8
		        waitL 16
		        noteL Cs4,8
		        waitL 16
		        noteL Cs4,8
		        waitL 16
		        noteL Cs4,8
		        waitL 16
		        noteL C4,8
		        waitL 16
		        noteL C4,8
		        waitL 16
		        noteL Gs3,8
		        waitL 16
		        noteL Gs3,7
		        waitL 17
		        waitL 1
		        noteL Cs4,7
		        waitL 16
		        noteL Ds4,8
		        waitL 16
		        noteL F4,8
		        waitL 16
		        noteL Cs4,7
		        waitL 17
		        waitL 24
		        noteL Fs3,8
		        waitL 40
		        noteL Gs3,8
		        waitL 16
		        waitL 24
		        noteL A3,8
		        waitL 40
		        noteL F3,8
		        waitL 16
		        waitL 24
		        noteL Fs3,8
		        waitL 16
		        noteL E3,8
		        waitL 16
		        noteL E3,8
		        waitL 16
		        noteL B3,8
		        waitL 16
		        noteL B3,8
		        waitL 16
		        noteL B3,8
		        waitL 16
		        noteL B3,8
		        waitL 16
		        noteL D4,8
		        waitL 16
		        noteL D4,8
		        waitL 16
		        noteL D4,8
		        waitL 16
		        noteL D4,7
		        waitL 17
		        noteL Cs4,7
		        waitL 17
		        noteL Cs4,8
		        waitL 16
		        noteL Cs4,8
		        waitL 16
		        noteL Cs4,7
		        waitL 17
		        noteL B3,8
		        waitL 16
		        noteL B3,168
		        noteL Fs4,5
		        waitL 19
		        noteL Cs4,5
		        waitL 19
		        noteL Fs4,5
		        waitL 19
		        noteL Cs4,5
		        waitL 19
		        noteL Fs4,5
		        waitL 19
		        noteL Fs4,6
		        note  Fs4
		        note  Fs4
		        note  Fs4
		        noteL Fs4,5
		        waitL 43
		mainLoopEnd
Music_6_Channel_2:
		  inst 21
		  vol 0Ch
		  setRelease 02h
		  vibrato 02Ch
		        noteL As4,24
		        note  C5
		        note  Cs5
		        wait
		        noteL Ds5,12
		        note  E5
		        waitL 48
		  inst 13
		  vol 0Ch
		        noteL C5,6
		        waitL 12
		        noteL Cs5,6
		mainLoopStart
		        noteL Cs5,48
		        noteL C5,6
		        waitL 18
		        noteL C5,6
		        waitL 12
		        noteL F5,6
		        noteL F5,48
		        noteL C5,6
		        waitL 18
		        noteL C5,6
		        waitL 12
		        noteL G5,6
		        note  Gs5
		        waitL 18
		        noteL C6,42
		        waitL 6
		        noteL C6,24
		        noteL As5,72
		        noteL F5,6
		        waitL 12
		        noteL G5,6
		        note  Gs5
		        waitL 12
		        noteL F5,6
		        noteL F5,48
		        noteL Gs5,24
		        noteL As5,6
		        waitL 12
		        noteL G5,6
		        noteL G5,48
		        noteL As5,24
		        noteL Gs5,6
		        waitL 18
		        noteL B5,48
		        noteL Gs5,18
		        waitL 6
		        noteL G5,72
		        waitL 24
		        waitL 18
		  vol 0Bh
		        noteL C6,6
		        noteL C6,72
		        waitL 18
		        noteL C6,6
		        noteL C6,72
		        waitL 18
		        noteL C6,6
		        noteL C6,48
		        noteL Gs5,24
		        noteL As5,6
		        wait
		        note  F5
		        note  F5
		        note  F5
		        wait
		        note  As5
		        wait
		        noteL D6,42
		        waitL 6
		        note  F5
		        waitL 12
		        noteL F5,6
		        noteL F5,48
		        noteL F5,24
		        noteL Ds5,6
		        waitL 12
		        noteL Ds5,6
		        noteL Ds5,48
		        noteL Ds5,24
		        noteL C5,47
		        waitL 13
		        noteL C5,6
		        note  C5
		        note  F5
		        wait
		        note  As5
		        wait
		        noteL A5,96
		        waitL 60
		  setRelease 01h
		  inst 26
		  vol 0Ch
		        noteL Gs4,12
		        note  Cs5
		        note  F5
		        noteL C6,24
		        noteL As5,12
		        note  C6
		        note  Gs5
		        note  G5
		        note  F5
		        note  As5
		        noteL G5,18
		        noteL Fs5,2
		        note  F5
		        note  E5
		        noteL Ds5,156
		        waitL 12
		        noteL Cs5,6
		        waitL 12
		        noteL F5,6
		        noteL C6,48
		        noteL Gs5,24
		        noteL B5,6
		        wait
		        note  G5
		        note  B5
		        noteL D6,48
		        noteL F6,24
		  setRelease 02h
		  inst 13
		  vol 0Ch
		        noteL E5,6
		        note  E5
		        note  E5
		        note  E5
		        note  E5
		        waitL 18
		        noteL E5,6
		        note  E5
		        note  E5
		        note  E5
		        note  E5
		        waitL 18
		        noteL F5,6
		        waitL 18
		        noteL F5,48
		        noteL Cs5,5
		        waitL 13
		        noteL D5,6
		        noteL D5,48
		        noteL Cs5,6
		        waitL 18
		        noteL Cs5,6
		        waitL 12
		        noteL Fs5,6
		        noteL Fs5,48
		        noteL Cs5,6
		        waitL 18
		        noteL Cs5,6
		        waitL 12
		        noteL Gs5,6
		        note  A5
		        waitL 18
		        noteL Cs6,42
		        waitL 6
		        noteL Cs6,24
		        noteL B5,72
		        noteL Fs5,6
		        waitL 12
		        noteL Gs5,6
		        noteL A5,5
		        waitL 13
		        noteL Fs5,6
		        noteL Fs5,48
		        noteL A5,24
		        noteL B5,6
		        waitL 12
		        noteL Gs5,6
		        noteL Gs5,48
		        noteL B5,24
		        noteL A5,6
		        waitL 18
		        noteL C6,48
		        noteL A5,18
		        waitL 6
		        noteL Gs5,72
		        waitL 24
		        waitL 18
		  vol 0Bh
		        noteL Fs5,6
		        noteL Fs5,4
		        waitL 38
		        noteL F5,6
		        noteL F5,4
		        waitL 20
		        waitL 18
		        noteL Fs5,6
		        noteL Fs5,4
		        waitL 38
		        noteL Gs5,6
		        noteL Gs5,4
		        waitL 20
		        noteL Fs5,11
		        waitL 13
		        noteL A5,48
		        noteL Fs5,24
		        noteL Fs5,6
		        wait
		        note  Ds5
		        note  Ds5
		        noteL Ds5,4
		        waitL 8
		        noteL Fs5,4
		        waitL 8
		        noteL B5,48
		        noteL D5,12
		        wait
		        noteL A4,24
		        note  D5
		        note  Fs5
		        noteL E5,12
		        wait
		        noteL B4,24
		        note  E5
		        note  Gs5
		        noteL A5,48
		        noteL A5,4
		        waitL 8
		        noteL Fs5,6
		        note  A5
		        noteL Cs6,72
		        waitL 24
		        note  B5
		        noteL As5,108
		        waitL 12
		        noteL As5,6
		        note  As5
		        note  As5
		        note  As5
		        note  As5
		        waitL 18
		        noteL C5,6
		        waitL 12
		        noteL Cs5,6
		mainLoopEnd
Music_6_Channel_3:
		  stereo 040h
		  inst 21
		  vol 0Ch
		  setRelease 02h
		  vibrato 02Ch
		        noteL G4,24
		        note  A4
		        note  As4
		        wait
		        noteL C5,12
		        note  Cs5
		        waitL 72
		  stereo 0C0h
		  inst 13
		  vol 0Ch
		mainLoopStart
		        noteL Gs4,48
		        noteL As4,6
		        waitL 18
		        noteL As4,6
		        waitL 12
		        noteL As4,6
		        noteL C5,48
		        noteL As4,6
		        waitL 18
		        noteL As4,6
		        waitL 12
		        noteL As4,6
		        note  Gs4
		        waitL 18
		        noteL F5,42
		        waitL 6
		        noteL F5,24
		        noteL F5,72
		        waitL 18
		        noteL F5,6
		        noteL F5,5
		        waitL 13
		        noteL Gs4,6
		        noteL Gs4,48
		        noteL F5,24
		        noteL G5,6
		        waitL 12
		        noteL C5,6
		        noteL C5,48
		        noteL G5,24
		        noteL F5,6
		        waitL 18
		        noteL Gs5,48
		        noteL D5,18
		        waitL 6
		        noteL E5,72
		        waitL 24
		        waitL 18
		  vol 0Bh
		        noteL F5,6
		        noteL F5,24
		        noteL G5,48
		        waitL 18
		        noteL Gs5,6
		        noteL Gs5,24
		        noteL E5,48
		        waitL 18
		        noteL Gs5,6
		        noteL Gs5,48
		        noteL F5,24
		        noteL F5,6
		        wait
		        note  D5
		        note  D5
		        note  D5
		        wait
		        note  F5
		        wait
		        noteL As5,42
		        waitL 6
		        note  Cs5
		        waitL 12
		        noteL Cs5,6
		        noteL Cs5,48
		        noteL Cs5,24
		        noteL As4,6
		        waitL 12
		        noteL As4,6
		        noteL As4,48
		        noteL As4,24
		        noteL A4,46
		        waitL 14
		        noteL F4,6
		        note  F4
		        note  C5
		        wait
		        note  F5
		        wait
		        noteL F5,96
		        waitL 60
		  setRelease 01h
		  inst 26
		  vol 0Ch
		        noteL F4,12
		        note  Gs4
		        note  Cs5
		        noteL Gs5,24
		        noteL G5,12
		        note  Gs5
		        note  F5
		        note  C5
		        note  C5
		        note  F5
		        noteL Ds5,18
		        noteL D5,2
		        note  C5
		        note  B4
		        noteL As4,156
		        waitL 12
		        noteL Gs4,6
		        waitL 12
		        noteL Cs5,6
		        noteL Gs5,48
		        noteL F5,24
		        noteL G5,6
		        wait
		        note  D5
		        note  G5
		        noteL B5,48
		        noteL D6,24
		  setRelease 02h
		  inst 13
		  vol 0Ch
		        noteL C5,6
		        note  C5
		        note  C5
		        note  C5
		        note  C5
		        waitL 18
		        noteL C5,6
		        note  C5
		        note  C5
		        note  C5
		        note  C5
		        waitL 18
		        noteL Gs4,6
		        waitL 18
		        noteL Gs4,72
		        noteL A4,48
		        noteL B4,6
		        waitL 18
		        noteL B4,6
		        waitL 12
		        noteL B4,6
		        noteL Cs5,48
		        noteL B4,6
		        waitL 18
		        noteL B4,6
		        waitL 12
		        noteL B4,6
		        note  A4
		        waitL 18
		        noteL Fs5,42
		        waitL 6
		        noteL Fs5,24
		        noteL Fs5,72
		        waitL 18
		        noteL Fs5,6
		        noteL Fs5,5
		        waitL 13
		        noteL A4,6
		        noteL A4,48
		        noteL Fs5,24
		        noteL Gs5,6
		        waitL 12
		        noteL Cs5,6
		        noteL Cs5,48
		        noteL Gs5,24
		        noteL Fs5,6
		        waitL 18
		        noteL A5,48
		        noteL Ds5,18
		        waitL 6
		        noteL F5,72
		        waitL 24
		        waitL 18
		  vol 0Bh
		        noteL Cs5,6
		        noteL Cs5,4
		        waitL 38
		        noteL B4,6
		        noteL B4,4
		        waitL 20
		        waitL 18
		        noteL Cs5,6
		        noteL Cs5,4
		        waitL 38
		        noteL F5,6
		        noteL F5,4
		        waitL 20
		        noteL Cs5,11
		        waitL 13
		        noteL Fs5,48
		        noteL Cs5,24
		        noteL Ds5,6
		        wait
		        note  B4
		        note  B4
		        noteL B4,5
		        waitL 7
		        noteL Ds5,5
		        waitL 7
		        noteL Fs5,48
		        noteL A4,12
		        wait
		        noteL Fs4,24
		        note  A4
		        note  D5
		        noteL B4,12
		        wait
		        noteL Gs4,24
		        note  B4
		        note  E5
		        noteL Fs5,96
		        noteL Fs5,4
		        waitL 8
		        noteL D5,6
		        note  Fs5
		        noteL A5,48
		        noteL D5,24
		        noteL Fs5,108
		        waitL 12
		        noteL Fs5,6
		        note  Fs5
		        note  Fs5
		        note  Fs5
		        note  Fs5
		        waitL 42
		mainLoopEnd
Music_6_Channel_4:
		  stereo 080h
		  inst 44
		  vol 0Bh
		  setRelease 01h
		  vibrato 02Ch
		        waitL 96
		        wait
		mainLoopStart
		countedLoopStart 1
		        waitL 18
		        noteL F6,1
		        note  G6
		        note  Gs6
		        note  As6
		        note  C7
		        note  D7
		        note  E7
		        noteL F7,5
		        waitL 66
		countedLoopEnd
		        waitL 96
		        noteL As5,6
		        wait
		        noteL F5,3
		        wait
		        note  F5
		        wait
		        noteL F5,6
		        wait
		        note  As5
		        wait
		        noteL D6,3
		        note  Ds6
		        note  D6
		        note  Ds6
		        note  D6
		        note  Ds6
		        note  D6
		        note  Ds6
		        note  D6
		        note  Ds6
		        note  D6
		        note  E6
		        note  D6
		        note  Ds6
		        note  D6
		        note  Ds6
		        waitL 48
		        noteL F6,6
		        waitL 12
		        noteL Cs6,6
		        noteL Cs6,3
		        note  Ds6
		        note  Cs6
		        note  Ds6
		        note  Cs6
		        note  Ds6
		        note  Cs6
		        note  Ds6
		        waitL 48
		        noteL G6,6
		        waitL 12
		        noteL Ds6,6
		        noteL Ds6,3
		        note  F6
		        note  Ds6
		        note  F6
		        note  Ds6
		        note  F6
		        note  Ds6
		        note  F6
		        waitL 48
		        noteL Gs6,6
		        waitL 12
		        noteL F6,6
		        noteL F6,24
		        noteL G6,3
		        note  Gs6
		        note  G6
		        note  Gs6
		        note  G6
		        note  Gs6
		        note  G6
		        note  Gs6
		        note  G6
		        note  Gs6
		        note  G6
		        note  Gs6
		        note  G6
		        note  Gs6
		        note  G6
		        note  Gs6
		        noteL C5,2
		        note  D5
		        note  E5
		        note  F5
		        note  G5
		        note  A5
		        note  B5
		        note  C6
		        note  D6
		        note  E6
		        note  F6
		        note  G6
		        note  A6
		        noteL B6,3
		        noteL C7,4
		        waitL 15
		countedLoopStart 1
		        waitL 18
		        noteL F6,1
		        note  G6
		        note  Gs6
		        note  As6
		        note  C7
		        note  D7
		        note  E7
		        noteL F7,5
		        waitL 66
		countedLoopEnd
		        waitL 96
		        waitL 48
		        noteL As5,6
		        wait
		        noteL F5,3
		        wait
		        note  F5
		        wait
		        noteL F5,6
		        wait
		        note  As5
		        wait
		        noteL Cs6,4
		        waitL 8
		        noteL F5,6
		        note  Gs5
		        noteL F6,4
		        note  G6
		        note  F6
		        note  G6
		        note  F6
		        note  G6
		        note  F6
		        note  G6
		        note  F6
		        note  G6
		        note  F6
		        note  G6
		        noteL Cs6,24
		        noteL Ds6,3
		        waitL 9
		        noteL G5,6
		        note  As5
		        noteL G6,4
		        note  Gs6
		        note  G6
		        note  Gs6
		        note  G6
		        note  Gs6
		        note  G6
		        note  Gs6
		        note  G6
		        note  Gs6
		        note  G6
		        note  Gs6
		        noteL Ds6,24
		        noteL F6,4
		        note  G6
		        note  F6
		        note  G6
		        note  F6
		        note  G6
		        note  F6
		        note  G6
		        note  F6
		        note  G6
		        note  F6
		        note  G6
		        note  F6
		        note  G6
		        note  F6
		        note  G6
		        note  F6
		        note  G6
		        note  F6
		        note  G6
		        note  F6
		        note  G6
		        note  F6
		        note  G6
		        note  F6
		        note  G6
		        note  F6
		        note  G6
		        note  F6
		        note  G6
		        note  F6
		        note  G6
		        note  F6
		        note  G6
		        note  F6
		        note  G6
		        waitL 48
		        waitL 96
		        wait
		        waitL 60
		        noteL G5,12
		        note  As5
		        note  Ds6
		        noteL Ds6,24
		        noteL Ds6,3
		        note  F6
		        note  Ds6
		        note  F6
		        note  Ds6
		        note  F6
		        note  Ds6
		        note  F6
		        note  Ds6
		        note  F6
		        note  Ds6
		        note  F6
		        note  Ds6
		        note  F6
		        note  Ds6
		        note  F6
		        note  Ds6
		        note  F6
		        note  Ds6
		        note  F6
		        note  Ds6
		        note  F6
		        note  Ds6
		        note  F6
		        waitL 96
		        wait
		  setRelease 02h
		        noteL E6,6
		        note  E6
		        note  E6
		        note  E6
		        note  E6
		        waitL 18
		        noteL E6,6
		        note  E6
		        note  E6
		        note  E6
		        note  E6
		        waitL 18
		  setRelease 00h
		        noteL F6,4
		        waitL 20
		        noteL F6,3
		        note  Fs6
		        note  F6
		        note  Fs6
		        note  F6
		        note  Fs6
		        note  F6
		        note  Fs6
		        note  F6
		        note  Fs6
		        note  F6
		        note  Fs6
		        note  F6
		        note  Fs6
		        note  F6
		        note  Fs6
		        note  F6
		        note  Fs6
		        note  F6
		        note  Fs6
		        note  F6
		        note  Fs6
		        note  F6
		        note  Fs6
		countedLoopStart 1
		        waitL 18
		        noteL Fs6,1
		        note  Gs6
		        note  A6
		        note  B6
		        note  Cs7
		        note  Ds7
		        note  F7
		        noteL Fs7,5
		        waitL 66
		countedLoopEnd
		        waitL 96
		        noteL B5,6
		        wait
		        noteL Fs5,3
		        wait
		        note  Fs5
		        wait
		        noteL Fs5,6
		        wait
		        note  B5
		        wait
		        noteL Ds6,3
		        note  E6
		        note  Ds6
		        note  E6
		        note  Ds6
		        note  E6
		        note  Ds6
		        note  E6
		        note  Ds6
		        note  E6
		        note  Ds6
		        note  F6
		        note  Ds6
		        note  E6
		        note  Ds6
		        note  E6
		        waitL 48
		        noteL Fs6,6
		        waitL 12
		        noteL D6,6
		        noteL D6,3
		        note  E6
		        note  D6
		        note  E6
		        note  D6
		        note  E6
		        note  D6
		        note  E6
		        waitL 48
		        noteL Gs6,6
		        waitL 12
		        noteL E6,6
		        noteL E6,3
		        note  Fs6
		        note  E6
		        note  Fs6
		        note  E6
		        note  Fs6
		        note  E6
		        note  Fs6
		        waitL 48
		        noteL A6,6
		        waitL 12
		        noteL Fs6,6
		        noteL Fs6,24
		        noteL F6,3
		        note  Fs6
		        note  F6
		        note  Fs6
		        note  F6
		        note  Fs6
		        note  F6
		        note  Fs6
		        note  F6
		        note  Fs6
		        note  F6
		        note  Fs6
		        note  F6
		        note  Fs6
		        note  F6
		        note  Fs6
		        noteL Cs5,2
		        note  Ds5
		        note  F5
		        note  Fs5
		        note  Gs5
		        note  As5
		        note  C6
		        note  Cs6
		        note  Ds6
		        note  F6
		        note  Fs6
		        note  Gs6
		        note  As6
		        note  C7
		        noteL Cs7,5
		        waitL 15
		countedLoopStart 1
		        waitL 18
		        noteL Fs6,1
		        note  Gs6
		        note  A6
		        note  B6
		        note  Cs7
		        note  Ds7
		        note  F7
		        noteL Fs7,5
		        waitL 66
		countedLoopEnd
		        waitL 96
		        waitL 48
		        noteL B5,6
		        wait
		        noteL Fs5,3
		        wait
		        note  Fs5
		        wait
		        noteL Fs5,6
		        wait
		        note  B5
		        wait
		        noteL D6,4
		        waitL 8
		        noteL A5,6
		        note  D6
		        noteL Fs6,24
		        noteL D5,2
		        note  E5
		        note  Fs5
		        note  G5
		        note  A5
		        note  B5
		        note  Cs6
		        note  D6
		        note  E6
		        note  Fs6
		        note  G6
		        note  A6
		        note  B6
		        noteL Cs7,3
		        noteL D7,4
		        waitL 15
		        noteL E6,4
		        waitL 8
		        noteL B5,6
		        note  E6
		        noteL Gs6,24
		        noteL E5,2
		        note  Fs5
		        note  Gs5
		        note  A5
		        note  B5
		        note  Cs6
		        note  Ds6
		        note  E6
		        note  Fs6
		        note  Gs6
		        note  A6
		        note  B6
		        note  Cs7
		        noteL Ds7,3
		        noteL E7,4
		        waitL 15
		        noteL Fs6,3
		        waitL 9
		        noteL D6,6
		        noteL Fs6,3
		        wait
		        note  A6
		        note  B6
		        note  A6
		        note  B6
		        note  A6
		        note  B6
		        note  A6
		        note  B6
		        note  A6
		        note  B6
		        note  A6
		        note  B6
		        note  A6
		        note  B6
		        note  A6
		        note  B6
		        note  A6
		        note  B6
		        note  A6
		        note  B6
		        note  A6
		        note  B6
		        note  A6
		        note  B6
		        note  A6
		        note  B6
		        note  A6
		        note  B6
		        note  A6
		        note  B6
		        note  A6
		        note  B6
		        note  A6
		        note  B6
		        note  A6
		        note  B6
		        note  A6
		        note  B6
		        note  A6
		        note  B6
		        noteL D5,2
		        note  E5
		        note  Fs5
		        note  G5
		        note  A5
		        note  B5
		        note  Cs6
		        note  D6
		        note  E6
		        note  Fs6
		        note  G6
		        note  A6
		        note  B6
		        note  Cs7
		        note  D7
		        note  D6
		        note  E6
		        note  Fs6
		        note  G6
		        note  A6
		        note  B6
		        note  Cs7
		        note  D7
		        note  E7
		        noteL As6,150
		        waitL 42
		mainLoopEnd
Music_6_Channel_5:
		        waitL 72
		        sampleL 2,3
		        sample  3
		        sample  3
		        sample  3
		        sampleL 1,12
		        waitL 24
		        sampleL 2,3
		        sample  3
		        sample  3
		        sample  3
		        sampleL 1,12
		        sampleL 2,3
		        sample  3
		        sample  3
		        sample  3
		        sampleL 1,12
		        waitL 24
		mainLoopStart
		countedLoopStart 7
		        sampleL 1,12
		        sampleL 3,3
		        sample  3
		        sample  3
		        sample  3
		        sampleL 1,12
		        sampleL 3,3
		        sample  3
		        sample  3
		        sample  3
		        sampleL 1,12
		        sampleL 3,3
		        sample  3
		        sample  3
		        sample  3
		        sampleL 1,12
		        sample  1
		        sample  1
		        sampleL 3,3
		        sample  3
		        sample  3
		        sample  3
		        sampleL 1,12
		        sampleL 3,3
		        sample  3
		        sample  3
		        sample  3
		        sampleL 1,12
		        sampleL 3,3
		        sample  3
		        sample  3
		        sample  3
		        sampleL 2,6
		        sample  2
		        sample  2
		        sample  2
		countedLoopEnd
		countedLoopStart 1
		        sampleL 1,18
		        sampleL 1,6
		        sampleL 1,3
		        sample  2
		        sample  2
		        sample  3
		        sample  3
		        sample  3
		        sample  3
		        sample  3
		        sample  3
		        sample  3
		        sample  3
		        sample  3
		        sample  3
		        sample  3
		        sample  3
		        sample  3
		        sample  3
		        sample  3
		        sample  3
		        sample  3
		        sample  3
		        sample  3
		        sample  3
		        sample  3
		        sample  3
		        sample  3
		        sample  3
		        sample  3
		        sample  3
		        sample  3
		        sample  3
		        sample  3
		        sample  3
		        sample  3
		        sample  3
		        sample  3
		        sample  3
		        sample  3
		        sample  3
		        sample  3
		        sample  3
		        sample  3
		        sample  3
		        sample  3
		        sample  3
		        sample  3
		        sample  3
		        sample  3
		        sample  3
		        sample  3
		        sample  3
		        sample  3
		        sample  3
		        sample  3
		        sample  3
		        sample  3
		countedLoopEnd
		countedLoopStart 1
		        sampleL 1,12
		        sampleL 3,3
		        sample  3
		        sample  3
		        sample  3
		        sampleL 1,12
		        sampleL 3,3
		        sample  3
		        sample  3
		        sample  3
		        sampleL 1,12
		        sampleL 3,3
		        sample  3
		        sample  3
		        sample  3
		        sampleL 1,12
		        sample  1
		countedLoopEnd
		        sampleL 1,6
		        sample  2
		        sample  2
		        sample  2
		        sampleL 1,24
		        sampleL 1,6
		        sample  2
		        sample  2
		        sample  2
		        sampleL 1,24
		        sample  1
		        sampleL 1,3
		        sample  1
		        sample  2
		        sample  2
		        sample  3
		        sample  3
		        sample  3
		        sample  3
		        sample  3
		        sample  3
		        sample  3
		        sample  3
		        sample  3
		        sample  3
		        sample  3
		        sample  3
		        sampleL 1,6
		        sample  1
		        sample  1
		        sample  1
		countedLoopStart 3
		        sampleL 1,12
		        sampleL 3,3
		        sample  3
		        sample  3
		        sample  3
		        sampleL 1,12
		        sampleL 3,3
		        sample  3
		        sample  3
		        sample  3
		        sampleL 1,12
		        sampleL 3,3
		        sample  3
		        sample  3
		        sample  3
		        sampleL 1,12
		        sample  1
		        sample  1
		        sampleL 3,3
		        sample  3
		        sample  3
		        sample  3
		        sampleL 1,12
		        sampleL 3,3
		        sample  3
		        sample  3
		        sample  3
		        sampleL 1,12
		        sampleL 3,3
		        sample  3
		        sample  3
		        sample  3
		        sampleL 2,6
		        sample  2
		        sample  2
		        sample  2
		countedLoopEnd
		countedLoopStart 1
		        waitL 12
		        sampleL 3,3
		        sample  3
		        sample  3
		        sample  3
		        sampleL 1,12
		        waitL 24
		        sampleL 3,3
		        sample  3
		        sample  3
		        sample  3
		        sampleL 1,12
		        wait
		countedLoopEnd
		        waitL 12
		        sampleL 3,3
		        sample  3
		        sample  3
		        sample  3
		        sampleL 1,12
		        sampleL 3,3
		        sample  3
		        sample  3
		        sample  3
		        sampleL 1,12
		        sampleL 3,3
		        sample  3
		        sample  3
		        sample  3
		        sampleL 1,12
		        sample  1
		        sample  1
		        sampleL 3,3
		        sample  3
		        sample  3
		        sample  3
		        sampleL 1,12
		        sampleL 3,3
		        sample  3
		        sample  3
		        sample  3
		        sampleL 1,12
		        sampleL 3,3
		        sample  3
		        sample  3
		        sample  3
		        sampleL 1,6
		        sample  2
		        sample  2
		        sample  2
		        sampleL 1,12
		        sampleL 3,3
		        sample  3
		        sample  3
		        sample  3
		        sampleL 1,12
		        sampleL 3,3
		        sample  3
		        sample  3
		        sample  3
		        sampleL 1,12
		        sampleL 3,3
		        sample  3
		        sample  3
		        sample  3
		        sampleL 1,12
		        sample  1
		        sample  1
		        sampleL 3,3
		        sample  3
		        sample  3
		        sample  3
		        sampleL 1,12
		        sampleL 3,3
		        sample  3
		        sample  3
		        sample  3
		        sampleL 1,12
		        sampleL 3,3
		        sample  3
		        sample  3
		        sample  3
		        sampleL 1,6
		        sample  2
		        sample  2
		        sample  2
		        sampleL 1,12
		        sampleL 1,6
		        sample  1
		        sampleL 1,3
		        sample  2
		        sample  2
		        sample  2
		        sample  3
		        sample  3
		        sample  3
		        sample  3
		        sample  3
		        sample  3
		        sample  3
		        sample  3
		        sample  3
		        sample  3
		        sample  3
		        sample  3
		        sample  3
		        sample  3
		        sample  3
		        sample  3
		        sample  3
		        sample  3
		        sample  3
		        sample  3
		        sample  3
		        sample  3
		        sample  3
		        sample  3
		        sample  3
		        sample  3
		        sample  3
		        sample  3
		        sample  3
		        sample  3
		        sample  3
		        sample  3
		        sample  3
		        sample  3
		        sample  3
		        sample  3
		        sample  3
		        sample  3
		        sample  3
		        sample  3
		        sample  3
		        sample  3
		        sample  3
		        sample  3
		        sample  3
		        sample  3
		        sample  3
		        sample  3
		        sample  3
		        sample  3
		        sample  3
		        sample  3
		        sampleL 1,12
		        sampleL 3,3
		        sample  3
		        sample  3
		        sample  3
		        sampleL 1,12
		        sampleL 3,3
		        sample  3
		        sample  3
		        sample  3
		        sampleL 1,12
		        sampleL 3,3
		        sample  3
		        sample  3
		        sample  3
		        sampleL 1,12
		        sample  1
		        sample  1
		        sampleL 3,3
		        sample  3
		        sample  3
		        sample  3
		        sampleL 1,6
		        sample  1
		        sample  1
		        sample  1
		        sampleL 1,24
		        wait
		mainLoopEnd
Music_6_Channel_6:
		  ymTimer 0B9h
		  psgInst 06Bh
		  setRelease 01h
		  vibrato 04Ch
		        psgNoteL Cs2,5
		        waitL    19
		        psgNoteL Ds2,6
		        waitL    18
		        psgNoteL E2,6
		        waitL    42
		        psgNoteL Fs2,6
		        wait
		        psgNote  G2
		        waitL    78
		mainLoopStart
		  ymTimer 0C1h
		  psgInst 06Bh
		        psgNoteL Cs3,10
		        waitL    14
		        psgNoteL Cs3,10
		        waitL    14
		        psgNoteL C3,10
		        waitL    14
		        psgNoteL C3,10
		        waitL    14
		        psgNoteL C3,10
		        waitL    14
		        psgNoteL C3,10
		        waitL    14
		        psgNoteL E3,10
		        waitL    14
		        psgNoteL E3,10
		        waitL    14
		        psgNoteL F3,10
		        waitL    14
		        psgNoteL Gs3,48
		        psgNoteL F3,24
		        psgNoteL D3,96
		        psgNoteL Cs3,12
		        wait
		        psgNoteL Gs2,24
		        psgNote  Cs3
		        psgNote  F3
		        psgNoteL Ds3,12
		        wait
		        psgNoteL As2,24
		        psgNote  Ds3
		        psgNote  G3
		        psgNoteL F3,5
		        waitL    13
		        psgNoteL F3,6
		        psgNoteL Gs3,48
		        psgNoteL F3,11
		        waitL    13
		        psgNoteL C4,72
		  psgInst 06Dh
		        psgNoteL C3,8
		        waitL    10
		        psgNoteL Cs3,6
		        psgNoteL Cs3,48
		        psgNoteL C3,6
		        waitL    18
		        psgNoteL C3,6
		        waitL    12
		        psgNoteL F3,6
		        psgNoteL F3,48
		        psgNoteL C3,6
		        waitL    18
		        psgNoteL C3,6
		        waitL    12
		        psgNoteL G3,6
		        psgNote  Gs3
		        waitL    18
		        psgNoteL C4,42
		        waitL    6
		        psgNoteL C4,24
		        psgNoteL As3,72
		        psgNoteL F3,6
		        waitL    12
		        psgNoteL G3,6
		        psgNote  Gs3
		        waitL    12
		        psgNoteL F3,6
		        psgNoteL F3,48
		        psgNoteL Gs3,24
		        psgNoteL G3,5
		        waitL    13
		        psgNoteL Ds3,6
		        psgNoteL Ds3,48
		        psgNoteL G3,24
		        psgNoteL F3,180
		        waitL    12
		  psgInst 06Bh
		        psgNoteL F3,6
		        waitL    12
		        psgNoteL F3,3
		        wait
		        psgNoteL F3,4
		        psgNote  G3
		        psgNote  F3
		        psgNote  G3
		        psgNote  F3
		        psgNote  G3
		        psgNote  F3
		        psgNote  G3
		        psgNote  F3
		        psgNote  G3
		        psgNote  F3
		        psgNote  G3
		        psgNote  F3
		        psgNote  G3
		        psgNote  F3
		        psgNote  G3
		        psgNote  F3
		        psgNote  G3
		        psgNote  F3
		        psgNote  G3
		        psgNote  F3
		        psgNote  G3
		        psgNote  F3
		        psgNote  G3
		        psgNote  F3
		        psgNote  G3
		        psgNote  F3
		        psgNote  G3
		        psgNote  F3
		        psgNote  G3
		        psgNote  F3
		        psgNote  G3
		        psgNote  F3
		        psgNote  G3
		        psgNote  F3
		        psgNote  G3
		        psgNote  F3
		        psgNote  G3
		        psgNote  F3
		        psgNote  G3
		        psgNote  F3
		        psgNote  G3
		        psgNoteL G3,5
		        waitL    13
		        psgNoteL G3,3
		        wait
		        psgNoteL G3,4
		        psgNote  Gs3
		        psgNote  G3
		        psgNote  Gs3
		        psgNote  G3
		        psgNote  Gs3
		        psgNote  G3
		        psgNote  Gs3
		        psgNote  G3
		        psgNote  Gs3
		        psgNote  G3
		        psgNote  Gs3
		        psgNote  G3
		        psgNote  Gs3
		        psgNote  G3
		        psgNote  Gs3
		        psgNote  G3
		        psgNote  Gs3
		        psgNote  G3
		        psgNote  Gs3
		        psgNote  G3
		        psgNote  Gs3
		        psgNote  G3
		        psgNote  Gs3
		        psgNote  G3
		        psgNote  Gs3
		        psgNote  G3
		        psgNote  Gs3
		        psgNote  G3
		        psgNote  Gs3
		        psgNoteL G3,6
		        psgNote  As3
		        psgNote  Ds4
		        psgNote  G4
		        psgNote  As3
		        psgNote  Ds4
		        psgNote  G4
		        psgNote  As4
		        psgNoteL Gs3,24
		        psgNoteL F4,48
		        psgNoteL Gs3,24
		        psgNote  B3
		        psgNoteL F4,48
		        psgNoteL F3,2
		        psgNote  G3
		        psgNote  Gs3
		        psgNote  As3
		        psgNote  C4
		        psgNoteL Cs4,3
		        psgNoteL Ds4,2
		        psgNote  F4
		        psgNote  G4
		        psgNote  Gs4
		        psgNoteL As4,3
		        psgNoteL C5,6
		        psgNote  C5
		        psgNote  C5
		        psgNote  C5
		        psgNote  C5
		        waitL    18
		        psgNoteL C5,6
		        psgNote  C5
		        psgNote  C5
		        psgNote  C5
		        psgNote  C5
		        waitL    18
		        psgNoteL Cs5,6
		        waitL    18
		        psgNoteL Cs5,4
		        psgNote  D5
		        psgNote  Cs5
		        psgNote  D5
		        psgNote  Cs5
		        psgNote  D5
		        psgNote  Cs5
		        psgNote  D5
		        psgNote  Cs5
		        psgNote  D5
		        psgNote  Cs5
		        psgNote  D5
		        psgNote  Cs5
		        psgNote  D5
		        psgNote  Cs5
		        psgNote  D5
		        psgNote  Cs5
		        psgNote  D5
		        psgNoteL D3,9
		        waitL    15
		        psgNoteL D3,10
		        waitL    14
		        psgNoteL Cs3,10
		        waitL    14
		        psgNoteL Cs3,10
		        waitL    14
		        psgNoteL Cs3,10
		        waitL    14
		        psgNoteL Cs3,10
		        waitL    14
		        psgNoteL F3,10
		        waitL    14
		        psgNoteL F3,10
		        waitL    14
		        psgNoteL Fs3,10
		        waitL    14
		        psgNoteL A3,48
		        psgNoteL Fs3,24
		        psgNoteL Ds3,96
		        psgNoteL D3,12
		        wait
		        psgNoteL A2,24
		        psgNote  D3
		        psgNote  Fs3
		        psgNoteL E3,11
		        waitL    13
		        psgNoteL B2,24
		        psgNote  E3
		        psgNote  Gs3
		        psgNoteL Fs3,5
		        waitL    13
		        psgNoteL Fs3,6
		        psgNoteL A3,48
		        psgNoteL Fs3,11
		        waitL    13
		        psgNoteL Cs4,72
		  psgInst 06Dh
		        psgNoteL Cs3,8
		        waitL    10
		        psgNoteL D3,6
		        psgNoteL D3,48
		        psgNoteL Cs3,6
		        waitL    18
		        psgNoteL Cs3,6
		        waitL    12
		        psgNoteL Fs3,6
		        psgNoteL Fs3,48
		        psgNoteL Cs3,6
		        waitL    18
		        psgNoteL Cs3,6
		        waitL    12
		        psgNoteL Gs3,6
		        psgNote  A3
		        waitL    18
		        psgNoteL Cs4,42
		        waitL    6
		        psgNoteL Cs4,24
		        psgNoteL B3,72
		        psgNoteL Fs3,6
		        waitL    12
		        psgNoteL Gs3,6
		        psgNote  A3
		        waitL    12
		        psgNoteL Fs3,6
		        psgNoteL Fs3,48
		        psgNoteL A3,24
		        psgNoteL B3,6
		        waitL    12
		        psgNoteL Gs3,6
		        psgNoteL Gs3,48
		        psgNoteL B3,24
		        psgNoteL Cs4,168
		        psgNoteL Cs3,2
		        psgNote  Ds3
		        psgNote  F3
		        psgNoteL Fs3,3
		        psgNoteL Gs3,2
		        psgNoteL As3,3
		        psgNoteL C4,2
		        psgNoteL Cs4,3
		        psgNoteL Ds4,2
		        psgNoteL F4,3
		        psgNoteL Fs4,120
		        psgNoteL Fs4,6
		        psgNote  Fs4
		        psgNote  Fs4
		        psgNote  Fs4
		        psgNote  Fs4
		        waitL    42
		mainLoopEnd
Music_6_Channel_7:
		  psgInst 06Bh
		  setRelease 01h
		  vibrato 04Ch
		        psgNoteL As1,6
		        waitL    18
		        psgNoteL C2,6
		        waitL    18
		        psgNoteL Cs2,6
		        waitL    42
		        psgNoteL Ds2,6
		        wait
		        psgNote  E2
		        waitL    78
		mainLoopStart
		  psgInst 06Bh
		        psgNoteL F2,10
		        waitL    14
		        psgNoteL F2,10
		        waitL    14
		        psgNoteL E2,10
		        waitL    14
		        psgNoteL E2,10
		        waitL    14
		        psgNoteL F2,10
		        waitL    14
		        psgNoteL F2,10
		        waitL    14
		        psgNoteL As2,10
		        waitL    14
		        psgNoteL As2,10
		        waitL    14
		        psgNoteL Gs2,10
		        waitL    14
		        psgNoteL C3,48
		        psgNoteL Gs2,24
		        psgNoteL As2,96
		        psgNoteL Gs2,12
		        wait
		        psgNoteL F2,24
		        psgNote  Gs2
		        psgNote  Cs3
		        psgNoteL As2,11
		        waitL    13
		        psgNoteL G2,24
		        psgNote  As2
		        psgNote  Ds3
		        psgNoteL D3,6
		        waitL    12
		        psgNoteL D3,6
		        psgNoteL F3,48
		        psgNoteL D3,11
		        waitL    13
		        psgNoteL G3,72
		        waitL    24
		  psgInst 06Dh
		        psgNoteL Gs2,48
		        psgNoteL As2,6
		        waitL    18
		        psgNoteL As2,6
		        waitL    12
		        psgNoteL As2,6
		        psgNoteL C3,48
		        psgNoteL As2,6
		        waitL    18
		        psgNoteL As2,6
		        waitL    12
		        psgNoteL As2,6
		        psgNote  Gs2
		        waitL    18
		        psgNoteL F3,42
		        waitL    6
		        psgNoteL F3,24
		        psgNoteL F3,72
		        psgNoteL F3,6
		        waitL    12
		        psgNoteL F3,6
		        psgNote  F3
		        waitL    12
		        psgNoteL Gs2,6
		        psgNoteL Gs2,48
		        psgNoteL F3,24
		        psgNoteL Ds3,6
		        waitL    12
		        psgNoteL As2,6
		        psgNoteL As2,48
		        psgNoteL Ds3,24
		        psgNoteL C3,72
		        psgNoteL As2,24
		        psgNoteL A2,90
		        waitL    6
		  psgInst 06Bh
		        psgNote  Gs2
		        waitL    12
		        psgNoteL Gs2,3
		        wait
		        psgNote  Gs2
		        psgNote  As2
		        psgNote  Gs2
		        psgNote  As2
		        psgNote  Gs2
		        psgNote  As2
		        psgNote  Gs2
		        psgNote  As2
		        psgNote  Gs2
		        psgNote  As2
		        psgNote  Gs2
		        psgNote  As2
		        psgNote  Gs2
		        psgNote  As2
		        psgNote  Gs2
		        psgNote  As2
		        psgNote  Gs2
		        psgNote  As2
		        psgNote  Gs2
		        psgNote  As2
		        psgNote  Gs2
		        psgNote  As2
		        psgNote  Gs2
		        psgNote  As2
		        psgNote  Gs2
		        psgNote  As2
		        psgNote  Gs2
		        psgNote  As2
		        psgNote  Gs2
		        psgNote  As2
		        psgNote  Gs2
		        psgNote  As2
		        psgNote  Gs2
		        psgNote  As2
		        psgNote  Gs2
		        psgNote  As2
		        psgNote  Gs2
		        psgNote  As2
		        psgNote  Gs2
		        psgNote  As2
		        psgNote  Gs2
		        psgNote  As2
		        psgNote  Gs2
		        psgNote  As2
		        psgNote  Gs2
		        psgNote  As2
		        psgNote  Gs2
		        psgNote  As2
		        psgNote  Gs2
		        psgNote  As2
		        psgNote  Gs2
		        psgNote  As2
		        psgNote  Gs2
		        psgNote  As2
		        psgNote  Gs2
		        psgNote  As2
		        psgNoteL As2,6
		        waitL    12
		        psgNoteL As2,3
		        wait
		        psgNote  As2
		        psgNote  C3
		        psgNote  As2
		        psgNote  C3
		        psgNote  As2
		        psgNote  C3
		        psgNote  As2
		        psgNote  C3
		        psgNote  As2
		        psgNote  C3
		        psgNote  As2
		        psgNote  C3
		        psgNote  As2
		        psgNote  C3
		        psgNote  As2
		        psgNote  C3
		        psgNote  As2
		        psgNote  C3
		        psgNote  As2
		        psgNote  C3
		        psgNote  As2
		        psgNote  C3
		        psgNote  As2
		        psgNote  C3
		        psgNote  As2
		        psgNote  C3
		        psgNote  As2
		        psgNote  C3
		        psgNote  As2
		        psgNote  C3
		        psgNote  As2
		        psgNote  C3
		        psgNote  As2
		        psgNote  C3
		        psgNote  As2
		        psgNote  C3
		        psgNote  As2
		        psgNote  C3
		        psgNote  As2
		        psgNote  C3
		        psgNoteL Ds3,6
		        psgNote  G3
		        psgNote  As3
		        psgNote  Ds4
		        psgNote  G3
		        psgNote  As3
		        psgNote  Ds4
		        psgNote  G4
		        psgNoteL F3,24
		        psgNoteL C4,48
		        psgNoteL F3,24
		        psgNote  G3
		        psgNoteL D4,48
		        psgNoteL G3,2
		        psgNoteL Ds3,3
		        psgNote  F3
		        psgNoteL G3,2
		        psgNoteL Gs3,3
		        psgNote  As3
		        psgNoteL C4,2
		        psgNoteL Cs4,3
		        psgNote  Ds4
		        psgNoteL E4,6
		        psgNote  E4
		        psgNote  E4
		        psgNote  E4
		        psgNote  E4
		        waitL    18
		        psgNoteL E4,6
		        psgNote  E4
		        psgNote  E4
		        psgNote  E4
		        psgNote  E4
		        waitL    18
		        psgNoteL F4,6
		        waitL    18
		        psgNoteL F4,3
		        psgNote  Fs4
		        psgNote  F4
		        psgNote  Fs4
		        psgNote  F4
		        psgNote  Fs4
		        psgNote  F4
		        psgNote  Fs4
		        psgNote  F4
		        psgNote  Fs4
		        psgNote  F4
		        psgNote  Fs4
		        psgNote  F4
		        psgNote  Fs4
		        psgNote  F4
		        psgNote  Fs4
		        psgNote  F4
		        psgNote  Fs4
		        psgNote  F4
		        psgNote  Fs4
		        psgNote  F4
		        psgNote  Fs4
		        psgNote  F4
		        psgNote  Fs4
		        psgNoteL Fs2,10
		        waitL    14
		        psgNoteL Fs2,10
		        waitL    14
		        psgNoteL F2,10
		        waitL    14
		        psgNoteL F2,10
		        waitL    14
		        psgNoteL Fs2,10
		        waitL    14
		        psgNoteL Fs2,10
		        waitL    14
		        psgNoteL B2,10
		        waitL    14
		        psgNoteL B2,10
		        waitL    14
		        psgNoteL A2,10
		        waitL    14
		        psgNoteL Cs3,48
		        psgNoteL A2,24
		        psgNoteL B2,96
		        psgNoteL A2,12
		        wait
		        psgNoteL Fs2,24
		        psgNote  A2
		        psgNote  D3
		        psgNoteL B2,11
		        waitL    13
		        psgNoteL Gs2,24
		        psgNote  B2
		        psgNote  E3
		        psgNoteL Ds3,5
		        waitL    13
		        psgNoteL Ds3,6
		        psgNoteL Fs3,48
		        psgNoteL Ds3,11
		        waitL    13
		        psgNoteL Gs3,72
		  psgInst 06Dh
		        waitL    24
		        psgNoteL A2,48
		        psgNoteL B2,6
		        waitL    18
		        psgNoteL B2,6
		        waitL    12
		        psgNoteL B2,6
		        psgNoteL Cs3,48
		        psgNoteL B2,6
		        waitL    18
		        psgNoteL B2,6
		        waitL    12
		        psgNoteL B2,6
		        psgNote  A2
		        waitL    18
		        psgNoteL Fs3,42
		        waitL    6
		        psgNoteL Fs3,24
		        psgNoteL Fs3,72
		        psgNoteL Fs3,6
		        waitL    12
		        psgNoteL Fs3,6
		        psgNote  Fs3
		        waitL    12
		        psgNoteL D3,6
		        psgNoteL D3,48
		        psgNoteL Fs3,24
		        psgNoteL Gs3,6
		        waitL    12
		        psgNoteL E3,6
		        psgNoteL E3,48
		        psgNoteL Gs3,24
		        psgNoteL A3,48
		        waitL    96
		        psgNoteL B1,2
		        psgNoteL Cs2,3
		        psgNote  D2
		        psgNote  E2
		        psgNote  Fs2
		        psgNoteL G2,2
		        psgNoteL A2,3
		        psgNote  B2
		        psgNoteL Cs3,2
		        psgNoteL D3,3
		        psgNote  B2
		        psgNoteL Cs3,2
		        psgNoteL D3,3
		        psgNote  E3
		        psgNoteL Fs3,2
		        psgNoteL G3,3
		        psgNoteL A3,2
		        psgNoteL B3,3
		        psgNoteL As3,120
		        psgNoteL As3,6
		        psgNote  As3
		        psgNote  As3
		        psgNote  As3
		        psgNoteL As3,5
		        waitL    43
		mainLoopEnd
Music_6_Channel_9:
		channel_end
