
; ASM FILE music02.asm :
; 0x8B1A..0x92A9 : Music 02
Music_2:        db 0
		db 0
		db 0
		db 0C1h
		dw Music_2_Channel_0
		dw Music_2_Channel_1
		dw Music_2_Channel_2
		dw Music_2_Channel_3
		dw Music_2_Channel_4
		dw Music_2_Channel_5
		dw Music_2_Channel_6
		dw Music_2_Channel_7
		dw Music_2_Channel_9
		dw Music_2_Channel_9
Music_2_Channel_4:
		  stereo 040h
		mainLoopStart
		  inst 34
		  vol 0Dh
		  setRelease 02h
		  vibrato 02Ah
		countedLoopStart 11
		        noteL B2,6
		        note  B2
		        note  B2
		        note  B2
		        note  B2
		        note  B2
		        note  B2
		        note  B2
		        note  B2
		        note  B2
		        note  B2
		        note  B2
		        note  B2
		        note  B2
		        note  B2
		        note  B2
		countedLoopEnd
		        noteL Fs3,6
		        waitL 90
		        waitL 96
		        noteL Fs4,4
		        wait
		        note  Fs4
		        wait
		        note  Fs4
		        wait
		        note  G4
		        wait
		        note  Fs4
		        wait
		        note  Fs4
		        waitL 52
		        noteL Cs5,4
		        wait
		        note  Cs5
		        wait
		        note  Cs5
		        wait
		        note  D5
		        wait
		        note  Cs5
		        wait
		        note  Cs5
		        wait
		countedLoopStart 5
		        noteL B2,6
		        note  B2
		        note  B2
		        note  B2
		        note  B2
		        note  B2
		        note  B2
		        note  B2
		        note  B2
		        note  B2
		        note  B2
		        note  B2
		        note  B2
		        note  B2
		        note  B2
		        note  B2
		countedLoopEnd
		        noteL Fs3,6
		        note  Fs3
		        note  Fs3
		        wait
		        note  Fs3
		        note  Fs3
		        note  Fs3
		        wait
		        waitL 12
		        noteL Fs3,6
		        note  Fs3
		        note  Fs3
		        waitL 18
		        noteL Fs3,6
		        note  Fs3
		        note  Fs2
		        waitL 18
		        noteL Fs3,6
		        note  Fs3
		        note  Fs3
		        waitL 42
		mainLoopEnd
Music_2_Channel_1:
		mainLoopStart
		        waitL 96
		        waitL 72
		  inst 13
		  vol 0Bh
		  setRelease 01h
		  vibrato 02Ah
		        noteL B5,6
		        waitL 12
		        noteL D6,3
		        wait
		        noteL D6,48
		        noteL B5,6
		        waitL 18
		        noteL B5,6
		        waitL 12
		        noteL G6,3
		        wait
		        noteL G6,48
		        noteL Fs6,6
		        waitL 18
		        noteL Fs6,6
		        waitL 12
		        noteL B6,3
		        wait
		        noteL B6,24
		        noteL As6,48
		        noteL G6,24
		        noteL Fs6,84
		        waitL 6
		  inst 26
		  vol 0Bh
		        note  F5
		        noteL F5,24
		        noteL Gs5,48
		        noteL F5,24
		        noteL Fs5,84
		        waitL 6
		        note  F5
		        noteL F5,24
		        noteL Gs5,48
		  inst 13
		  vol 0Bh
		        noteL B5,6
		        waitL 12
		        noteL D6,3
		        wait
		        noteL D6,48
		        noteL B5,6
		        waitL 18
		        noteL B5,6
		        waitL 12
		        noteL G6,3
		        wait
		        noteL G6,48
		        noteL Fs6,6
		        waitL 18
		        noteL Fs6,6
		        waitL 12
		        noteL B6,3
		        wait
		        noteL B6,24
		        noteL As6,48
		        noteL Cs7,24
		  inst 16
		  vol 0Bh
		        noteL Fs6,6
		        waitL 2
		        noteL Fs6,6
		        waitL 2
		        noteL Fs6,6
		        waitL 2
		        noteL G6,6
		        waitL 2
		        noteL Fs6,6
		        waitL 2
		        noteL Fs6,6
		        waitL 2
		        noteL As6,6
		        waitL 2
		        noteL Fs6,6
		        waitL 2
		        noteL Fs6,6
		        waitL 2
		        noteL G6,6
		        waitL 2
		        noteL Fs6,6
		        waitL 2
		        noteL Fs6,6
		        waitL 2
		  inst 26
		  vol 0Bh
		  setRelease 03h
		        noteL Cs5,8
		        note  Cs5
		        note  Cs5
		        note  D5
		        note  Cs5
		        note  Cs5
		        note  E5
		        note  Cs5
		        note  Cs5
		        note  D5
		        note  Cs5
		        note  Cs5
		  inst 34
		  vol 0Bh
		        note  Cs5
		        note  Cs5
		        note  Cs5
		        note  Cs5
		        note  Cs5
		        note  Cs5
		  inst 16
		  vol 0Bh
		  setRelease 01h
		        noteL As6,6
		        waitL 2
		        noteL As6,6
		        waitL 2
		        noteL As6,6
		        waitL 2
		        noteL B6,6
		        waitL 2
		        noteL As6,6
		        waitL 2
		        noteL As6,6
		        waitL 2
		  inst 26
		  vol 0Bh
		        noteL G5,8
		        note  G5
		        note  G5
		        note  G5
		        note  G5
		        note  G5
		  inst 13
		  vol 0Bh
		        noteL D6,24
		        noteL B5,46
		        waitL 2
		        noteL D6,24
		        noteL Cs6,72
		        waitL 18
		  inst 26
		  vol 0Bh
		        noteL Fs5,3
		        wait
		        noteL Fs5,24
		        noteL D5,46
		        waitL 2
		        noteL Fs5,24
		        noteL F5,54
		        waitL 36
		  inst 13
		  vol 0Bh
		        noteL D6,3
		        wait
		        noteL D6,24
		        noteL B5,46
		        waitL 2
		        noteL D6,24
		        note  F6
		        noteL Cs6,46
		        waitL 2
		        noteL F6,24
		        noteL Fs6,6
		        note  Fs6
		        noteL Fs6,4
		        waitL 8
		        noteL Fs6,6
		        note  Fs6
		        noteL Fs6,4
		        waitL 8
		        waitL 12
		        noteL Fs6,6
		        note  Fs6
		        noteL Fs6,4
		        waitL 20
		        noteL Fs6,6
		        note  Fs6
		        noteL Fs6,4
		        waitL 20
		        noteL Fs6,6
		        note  Fs6
		        noteL Fs6,4
		        waitL 44
		mainLoopEnd
Music_2_Channel_2:
		mainLoopStart
		        waitL 96
		        wait
		  inst 13
		  vol 0Bh
		  setRelease 01h
		  vibrato 02Ah
		        noteL G5,48
		        noteL Fs5,6
		        waitL 42
		        noteL Cs6,48
		        noteL D6,6
		        waitL 42
		        noteL E6,24
		        noteL E6,48
		        noteL Cs6,24
		        noteL D6,84
		        waitL 6
		  inst 26
		  vol 0Bh
		        note  Cs5
		        noteL Cs5,24
		        noteL F5,48
		        noteL Cs5,24
		        noteL D5,84
		        waitL 6
		        note  Cs5
		        noteL Cs5,24
		        noteL F5,48
		  inst 13
		  vol 0Bh
		        waitL 24
		        noteL As5,48
		        noteL Fs5,6
		        waitL 42
		        noteL Cs6,48
		        noteL D6,6
		        waitL 42
		        noteL E6,24
		        noteL E6,48
		        noteL G6,24
		        waitL 96
		  inst 26
		  vol 0Bh
		  setRelease 03h
		        noteL As4,8
		        note  As4
		        note  As4
		        note  As4
		        note  As4
		        note  As4
		        note  As4
		        note  As4
		        note  As4
		        note  As4
		        note  As4
		        note  As4
		  inst 34
		  vol 0Bh
		        note  As4
		        note  As4
		        note  As4
		        note  As4
		        note  As4
		        note  As4
		        waitL 48
		        noteL Cs5,8
		        note  Cs5
		        note  Cs5
		        note  Cs5
		        note  Cs5
		        note  Cs5
		  inst 13
		  vol 0Bh
		        noteL B5,24
		        noteL Fs5,46
		        waitL 2
		        noteL B5,24
		        noteL Gs5,72
		        waitL 18
		  inst 26
		  vol 0Bh
		        noteL D5,3
		        wait
		        noteL D5,24
		        noteL B4,46
		        waitL 2
		        noteL D5,24
		        noteL Cs5,54
		        waitL 36
		  inst 13
		  vol 0Bh
		        noteL B5,3
		        wait
		        noteL B5,24
		        noteL Fs5,46
		        waitL 2
		        noteL B5,24
		        note  Cs6
		        noteL Gs5,46
		        waitL 2
		        noteL Cs6,24
		        noteL E6,6
		        note  E6
		        noteL E6,4
		        waitL 8
		        noteL E6,6
		        note  E6
		        noteL E6,4
		        waitL 8
		        waitL 12
		        noteL E6,6
		        note  E6
		        noteL E6,4
		        waitL 20
		        noteL E6,6
		        note  E6
		        noteL E6,4
		        waitL 20
		        noteL E6,6
		        note  E6
		        noteL E6,4
		        waitL 44
		mainLoopEnd
Music_2_Channel_3:
		mainLoopStart
		        waitL 96
		        wait
		  inst 13
		  vol 0Bh
		  setRelease 01h
		  vibrato 02Ah
		        noteL E5,48
		        noteL D5,6
		        waitL 42
		        noteL As5,48
		        noteL B5,6
		        waitL 42
		        noteL Cs6,24
		        noteL Cs6,48
		        noteL As5,24
		        noteL B5,84
		        waitL 6
		  inst 26
		  vol 0Bh
		        note  Gs4
		        noteL Gs4,24
		        noteL Cs5,48
		        noteL Gs4,24
		        noteL B4,84
		        waitL 6
		        note  Gs4
		        noteL Gs4,24
		        noteL Cs5,48
		  inst 13
		  vol 0Bh
		        waitL 24
		        noteL E5,48
		        noteL D5,6
		        waitL 42
		        noteL As5,48
		        noteL B5,6
		        waitL 42
		        noteL Cs6,24
		        noteL Cs6,48
		        noteL E6,24
		        waitL 96
		  inst 26
		  vol 0Bh
		  setRelease 03h
		        noteL Fs4,8
		        note  Fs4
		        note  Fs4
		        note  Fs4
		        note  Fs4
		        note  Fs4
		        note  Fs4
		        note  Fs4
		        note  Fs4
		        note  Fs4
		        note  Fs4
		        note  Fs4
		        waitL 96
		        noteL As4,8
		        note  As4
		        note  As4
		        note  As4
		        note  As4
		        note  As4
		  inst 13
		  vol 0Bh
		  setRelease 01h
		        noteL Fs5,24
		        noteL D5,46
		        waitL 2
		        noteL Fs5,24
		        noteL F5,72
		        waitL 18
		  inst 26
		  vol 0Bh
		        noteL B4,3
		        wait
		        noteL B4,24
		        noteL Fs4,46
		        waitL 2
		        noteL B4,24
		        noteL Gs4,46
		        waitL 44
		  inst 27
		        noteL Fs5,3
		        wait
		        noteL Fs5,24
		        noteL D5,46
		        waitL 2
		        noteL Fs5,24
		        note  Gs5
		        noteL F5,46
		        waitL 2
		        noteL Gs5,24
		        noteL C6,6
		        note  C6
		        noteL C6,4
		        waitL 8
		        noteL C6,6
		        note  C6
		        noteL C6,4
		        waitL 8
		        waitL 12
		        noteL C6,6
		        note  C6
		        noteL C6,4
		        waitL 20
		        noteL C6,6
		        note  C6
		        noteL C6,4
		        waitL 20
		        noteL C6,6
		        note  C6
		        noteL C6,4
		        waitL 44
		mainLoopEnd
Music_2_Channel_0:
		  stereo 080h
		  shifting 020h
		        waitL 2
		mainLoopStart
		  inst 34
		  vol 0Ch
		  setRelease 01h
		  vibrato 02Ah
		        noteL B3,6
		        note  As3
		        note  B3
		        note  Cs4
		        note  D4
		        note  Cs4
		        note  B3
		        note  As3
		        note  B3
		        note  As3
		        note  B3
		        note  Cs4
		        note  D4
		        note  Cs4
		        note  B3
		        note  As3
		        note  B3
		        note  As3
		        note  B3
		        note  Cs4
		        note  D4
		        note  Cs4
		        note  B3
		        note  As3
		        note  B3
		        note  As3
		        note  B3
		        note  Cs4
		        note  D4
		        note  Cs4
		        note  B3
		        note  As3
		        note  B3
		        note  As3
		        note  B3
		        note  Cs4
		        note  D4
		        note  Cs4
		        note  B3
		        note  As3
		        note  B3
		        note  As3
		        note  B3
		        note  Cs4
		        note  D4
		        note  Cs4
		        note  B3
		        note  As3
		        note  B3
		        note  As3
		        note  B3
		        note  Cs4
		        note  D4
		        note  Cs4
		        note  B3
		        note  As3
		        note  B3
		        note  As3
		        note  B3
		        note  Cs4
		        note  D4
		        note  Cs4
		        note  B3
		        note  As3
		        note  B3
		        note  As3
		        note  B3
		        note  Cs4
		        note  D4
		        note  Cs4
		        note  B3
		        note  As3
		        note  B3
		        note  As3
		        note  B3
		        note  Cs4
		        note  D4
		        note  Cs4
		        note  B3
		        note  As3
		        note  B3
		        note  As3
		        note  B3
		        note  Cs4
		        note  D4
		        note  Cs4
		        note  B3
		        note  As3
		        note  B3
		        note  As3
		        note  B3
		        note  Cs4
		        note  D4
		        note  Cs4
		        note  B3
		        note  As3
		        note  Cs4
		        note  As3
		        note  B3
		        note  Cs4
		        note  F4
		        note  Cs4
		        note  B3
		        note  As3
		        note  Cs4
		        note  As3
		        note  B3
		        note  Cs4
		        note  F4
		        note  Cs4
		        note  B3
		        note  As3
		        note  B3
		        note  As3
		        note  B3
		        note  Cs4
		        note  D4
		        note  Cs4
		        note  B3
		        note  As3
		        note  B3
		        note  As3
		        note  B3
		        note  Cs4
		        note  D4
		        note  Cs4
		        note  B3
		        note  As3
		        note  Cs4
		        note  As3
		        note  B3
		        note  Cs4
		        note  F4
		        note  Cs4
		        note  B3
		        note  As3
		        note  Cs4
		        note  As3
		        note  B3
		        note  Cs4
		        note  F4
		        note  Cs4
		        note  B3
		        note  As3
		        note  B3
		        note  As3
		        note  B3
		        note  Cs4
		        note  D4
		        note  Cs4
		        note  B3
		        note  As3
		        note  B3
		        note  As3
		        note  B3
		        note  Cs4
		        note  D4
		        note  Cs4
		        note  B3
		        note  As3
		        note  B3
		        note  As3
		        note  B3
		        note  Cs4
		        note  D4
		        note  Cs4
		        note  B3
		        note  As3
		        note  B3
		        note  As3
		        note  B3
		        note  Cs4
		        note  D4
		        note  Cs4
		        note  B3
		        note  As3
		        note  B3
		        note  As3
		        note  B3
		        note  Cs4
		        note  D4
		        note  Cs4
		        note  B3
		        note  As3
		        note  B3
		        note  As3
		        note  B3
		        note  Cs4
		        note  D4
		        note  Cs4
		        note  D4
		        note  E4
		        note  Fs4
		        waitL 90
		        waitL 96
		        noteL Fs5,4
		        wait
		        note  Fs5
		        wait
		        note  Fs5
		        wait
		        note  G5
		        wait
		        note  Fs5
		        wait
		        note  Fs5
		        waitL 52
		        noteL Cs6,4
		        wait
		        note  Cs6
		        wait
		        note  Cs6
		        wait
		        note  D6
		        wait
		        note  Cs6
		        wait
		        note  Cs6
		        wait
		        noteL B3,6
		        note  As3
		        note  B3
		        note  Cs4
		        note  D4
		        note  Cs4
		        note  B3
		        note  As3
		        note  B3
		        note  As3
		        note  B3
		        note  Cs4
		        note  D4
		        note  Cs4
		        note  B3
		        note  As3
		        note  Cs4
		        note  As3
		        note  B3
		        note  Cs4
		        note  F4
		        note  Cs4
		        note  B3
		        note  As3
		        note  Cs4
		        note  As3
		        note  B3
		        note  Cs4
		        note  F4
		        note  Cs4
		        note  B3
		        note  As3
		        note  B3
		        note  As3
		        note  B3
		        note  Cs4
		        note  D4
		        note  Cs4
		        note  B3
		        note  As3
		        note  B3
		        note  As3
		        note  B3
		        note  Cs4
		        note  D4
		        note  Cs4
		        note  B3
		        note  As3
		        note  Cs4
		        note  As3
		        note  B3
		        note  Cs4
		        note  F4
		        note  Cs4
		        note  B3
		        note  As3
		        note  Cs4
		        note  As3
		        note  B3
		        note  Cs4
		        note  F4
		        note  Cs4
		        note  B3
		        note  As3
		        note  B4
		        note  As4
		        note  B4
		        note  Cs5
		        note  D5
		        note  Cs5
		        note  B4
		        note  As4
		        note  B4
		        note  As4
		        note  B4
		        note  Cs5
		        note  D5
		        note  Cs5
		        note  B4
		        note  As4
		        note  Cs5
		        note  As4
		        note  B4
		        note  Cs5
		        note  F5
		        note  Cs5
		        note  B4
		        note  As4
		        note  Cs5
		        note  As4
		        note  B4
		        note  Cs5
		        note  F5
		        note  Cs5
		        note  B4
		        note  As4
		        note  Fs4
		        note  Fs4
		        note  Fs4
		        wait
		        note  Fs4
		        note  Fs4
		        note  Fs4
		        wait
		        waitL 12
		        noteL Fs4,6
		        note  Fs4
		        note  Fs4
		        waitL 18
		        noteL Fs4,6
		        note  Fs4
		        note  Fs3
		        waitL 18
		        noteL Fs4,6
		        note  Fs4
		        note  Fs4
		        waitL 42
		mainLoopEnd
Music_2_Channel_5:
		mainLoopStart
		        sampleL 5,24
		        sample  5
		        sample  5
		        sample  5
		        sample  5
		        sample  5
		        sample  5
		        sample  5
		        sample  5
		        sample  5
		        sample  5
		        sample  5
		        sample  5
		        sample  5
		        sample  5
		        sample  5
		        sample  5
		        sample  5
		        sample  5
		        sample  5
		        sample  5
		        sample  5
		        sample  5
		        sample  5
		        sample  5
		        sample  5
		        sample  5
		        sample  5
		        sample  5
		        sample  5
		        sample  5
		        sample  5
		        sample  5
		        sample  5
		        sample  5
		        sample  5
		        sample  5
		        sample  5
		        sample  5
		        sample  5
		        sample  5
		        sample  5
		        sample  5
		        sample  5
		        sample  5
		        sample  5
		        sample  5
		        sample  5
		        sampleL 6,96
		        sample  6
		        sampleL 6,48
		        sample  6
		        sampleL 6,3
		        sample  6
		        sample  6
		        sample  6
		        sample  6
		        sample  6
		        sample  6
		        sample  6
		        sample  6
		        sample  6
		        sample  6
		        sample  6
		        sample  6
		        sample  6
		        sample  6
		        sample  6
		        sampleL 5,24
		        sample  5
		        sample  5
		        sample  5
		        sample  5
		        sample  5
		        sample  5
		        sample  5
		        sample  5
		        sample  5
		        sample  5
		        sample  5
		        sample  5
		        sample  5
		        sample  5
		        sample  5
		        sample  5
		        sample  5
		        sample  5
		        sample  5
		        sample  5
		        sample  5
		        sample  5
		        sample  5
		        sampleL 6,6
		        sample  6
		        sampleL 6,12
		        sampleL 6,6
		        sample  6
		        sampleL 6,12
		        sample  5
		        sampleL 6,6
		        sample  6
		        sampleL 6,12
		        sample  5
		        sampleL 6,6
		        sample  6
		        sampleL 6,12
		        sample  5
		        sampleL 6,6
		        sample  6
		        sampleL 6,3
		        sample  6
		        sample  6
		        sample  6
		        sample  6
		        sample  6
		        sample  6
		        sample  6
		        sample  6
		        sample  6
		        sample  6
		        sample  6
		        sample  6
		        sample  6
		        sample  6
		        sample  6
		mainLoopEnd
Music_2_Channel_6:
		mainLoopStart
		  psgInst 00h
		  setRelease 00h
		  vibrato 05Ch
		        waitL    96
		        wait
		        waitL    48
		  psgInst 07Bh
		        psgNoteL B4,3
		        psgNote  Cs5
		        psgNote  D5
		        psgNote  E5
		        psgNote  Fs5
		        psgNote  Gs5
		        psgNote  As5
		  psgInst 07Eh
		        psgNote  B5
		  psgInst 00h
		        waitL    24
		        waitL    48
		  psgInst 07Bh
		        psgNoteL B4,3
		        psgNote  Cs5
		        psgNote  D5
		        psgNote  E5
		        psgNote  Fs5
		        psgNote  Gs5
		        psgNote  As5
		  psgInst 07Eh
		        psgNote  B5
		  psgInst 00h
		        waitL    24
		        waitL    96
		        wait
		        wait
		        wait
		        wait
		        waitL    48
		  psgInst 07Bh
		        psgNoteL B4,3
		        psgNote  Cs5
		        psgNote  D5
		        psgNote  E5
		        psgNote  Fs5
		        psgNote  Gs5
		        psgNote  As5
		  psgInst 07Eh
		        psgNote  B5
		  psgInst 00h
		        waitL    24
		        waitL    48
		  psgInst 07Bh
		        psgNoteL B4,3
		        psgNote  Cs5
		        psgNote  D5
		        psgNote  E5
		        psgNote  Fs5
		        psgNote  Gs5
		        psgNote  As5
		  psgInst 07Eh
		        psgNote  B5
		  psgInst 00h
		        waitL    24
		        waitL    96
		  psgInst 0FBh
		        psgNoteL E5,4
		        wait
		        psgNote  E5
		        wait
		        psgNote  E5
		        wait
		        psgNote  E5
		        wait
		        psgNote  E5
		        wait
		        psgNote  E5
		        wait
		        psgNote  E5
		        wait
		        psgNote  E5
		        wait
		        psgNote  E5
		        wait
		        psgNote  E5
		        wait
		        psgNote  E5
		        wait
		        psgNote  E5
		        wait
		  psgInst 00h
		        waitL    96
		        waitL    48
		  psgInst 0FBh
		        psgNoteL Fs5,2
		        waitL    6
		        psgNoteL Fs5,3
		        waitL    5
		        psgNoteL Fs5,3
		        waitL    5
		        psgNoteL Fs5,3
		        waitL    5
		        psgNoteL Fs5,3
		        waitL    5
		        psgNoteL Fs5,4
		        wait
		  psgInst 00h
		        waitL    48
		        waitL    96
		        waitL    90
		  psgInst 07Bh
		        psgNoteL D5,2
		        waitL    4
		        psgNoteL D5,24
		        psgNoteL B4,46
		        waitL    2
		        psgNoteL D5,28
		        psgNoteL F5,3
		        psgNoteL Fs5,4
		        psgNoteL F5,3
		        psgNoteL Fs5,4
		        psgNoteL F5,3
		        psgNoteL Fs5,4
		        psgNoteL F5,3
		        psgNoteL Fs5,4
		        psgNoteL F5,3
		        psgNoteL Fs5,4
		        psgNoteL F5,3
		        psgNoteL Fs5,4
		        psgNoteL F5,3
		        psgNoteL Fs5,4
		        psgNoteL F5,3
		        psgNoteL Fs5,4
		        psgNoteL F5,3
		        psgNote  Fs5
		        psgNote  F5
		        psgNote  Fs5
		        psgNote  F5
		        psgNote  Fs5
		        psgNote  F5
		        psgNote  Fs5
		        psgNote  F5
		        psgNote  Fs5
		        psgNote  F5
		        psgNote  Fs5
		        psgNoteL D5,24
		        psgNoteL B4,46
		        waitL    2
		        psgNoteL D5,24
		        psgNote  F5
		        psgNoteL Cs5,46
		        waitL    2
		        psgNoteL F5,24
		        psgNoteL Fs5,6
		        psgNote  Fs5
		        psgNoteL Fs5,4
		  psgInst 00h
		        waitL    8
		  psgInst 07Bh
		        psgNoteL Fs5,6
		        psgNote  Fs5
		        psgNoteL Fs5,4
		  psgInst 00h
		        waitL    8
		        waitL    12
		  psgInst 07Bh
		        psgNoteL Fs5,6
		        psgNote  Fs5
		        psgNoteL Fs5,4
		  psgInst 00h
		        waitL    20
		  psgInst 07Bh
		        psgNoteL Fs5,6
		        psgNote  Fs5
		        psgNoteL Fs5,4
		  psgInst 00h
		        waitL    20
		  psgInst 07Bh
		        psgNoteL Fs5,6
		        psgNote  Fs5
		        psgNoteL Fs5,4
		  psgInst 00h
		        waitL    44
		mainLoopEnd
Music_2_Channel_7:
		mainLoopStart
		  psgInst 00h
		  setRelease 01h
		  vibrato 05Ch
		        waitL    96
		        wait
		        wait
		        wait
		        wait
		        wait
		        wait
		        wait
		        wait
		        wait
		        wait
		        wait
		  psgInst 0FBh
		        psgNoteL Cs5,4
		        wait
		        psgNote  Cs5
		        wait
		        psgNote  Cs5
		        wait
		        psgNote  Cs5
		        wait
		        psgNote  Cs5
		        wait
		        psgNote  Cs5
		        wait
		        psgNote  Cs5
		        wait
		        psgNote  Cs5
		        wait
		        psgNote  Cs5
		        wait
		        psgNote  Cs5
		        wait
		        psgNote  Cs5
		        wait
		        psgNote  Cs5
		        wait
		  psgInst 00h
		        waitL    96
		        waitL    48
		  psgInst 0FBh
		        psgNoteL E5,4
		        wait
		        psgNote  E5
		        wait
		        psgNote  E5
		        wait
		        psgNote  E5
		        wait
		        psgNote  E5
		        wait
		        psgNote  E5
		        wait
		  psgInst 00h
		        waitL    48
		        waitL    96
		        waitL    90
		  psgInst 07Bh
		        psgNoteL B4,2
		        waitL    4
		        psgNoteL B4,24
		        psgNoteL Fs4,46
		        waitL    2
		        psgNoteL B4,28
		        psgNoteL Cs5,3
		        psgNoteL D5,4
		        psgNoteL Cs5,3
		        psgNoteL D5,4
		        psgNoteL Cs5,3
		        psgNoteL D5,4
		        psgNoteL Cs5,3
		        psgNoteL D5,4
		        psgNoteL Cs5,3
		        psgNoteL D5,4
		        psgNoteL Cs5,3
		        psgNoteL D5,4
		        psgNoteL Cs5,3
		        psgNoteL D5,4
		        psgNoteL Cs5,3
		        psgNoteL D5,4
		        psgNoteL Cs5,3
		        psgNote  D5
		        psgNote  Cs5
		        psgNote  D5
		        psgNote  Cs5
		        psgNote  D5
		        psgNote  Cs5
		        psgNote  D5
		        psgNote  Cs5
		        psgNote  D5
		        psgNote  Cs5
		        psgNote  D5
		        psgNoteL B4,24
		        psgNoteL Fs4,46
		        waitL    2
		        psgNoteL B4,24
		        psgNote  Cs5
		        psgNoteL Gs4,46
		        waitL    2
		        psgNoteL Cs5,24
		  psgInst 07Bh
		        psgNoteL C4,2
		        waitL    4
		        psgNoteL C4,2
		        waitL    4
		        psgNoteL C4,2
		  psgInst 00h
		        waitL    10
		  psgInst 07Bh
		        psgNoteL C4,2
		        waitL    4
		        psgNoteL C4,3
		        wait
		        psgNoteL C4,2
		  psgInst 00h
		        waitL    22
		  psgInst 07Bh
		        psgNoteL C4,2
		        waitL    4
		        psgNoteL C4,3
		        wait
		        psgNoteL C4,4
		  psgInst 00h
		        waitL    20
		  psgInst 07Bh
		        psgNoteL C4,2
		        waitL    4
		        psgNoteL C4,3
		        wait
		        psgNote  C4
		  psgInst 00h
		        waitL    21
		  psgInst 07Bh
		        psgNoteL C4,2
		        waitL    4
		        psgNoteL C4,3
		        wait
		        psgNoteL C4,4
		  psgInst 00h
		        waitL    44
		mainLoopEnd
Music_2_Channel_9:
		channel_end
