
; ASM FILE music19.asm :
; 0xC076..0xC2B2 : Music 19
Music_19:       db 0
		db 0
		db 0
		db 0C6h
		dw Music_19_Channel_0
		dw Music_19_Channel_1
		dw Music_19_Channel_2
		dw Music_19_Channel_3
		dw Music_19_Channel_4
		dw Music_19_Channel_5
		dw Music_19_Channel_6
		dw Music_19_Channel_7
		dw Music_19_Channel_9
		dw Music_19_Channel_9
Music_19_Channel_0:
		        waitL 12
		mainLoopStart
		  inst 38
		  setRelease 01h
		  vibrato 02Ch
		countedLoopStart 3
		  vol 08h
		        noteL C7,24
		  vol 07h
		        note  E6
		countedLoopEnd
		countedLoopStart 3
		  vol 08h
		        noteL Cs7,24
		  vol 07h
		        note  E6
		countedLoopEnd
		countedLoopStart 3
		  vol 08h
		        noteL D7,24
		  vol 07h
		        note  F6
		countedLoopEnd
		countedLoopStart 3
		  vol 08h
		        noteL Ds7,24
		  vol 07h
		        note  Fs6
		countedLoopEnd
		  vol 09h
		        noteL E7,4
		  vol 08h
		        note  E7
		  vol 07h
		        note  E7
		  vol 06h
		        note  E7
		        note  E7
		        note  E7
		        note  E7
		        note  E7
		        note  E7
		        note  E7
		        note  E7
		        note  E7
		        note  E7
		        note  E7
		        note  E7
		        note  E7
		        note  E7
		        note  E7
		        note  E7
		        note  E7
		        note  E7
		        note  E7
		        note  E7
		        note  E7
		        note  E7
		        note  E7
		        note  E7
		        note  E7
		        note  E7
		        note  E7
		        note  E7
		        note  E7
		        note  E7
		        note  E7
		        note  E7
		        note  E7
		        note  E7
		        note  E7
		        note  E7
		        note  E7
		        note  E7
		        note  E7
		        note  E7
		        note  E7
		        note  E7
		        note  E7
		        note  E7
		        note  E7
		  vol 07h
		        note  E7
		        note  E7
		        note  E7
		        note  E7
		        note  E7
		        note  E7
		        note  C7
		        note  C7
		        note  C7
		        note  C7
		        note  C7
		        note  C7
		        note  D7
		        note  D7
		        note  D7
		        note  D7
		        note  D7
		        note  D7
		        note  B6
		        note  B6
		        note  B6
		        note  B6
		        note  B6
		        note  B6
		        note  C7
		        note  C7
		        note  C7
		        note  C7
		        note  C7
		        note  C7
		        note  A6
		        note  A6
		        note  A6
		        note  A6
		        note  A6
		        note  A6
		        note  B6
		        note  B6
		        note  B6
		        note  B6
		        note  B6
		        note  B6
		        note  Gs6
		        note  Gs6
		        note  Gs6
		        note  Gs6
		        note  Gs6
		        note  Gs6
		mainLoopEnd
Music_19_Channel_1:
		        waitL 12
		mainLoopStart
		  inst 38
		  setRelease 01h
		  vibrato 02Ch
		countedLoopStart 3
		  vol 08h
		        noteL A6,24
		  vol 07h
		        note  C6
		countedLoopEnd
		countedLoopStart 3
		  vol 08h
		        noteL A6,24
		  vol 07h
		        note  Cs6
		countedLoopEnd
		countedLoopStart 3
		  vol 08h
		        noteL A6,24
		  vol 07h
		        note  D6
		countedLoopEnd
		countedLoopStart 3
		  vol 08h
		        noteL A6,24
		  vol 07h
		        note  Ds6
		countedLoopEnd
		  vol 09h
		        noteL Gs6,3
		  vol 08h
		        note  Gs6
		  vol 07h
		        note  Gs6
		  vol 06h
		        note  Gs6
		        note  Gs6
		        note  Gs6
		        note  Gs6
		        note  Gs6
		        note  Gs6
		        note  Gs6
		        note  Gs6
		        note  Gs6
		        note  Gs6
		        note  Gs6
		        note  Gs6
		        note  Gs6
		        note  Gs6
		        note  Gs6
		        note  Gs6
		        note  Gs6
		        note  Gs6
		        note  Gs6
		        note  Gs6
		        note  Gs6
		        note  Gs6
		        note  Gs6
		        note  Gs6
		        note  Gs6
		        note  Gs6
		        note  Gs6
		        note  Gs6
		        note  Gs6
		        note  Gs6
		        note  Gs6
		        note  Gs6
		        note  Gs6
		        note  Gs6
		        note  Gs6
		        note  Gs6
		        note  Gs6
		        note  Gs6
		        note  Gs6
		        note  Gs6
		        note  Gs6
		        note  Gs6
		        note  Gs6
		        note  Gs6
		        note  Gs6
		        note  Gs6
		        note  Gs6
		        note  Gs6
		        note  Gs6
		        note  Gs6
		        note  Gs6
		        note  Gs6
		        note  Gs6
		        note  Gs6
		        note  Gs6
		        note  Gs6
		        note  Gs6
		        note  Gs6
		        note  Gs6
		        note  Gs6
		        note  Gs6
		  vol 07h
		        note  Gs6
		        note  Gs6
		        note  Gs6
		        note  Gs6
		        note  Gs6
		        note  Gs6
		        note  Gs6
		        note  Gs6
		        note  E6
		        note  E6
		        note  E6
		        note  E6
		        note  E6
		        note  E6
		        note  E6
		        note  E6
		        note  F6
		        note  F6
		        note  F6
		        note  F6
		        note  F6
		        note  F6
		        note  F6
		        note  F6
		        note  D6
		        note  D6
		        note  D6
		        note  D6
		        note  D6
		        note  D6
		        note  D6
		        note  D6
		        note  E6
		        note  E6
		        note  E6
		        note  E6
		        note  E6
		        note  E6
		        note  E6
		        note  E6
		        note  C6
		        note  C6
		        note  C6
		        note  C6
		        note  C6
		        note  C6
		        note  C6
		        note  C6
		        note  D6
		        note  D6
		        note  D6
		        note  D6
		        note  D6
		        note  D6
		        note  D6
		        note  D6
		        note  B5
		        note  B5
		        note  B5
		        note  B5
		        note  B5
		        note  B5
		        note  B5
		        note  B5
		mainLoopEnd
Music_19_Channel_2:
		channel_end
Music_19_Channel_3:
		        waitL 12
		mainLoopStart
		  inst 26
		  vol 0Ah
		  setRelease 01h
		  vibrato 02Ah
		        noteL E4,192
		        note  G4
		        noteL F4,144
		        noteL A4,48
		        noteL B4,96
		        noteL A4,48
		        note  C5
		  sustain
		        noteL D5,192
		  setRelease 01h
		        note  D5
		mainLoopEnd
Music_19_Channel_4:
		        waitL 12
		mainLoopStart
		  inst 38
		  vol 0Bh
		  setRelease 01h
		  vibrato 02Ah
		        noteL A3,192
		        note  A3
		        note  D4
		        note  Ds4
		  sustain
		        note  E4
		  setRelease 01h
		        note  E4
		mainLoopEnd
Music_19_Channel_5:
		channel_end
Music_19_Channel_6:
		  psgInst 06Ch
		  setRelease 01h
		  vibrato 04Ch
		        psgNoteL A3,12
		mainLoopStart
		  ymTimer 0C6h
		        psgNoteL A3,48
		        psgNoteL C4,118
		        waitL    14
		        psgNoteL A3,12
		        psgNoteL A3,48
		        psgNoteL Cs4,72
		        psgNoteL A3,24
		        psgNote  B3
		        psgNote  Cs4
		        psgNoteL D4,48
		        psgNoteL F4,96
		        psgNoteL D4,48
		        psgNote  Ds4
		        psgNoteL Fs4,96
		        psgNoteL A4,48
		        psgNoteL Gs4,24
		        psgNote  E4
		        psgNote  F4
		        psgNote  D4
		        psgNote  E4
		        psgNote  C4
		        psgNote  D4
		        psgNote  B3
		        psgNote  E4
		        psgNote  C4
		        psgNote  D4
		        psgNote  B3
		  ymTimer 0C4h
		        psgNote  C4
		  ymTimer 0C1h
		        psgNote  A3
		  ymTimer 0BCh
		        psgNote  B3
		  ymTimer 0AFh
		        psgNote  Gs3
		mainLoopEnd
Music_19_Channel_7:
		  psgInst 06Ch
		  setRelease 01h
		  vibrato 04Ch
		        psgNoteL E3,12
		mainLoopStart
		        psgNoteL E3,48
		        psgNoteL A3,118
		        waitL    14
		        psgNoteL E3,12
		        psgNoteL E3,48
		        psgNoteL A3,70
		        waitL    26
		        psgNoteL G3,24
		        psgNote  G3
		        psgNoteL A3,48
		        psgNoteL D4,96
		        psgNoteL A3,48
		        psgNote  A3
		        psgNoteL Ds4,96
		        psgNoteL Fs4,48
		        psgNoteL E4,24
		        psgNote  C4
		        psgNote  D4
		        psgNote  B3
		        psgNote  C4
		        psgNote  A3
		        psgNote  B3
		        psgNote  Gs3
		        psgNote  Gs3
		        psgNote  E3
		        psgNote  F3
		        psgNote  D3
		        psgNote  E3
		        psgNote  C3
		        psgNote  D3
		        psgNote  B2
		mainLoopEnd
Music_19_Channel_9:
		channel_end
