
; ASM FILE music15.asm :
; 0xC96F..0xCC0F : Music 15
Music_15:       db 0
		db 0
		db 0
		db 0BEh
		dw Music_15_Channel_0
		dw Music_15_Channel_1
		dw Music_15_Channel_2
		dw Music_15_Channel_3
		dw Music_15_Channel_4
		dw Music_15_Channel_5
		dw Music_15_Channel_6
		dw Music_15_Channel_7
		dw Music_15_Channel_9
		dw Music_15_Channel_9
Music_15_Channel_0:
		        waitL 36
		  inst 26
		  vol 0Dh
		  setRelease 01h
		  vibrato 02Ah
		        noteL C7,18
		        noteL G6,6
		        noteL G6,5
		        waitL 7
		        noteL C7,5
		        waitL 7
		        noteL C7,18
		        noteL A6,6
		        noteL A6,24
		        note  G7
		        note  D7
		        note  G7
		        note  D7
		        noteL C7,18
		        noteL G6,6
		        noteL G6,5
		        waitL 7
		        noteL C7,5
		        waitL 7
		        noteL C7,18
		        noteL A6,6
		        noteL A6,24
		        noteL G7,6
		        note  G7
		        noteL Fs7,4
		        waitL 8
		        noteL F7,4
		        waitL 8
		        noteL E7,4
		        waitL 8
		        noteL B6,4
		        waitL 8
		        noteL D7,4
		        waitL 8
		        noteL E7,12
		        wait
		channel_end
Music_15_Channel_1:
		        waitL 36
		  inst 26
		  vol 0Dh
		  setRelease 01h
		  vibrato 02Ah
		        noteL Fs6,2
		        noteL G6,16
		        noteL Ds6,2
		        noteL E6,4
		        noteL Ds6,2
		        note  E6
		        waitL 8
		        noteL Fs6,2
		        note  G6
		        waitL 8
		        noteL Gs6,2
		        noteL A6,16
		        noteL E6,2
		        noteL F6,4
		        noteL E6,2
		        noteL F6,22
		        noteL Fs7,24
		        note  Cs7
		        note  Fs7
		        note  Cs7
		        noteL Fs6,2
		        noteL G6,16
		        noteL Ds6,2
		        noteL E6,4
		        noteL Ds6,2
		        note  E6
		        waitL 8
		        noteL Fs6,2
		        note  G6
		        waitL 8
		        noteL Gs6,2
		        noteL A6,16
		        noteL E6,2
		        noteL F6,4
		        noteL E6,2
		        noteL F6,22
		        noteL B6,6
		        note  B6
		        noteL As6,4
		        waitL 8
		        noteL A6,4
		        waitL 8
		        noteL G6,4
		        waitL 8
		        noteL F6,4
		        waitL 8
		        noteL Fs6,2
		        noteL G6,4
		        waitL 6
		        noteL B6,2
		        noteL C7,10
		        waitL 12
		channel_end
Music_15_Channel_2:
		        waitL 36
		  inst 48
		  vol 0Dh
		  setRelease 01h
		  vibrato 02Ah
		        noteL B5,2
		        noteL C6,4
		        noteL G6,6
		        note  E7
		        note  C7
		        noteL Ds6,2
		        noteL E6,4
		        noteL G6,6
		        note  E7
		        note  C7
		        noteL E6,2
		        noteL F6,4
		        noteL A6,6
		        note  F7
		        note  C7
		        noteL B5,2
		        noteL C6,4
		        noteL A6,6
		        note  F7
		        note  C7
		        note  G7
		        note  G7
		        note  Fs7
		        wait
		        note  F7
		        wait
		        note  E7
		        wait
		        note  D7
		        wait
		        note  E7
		        wait
		        noteL F7,24
		        noteL B5,2
		        noteL C6,4
		        noteL G6,6
		        note  E7
		        note  C7
		        noteL Ds6,2
		        noteL E6,4
		        noteL G6,6
		        note  E7
		        note  C7
		        noteL E6,2
		        noteL F6,4
		        noteL A6,6
		        note  F7
		        note  C7
		        noteL B5,2
		        noteL C6,4
		        noteL A6,6
		        note  F7
		        note  C7
		        note  G7
		        note  G7
		        note  Fs7
		        wait
		        note  F7
		        wait
		        note  E7
		        wait
		        note  D7
		        wait
		        note  F7
		        wait
		        note  E7
		        waitL 18
		channel_end
Music_15_Channel_3:
		        waitL 36
		        waitL 96
		  inst 48
		  vol 0Dh
		  setRelease 01h
		  vibrato 02Ah
		        noteL B6,6
		        note  B6
		        note  As6
		        wait
		        note  A6
		        wait
		        note  G6
		        wait
		        note  F6
		        wait
		        note  G6
		        wait
		        noteL A6,24
		        waitL 96
		        noteL B6,6
		        note  B6
		        note  As6
		        wait
		        note  A6
		        wait
		        note  G6
		        wait
		        note  F6
		        wait
		        note  B6
		        wait
		        note  C7
		        waitL 18
		channel_end
Music_15_Channel_4:
		  inst 36
		  vol 0Dh
		  setRelease 01h
		  vibrato 02Ah
		        noteL G3,6
		        wait
		        note  A3
		        wait
		        note  B3
		        wait
		        note  C4
		        waitL 18
		        noteL G3,6
		        waitL 18
		        noteL F3,6
		        waitL 18
		        noteL C4,6
		        waitL 18
		        noteL G3,54
		        waitL 6
		        note  G3
		        wait
		        note  A3
		        wait
		        note  B3
		        wait
		        note  C4
		        waitL 18
		        noteL G3,6
		        waitL 18
		        noteL F3,6
		        waitL 18
		        noteL C4,6
		        waitL 18
		        noteL G3,54
		        waitL 6
		        note  B3
		        wait
		        note  C4
		        waitL 18
		channel_end
Music_15_Channel_5:
		        sampleL 1,6
		        sample  2
		        sampleL 1,12
		        sample  1
		        sample  0
		        sample  1
		        sample  0
		        sample  1
		        sample  0
		        sample  1
		        sample  0
		        sample  1
		        sampleL 1,3
		        sample  2
		        sample  2
		        sample  3
		        sample  3
		        sample  3
		        sample  3
		        sample  3
		        sample  3
		        sample  3
		        sample  3
		        sample  3
		        sample  3
		        sample  3
		        sample  3
		        sample  3
		        sample  3
		        waitL 9
		        sampleL 1,12
		        sample  1
		        sample  1
		        sample  0
		        sample  1
		        sample  0
		        sample  1
		        sample  0
		        sample  1
		        sample  0
		        sample  1
		        sampleL 1,3
		        sample  2
		        sample  2
		        sample  3
		        sample  3
		        sample  3
		        sample  3
		        sample  3
		        sample  3
		        sample  3
		        sample  3
		        sample  3
		        sample  3
		        sample  3
		        sample  3
		        sample  3
		        sampleL 3,12
		        sample  1
		        sample  1
		        wait
		channel_end
Music_15_Channel_6:
		  psgInst 00h
		        waitL    36
		        waitL    12
		  psgInst 06Ch
		  setRelease 01h
		  vibrato 04Ch
		        psgNoteL C6,4
		        waitL    20
		        psgNoteL C6,4
		        waitL    20
		        psgNoteL C6,4
		        waitL    20
		        psgNoteL C6,4
		        waitL    8
		        psgNoteL B5,6
		        psgNote  B5
		        psgNote  As5
		        wait
		        psgNote  A5
		        wait
		        psgNote  G5
		        wait
		        psgNote  F5
		        wait
		        psgNote  G5
		        wait
		        psgNoteL A5,24
		        waitL    12
		        psgNoteL C6,4
		        waitL    20
		        psgNoteL C6,4
		        waitL    20
		        psgNoteL C6,4
		        waitL    20
		        psgNoteL C6,4
		        waitL    8
		        psgNoteL B5,6
		        psgNote  B5
		        psgNote  As5
		        wait
		        psgNote  A5
		        wait
		        psgNote  G5
		        wait
		        psgNote  G5
		        wait
		        psgNote  B5
		        wait
		        psgNoteL C6,12
		        wait
		channel_end
Music_15_Channel_7:
		  psgInst 00h
		        waitL    36
		        waitL    12
		  psgInst 06Ch
		  setRelease 01h
		  vibrato 04Ch
		        psgNoteL Fs5,2
		        psgNote  G5
		        waitL    20
		        psgNoteL Fs5,2
		        psgNote  G5
		        waitL    20
		        psgNoteL Gs5,2
		        psgNote  A5
		        waitL    20
		        psgNoteL Gs5,2
		        psgNote  A5
		        waitL    8
		        psgNoteL G5,6
		        psgNote  G5
		        psgNote  Fs5
		        wait
		        psgNote  F5
		        wait
		        psgNote  E5
		        wait
		        psgNote  D5
		        wait
		        psgNote  E5
		        wait
		        psgNoteL F5,24
		        waitL    12
		        psgNoteL Fs5,2
		        psgNote  G5
		        waitL    20
		        psgNoteL Fs5,2
		        psgNote  G5
		        waitL    20
		        psgNoteL Gs5,2
		        psgNote  A5
		        waitL    20
		        psgNoteL Gs5,2
		        psgNote  A5
		        waitL    8
		        psgNoteL G5,6
		        psgNote  G5
		        psgNote  Fs5
		        wait
		        psgNote  F5
		        wait
		        psgNote  E5
		        wait
		        psgNote  D5
		        wait
		        psgNote  F5
		        wait
		        psgNoteL E5,12
		        wait
Music_15_Channel_9:
		channel_end
